<svg xmlns="http://www.w3.org/2000/svg" viewBox="0 0 656.35 123.81"><defs><style>.cls-1{fill:#fff;}</style></defs><title>ExxonMobil</title><g id="Layer_2" data-name="Layer 2"><g id="Layer_1-2" data-name="Layer 1"><path class="cls-1" d="M257.05,24H275.2v6.2a28.22,28.22,0,0,1,19.86-7.73c13.67,0,24.52,10.1,24.52,25.95V89.5H300.41v-36c0-8.83-4.3-14.07-12.1-14.07-7.56,0-12.1,4.94-12.1,14.07v36H257.05ZM458.52,56.72c0-9.06,6.77-16.51,16.18-16.51s16.19,7.45,16.19,16.51-6.78,16.51-16.19,16.51S458.52,65.78,458.52,56.72Zm-18.92,0c0,18.91,15.15,34.27,35,34.27s35-15.36,35-34.27-15.15-34.3-35-34.3S439.6,37.81,439.6,56.72Zm-244.29,0c0-9.07,6.77-16.51,16.18-16.51s16.19,7.44,16.19,16.51-6.77,16.51-16.19,16.51S195.31,65.79,195.31,56.73Zm-18.92,0c0,18.91,15.15,34.27,35,34.27s35-15.36,35-34.27-15.15-34.3-35-34.3S176.39,37.82,176.39,56.73ZM602.51,24h19.43V89.5H602.51Zm0-23.95h19.43V16.68H602.51Zm34.41,0h19.43V89.5H636.92Zm-65.4,56.68a16.4,16.4,0,1,1-16.35-16.36A16,16,0,0,1,571.52,56.68ZM539.21,89.5l.2-5c1.35,1,7.36,6.54,19.93,6.54,16.53,0,31.86-14.81,31.86-34.27s-14.39-34.3-31.64-34.3c-13.19,0-19.22,6-20.15,6.71V0H520.78V89.5Zm-453.33,0,20.19-26,12.6,12.75L89.84,112.38H112.4l18.45-23.91,34.74,35.34h27.22L142.89,73.62,182.2,24H159.64l-29,37.3L118,48.61,150.33,7.9H127.82L105.76,36.31,93.77,24H66.92l27,27.3L63.4,89.5ZM0,0H58.94V16.68H20.05V35.23H57.19V51.42H20.05V72.8H58.94V89.5H0ZM334.93,0h31.69l15,65.33h.67L397.59,0h30.79V89.5H409.52V21.92h-.85L392.06,89.5H370.88L354.65,21.92h-.86V89.5H334.93Z"/></g></g></svg>