<svg xmlns="http://www.w3.org/2000/svg" viewBox="0 0 1070.73 1307.87"><defs><style>.cls-1{fill:#fff;}.cls-2,.cls-3{fill:none;stroke:#fff;}.cls-2{stroke-miterlimit:10;stroke-width:8px;}.cls-3{stroke-miterlimit:3;stroke-width:1.42px;}</style></defs><title>TWA</title><g id="Layer_2" data-name="Layer 2"><g id="Layer_1-2" data-name="Layer 1"><polygon class="cls-1" points="1034.39 156.48 792.97 833.74 41.17 562.27 13.24 598.49 814.21 889.2 1070.73 164.16 1034.39 156.48"/><polygon class="cls-2" points="446.54 31.84 54.63 537.93 774.16 798.09 1004.6 149.24 446.54 31.84"/><polygon class="cls-3" points="432.44 0.78 1.16 551.07 792.97 833.99 1046.58 128.44 432.44 0.78"/><path class="cls-1" d="M533.41,467.83q-.51-4.4,5.37-13.67a294.1,294.1,0,0,1-54.52,9.17q-27.58,2-49.74-2.61-24.36-5.09-40.85-17.61t-17.35-31.57q-.87-19.05,15.27-38.22,19.88-23.62,62.15-42.67a287.35,287.35,0,0,1,85.46-24q43.18-5,74.44,1.56,23.86,5,39.82,16.26t20,28.36l27.81-20.92,49,10.23L627.55,433.53q-25.57,19.13-27.9,21.33-3.52,4.18-.42,8.37t11.09,5.86q14.56,3,45.86-1.1a261.56,261.56,0,0,0,76.47-21.53q35.1-16.17,53-37.44,20.88-24.84,15.58-51.29t-40.89-49.09q-35.6-22.63-91.78-34.36a461.94,461.94,0,0,0-130.88-8.2Q471,271.26,416.24,295.52t-83.94,59q-30.58,36.38-23.5,68.74t51.79,56.43q44.69,24.06,111.85,38.09,71.82,15,131.37,12t99.46-16.72l49.56,10.34q-27,12.61-74.59,21.67T576,553.73q-54.76-.39-120.78-14.16-60.82-12.71-105.08-31.86T283.93,464Q262,439.5,262.27,413.58q.54-32.82,27.84-65.27,30.42-36.17,85.35-63.2,67.2-33.19,146.64-41.71t167.08,9.78q67.91,14.18,109.34,40.53t47.57,62.68q5,31.22-20.36,61.33-36.19,43-120.21,64.74Q630.39,502,571.15,489.65q-18.92-3.94-28-9.46t-9.75-12.36Zm-92.73-81.95q-17.21,20.44-9,35.51t31.19,19.85q15.3,3.18,36.38,1.82a218.3,218.3,0,0,0,44.82-8,197,197,0,0,0,46.26-19.82Q612.87,402,626,387.15q16.83-20.52,7.86-35.64t-35.47-20.66a128.21,128.21,0,0,0-37-2q-19.53,1.62-43,9.35a207.08,207.08,0,0,0-45.21,21.29Q451.47,373,440.68,385.88Z"/><path class="cls-1" d="M533.41,467.83q-.51-4.4,5.37-13.67a294.1,294.1,0,0,1-54.52,9.17q-27.58,2-49.74-2.61-24.36-5.09-40.85-17.61t-17.35-31.57q-.87-19.05,15.27-38.22,19.88-23.62,62.15-42.67a287.35,287.35,0,0,1,85.46-24q43.18-5,74.44,1.56,23.86,5,39.82,16.26t20,28.36l27.81-20.92,49,10.23L627.55,433.53q-25.57,19.13-27.9,21.33-3.52,4.18-.42,8.37t11.09,5.86q14.56,3,45.86-1.1a261.56,261.56,0,0,0,76.47-21.53q35.1-16.17,53-37.44,20.88-24.84,15.58-51.29t-40.89-49.09q-35.6-22.63-91.78-34.36a461.94,461.94,0,0,0-130.88-8.2Q471,271.26,416.24,295.52t-83.94,59q-30.58,36.38-23.5,68.74t51.79,56.43q44.69,24.06,111.85,38.09,71.82,15,131.37,12t99.46-16.72l49.56,10.34q-27,12.61-74.59,21.67T576,553.73q-54.76-.39-120.78-14.16-60.82-12.71-105.08-31.86T283.93,464Q262,439.5,262.27,413.58q.54-32.82,27.84-65.27,30.42-36.17,85.35-63.2,67.2-33.19,146.64-41.71t167.08,9.78q67.91,14.18,109.34,40.53t47.57,62.68q5,31.22-20.36,61.33-36.19,43-120.21,64.74Q630.39,502,571.15,489.65q-18.92-3.94-28-9.46t-9.75-12.36Zm-92.73-81.95q-17.21,20.44-9,35.51t31.19,19.85q15.3,3.18,36.38,1.82a218.3,218.3,0,0,0,44.82-8,197,197,0,0,0,46.26-19.82Q612.87,402,626,387.15q16.83-20.52,7.86-35.64t-35.47-20.66a128.21,128.21,0,0,0-37-2q-19.53,1.62-43,9.35a207.08,207.08,0,0,0-45.21,21.29Q451.47,373,440.68,385.88Z"/><path class="cls-1" d="M89.56,1197.26V1123H67.8v-15.16h58.32V1123H104.37v74.29Z"/><path class="cls-1" d="M135.73,1197.26v-89.45h14.81V1143h29.05v-35.18H194.4v89.45H179.59v-39.11H150.54v39.11Z"/><path class="cls-1" d="M275.76,1197.26H259.7L253.3,1177H224l-6.06,20.25H202.16l28.47-89.45h15.83Zm-27.16-35.41-10.16-33.18-9.93,33.18Z"/><path class="cls-1" d="M283.18,1197.26v-89.45H298v89.45Z"/><path class="cls-1" d="M351,1197.26l-17.56-89.45h15.19l11,61.5,13.3-61.5h17.61l12.94,62.54,11.21-62.54h14.89L412,1197.26H396.22l-14.68-66.93-14.48,66.93Z"/><path class="cls-1" d="M437.34,1197.26v-89.45h54.39V1123H452.16v19.79H489v15h-36.8v24.31h41v15.15Z"/><path class="cls-1" d="M505.57,1107.81h29.36q12,0,16.9,2.2a18.61,18.61,0,0,1,8.24,7.74,25.14,25.14,0,0,1,.48,24.24,18.81,18.81,0,0,1-7.48,7.71,19.85,19.85,0,0,1,10.25,7.94,24.35,24.35,0,0,1,3.7,13.68q0,9.77-4.7,16.51t-11.11,8.33q-4.46,1.11-20.68,1.1h-25Zm14.81,14.93v20.6h9.73q8.76,0,10.83-.3a9.24,9.24,0,0,0,5.9-3.2,10.67,10.67,0,0,0,2.13-7,10.87,10.87,0,0,0-1.74-6.41,7.23,7.23,0,0,0-4.2-3.07q-2.46-.6-14.13-.61Zm0,35.53v23.84h13.73q9,0,11.59-.95a8.6,8.6,0,0,0,4.3-3.71,15,15,0,0,0-.12-14.23,9.5,9.5,0,0,0-4.94-3.89q-3.08-1.07-12.6-1.06Z"/><path class="cls-1" d="M579.41,1197.26v-89.45h22.12l13.35,61.13L628,1107.81h22.32v89.45H636.58v-70.52L622,1197.26h-14.2l-14.57-70.52v70.52Z"/><path class="cls-1" d="M731.08,1197.26H715l-6.4-20.25H679.29l-6.06,20.25H657.48L686,1107.81h15.84Zm-27.15-35.41-10.17-33.18-9.93,33.18Z"/><path class="cls-1" d="M765.15,1198.77q-27,0-30-30.67l14.47-1.73q2.43,17.13,15.95,17.13,6.69,0,10.53-3.51a11.26,11.26,0,0,0,3.83-8.68,9.57,9.57,0,0,0-1.33-5.18,9.9,9.9,0,0,0-4.07-3.5c-1.82-.92-6.25-2.44-13.28-4.59q-9.47-2.86-13.85-6.22a23.41,23.41,0,0,1-7-8.8,26.94,26.94,0,0,1-2.6-11.72,26.15,26.15,0,0,1,3.33-13.17,21.77,21.77,0,0,1,9.21-8.83q5.86-3,14.49-3,13,0,20.24,7t7.7,20.07l-14.81.81q-1-7.21-4.24-10.09t-9.27-2.87q-6,0-9.28,2.49a7.52,7.52,0,0,0-3.25,6.19,7.7,7.7,0,0,0,3,6.14q3,2.49,13.51,5.49,11.16,3.24,16.13,6.81a23.06,23.06,0,0,1,7.59,9.21,32.43,32.43,0,0,1,2.62,13.69q0,11.65-7.17,19.58t-22.42,7.93Z"/><path class="cls-1" d="M823.73,1197.26V1123H802v-15.16H860.3V1123H838.55v74.29Z"/><path class="cls-1" d="M869.91,1197.26v-89.45H924.3V1123H884.72v19.79h36.8v15h-36.8v24.31h41v15.15Z"/><path class="cls-1" d="M938.25,1197.26v-89.45h31.16q11.94,0,17.07,2.41a19,19,0,0,1,8.42,8.36,29,29,0,0,1,3.29,14.24q0,10.48-5,16.89t-14.29,8a36.93,36.93,0,0,1,7.87,7.49q3.11,4.07,8.46,14.56l8.88,17.45H986.31l-10.61-19.47q-5.72-10.56-7.79-13.22a11.48,11.48,0,0,0-4.39-3.67q-2.31-1-7.42-1h-3v37.38Zm14.81-51.6h11q10,0,12.77-.89a8.2,8.2,0,0,0,4.43-3.56,13.17,13.17,0,0,0,1.71-7.14,12.27,12.27,0,0,0-1.71-6.86,8.71,8.71,0,0,0-4.62-3.57q-2.07-.66-12-.67H953.06Z"/><path class="cls-1" d="M71.27,1306.36l28.2-89.45h10.41l30,89.45h-11.1l-8.51-27.08H89.38l-7.92,27.08Zm20.91-36.68h25.08l-7.64-24.8q-3.54-11.42-5.19-18.56a133.64,133.64,0,0,1-4,17.09Z"/><path class="cls-1" d="M168.85,1277.31l9.26-.8q.72,7.41,3.31,11.54a18.57,18.57,0,0,0,7.39,6.66,23,23,0,0,0,10.82,2.51q8.63,0,13.4-4.22a14,14,0,0,0,4.77-11,13.32,13.32,0,0,0-1.74-6.9,13,13,0,0,0-5.24-4.84q-3.49-1.87-15.14-5.34-10.35-3.09-14.76-6.2a21.62,21.62,0,0,1-6.85-7.89,23.45,23.45,0,0,1-2.44-10.82q0-10.85,7-17.74t18.9-6.89a30.17,30.17,0,0,1,14.3,3.24,23,23,0,0,1,9.51,9.28,30.66,30.66,0,0,1,3.63,14.22l-9.26.81q-.74-8.71-5.22-12.92t-12.6-4.21q-8.24,0-12.56,3.68A11.94,11.94,0,0,0,181,1239q0,5.43,3.17,8.41t14.26,6q10.84,3,15.23,5.19a24.48,24.48,0,0,1,10.11,9,25.11,25.11,0,0,1,3.41,13.32,27.74,27.74,0,0,1-3.6,14,24.21,24.21,0,0,1-9.78,9.6,31.29,31.29,0,0,1-14.9,3.3q-13.59,0-21.67-8.25T168.85,1277.31Z"/><path class="cls-1" d="M261.69,1277.31l9.25-.8q.74,7.41,3.32,11.54a18.54,18.54,0,0,0,7.38,6.66,23,23,0,0,0,10.82,2.51q8.63,0,13.41-4.22a14,14,0,0,0,4.77-11,13.32,13.32,0,0,0-1.74-6.9,13.06,13.06,0,0,0-5.24-4.84q-3.51-1.87-15.14-5.34-10.36-3.09-14.76-6.2a21.44,21.44,0,0,1-6.85-7.89,23.45,23.45,0,0,1-2.45-10.82q0-10.85,7-17.74t18.91-6.89a30.13,30.13,0,0,1,14.29,3.24,23,23,0,0,1,9.51,9.28,30.42,30.42,0,0,1,3.63,14.22l-9.26.81q-.74-8.71-5.21-12.92t-12.6-4.21c-5.5,0-9.68,1.23-12.57,3.68a12,12,0,0,0-4.33,9.54c0,3.62,1.05,6.42,3.17,8.41s6.86,4,14.25,6q10.85,3,15.24,5.19a24.51,24.51,0,0,1,10.1,9A25.11,25.11,0,0,1,320,1281a27.74,27.74,0,0,1-3.6,14,24.21,24.21,0,0,1-9.78,9.6,31.26,31.26,0,0,1-14.9,3.3q-13.59,0-21.67-8.25T261.69,1277.31Z"/><path class="cls-1" d="M364.06,1293.72q-9-12.78-9-30.9,0-22.86,10.06-35.13t25.06-12.29a30.55,30.55,0,0,1,17.69,5.49q8,5.49,12.65,15.94t4.66,24.9q0,19.88-9,32.36-9.94,13.77-26,13.78t-26.1-14.15Zm1.11-30.74q0,16.49,7.26,25.6t17.67,9.1q10.65,0,17.85-9.19t7.21-27a54.06,54.06,0,0,0-3.71-20.59,25.39,25.39,0,0,0-8.61-11.11,20.93,20.93,0,0,0-12.56-4.17q-10.95,0-18,9.13T365.17,1263Z"/><path class="cls-1" d="M514.19,1275l9.72,3q-3.23,15.07-11.33,22.46a28.08,28.08,0,0,1-19.69,7.41q-10.2,0-17.44-5T463.61,1287Q459,1276,459,1261q0-14.76,4.61-25t12.49-15.43a31.16,31.16,0,0,1,17.59-5.22A27,27,0,0,1,512,1222q7.63,6.59,10.69,19.34l-9.49,2.77q-4.87-18.51-19.6-18.51a21.7,21.7,0,0,0-12.7,3.74q-5.39,3.75-8.58,11.67t-3.21,20q0,18.33,6.48,27.5t17.22,9.16a19,19,0,0,0,13.71-5.62Q512.25,1286.44,514.19,1275Z"/><path class="cls-1" d="M562.31,1306.36v-89.45H572v89.45Z"/><path class="cls-1" d="M605.45,1306.36l28.2-89.45h10.42l30,89.45H663l-8.51-27.08h-30.9l-7.92,27.08Zm20.92-36.68h25.08l-7.65-24.8q-3.54-11.42-5.19-18.56a130.35,130.35,0,0,1-4,17.09Z"/><path class="cls-1" d="M717.64,1306.36v-78.92H693.46v-10.53h58.2v10.53h-24.3v78.92Z"/><path class="cls-1" d="M787.73,1306.36v-89.45h9.72v89.45Z"/><path class="cls-1" d="M845.17,1293.72q-9-12.78-9-30.9,0-22.86,10.07-35.13t25.06-12.29a30.54,30.54,0,0,1,17.68,5.49q8,5.49,12.66,15.94t4.66,24.9q0,19.88-9,32.36-9.94,13.77-26,13.78t-26.1-14.15Zm1.1-30.74q0,16.49,7.27,25.6t17.67,9.1q10.63,0,17.84-9.19t7.21-27a54.06,54.06,0,0,0-3.71-20.59,25.37,25.37,0,0,0-8.6-11.11,20.93,20.93,0,0,0-12.56-4.17q-10.95,0-18,9.13T846.27,1263Z"/><path class="cls-1" d="M942.88,1306.36v-89.45h10l38.5,70.45v-70.45h9.26v89.45H990.7L952.25,1236v70.34Z"/><path class="cls-1" d="M134.14,989.6a19,19,0,0,1-5.53,5.06,25.12,25.12,0,0,1-7.33,2.55,15.25,15.25,0,0,1,5.08,11.61v46.81h-8.58l-16.38-34.84a8.44,8.44,0,0,0-3.16-3.31,5.87,5.87,0,0,0-3.59-1,8.33,8.33,0,0,0-1.39.08q-6,.93-6,7.18v12a5.69,5.69,0,0,1,1.28-.33,23.49,23.49,0,0,1,2.66-.29,10.88,10.88,0,0,1,7.69,3,9.76,9.76,0,0,1,3.18,7.51,10.32,10.32,0,0,1-.78,4.09,11.45,11.45,0,0,1-2.54,3.66,10.28,10.28,0,0,1-7.93,3.15c-3.67,0-6.58-1-8.73-3.18a11.88,11.88,0,0,1-3.16-8.41v-22a10.56,10.56,0,0,1,3.34-8.1,13.38,13.38,0,0,1,6.84-4q1.16-.22,3.3-.45c1.45-.17,2.33-.27,2.66-.33a22.47,22.47,0,0,1,4.44.4,12.36,12.36,0,0,1,3.79,1.39,10.08,10.08,0,0,1,5,5.38l9.77,21.31v-28.13c0-3.56-1.6-6.63-4.75-9.22a17.42,17.42,0,0,0-11.48-3.89c-9.15,0-15.19,3.58-18.19,10.78H75a22.33,22.33,0,0,1,9.78-12.78,33.81,33.81,0,0,1,8.07-3.34,36,36,0,0,1,9.46-1.17c1.3,0,2.57.06,3.79.16a24.26,24.26,0,0,1,4,.71c.75.15,1.52.33,2.29.47s1.76.54,2.69.79a4.75,4.75,0,0,0,1.38.17,7.88,7.88,0,0,0,4.65-1.74,18.51,18.51,0,0,0,5.13-6.48ZM96,1045.46a5,5,0,0,0-4.91-4.48,5.41,5.41,0,0,0-3.51,1.36,4.88,4.88,0,0,0-1.3,3.12,5.27,5.27,0,0,0,.27,1.85,3.89,3.89,0,0,0,1,1.45,5.58,5.58,0,0,0,1.55.8,9.19,9.19,0,0,0,2,.41,6.16,6.16,0,0,0,1.87-.24,4.94,4.94,0,0,0,1.48-1A4.37,4.37,0,0,0,96,1045.46Z"/><path class="cls-1" d="M198.19,1046.83c0,5.82-2.56,8.75-7.7,8.75h-2.86q-1.95-5.68-8-11.45a33.84,33.84,0,0,0-6.56-5,31.15,31.15,0,0,0-7-3v9.7a10,10,0,0,1-2.81,7.28c-1.85,1.94-4.48,2.92-7.84,2.92a12.77,12.77,0,0,1-8.88-3.51,13.58,13.58,0,0,1-3.61-9.59,12.58,12.58,0,0,1,4.57-9.58,16.11,16.11,0,0,1,5-3.08,15.57,15.57,0,0,1,5.71-1.06V1012a4.89,4.89,0,0,1-1.32.36c-.5.07-1.4.17-2.73.27a11.72,11.72,0,0,1-8-3,10.47,10.47,0,0,1-2.36-3.24,9.7,9.7,0,0,1-.86-4.18,10.69,10.69,0,0,1,3.18-7.64,10.91,10.91,0,0,1,8.11-3.28,11.22,11.22,0,0,1,8.55,3.32,10.6,10.6,0,0,1,3.3,8.2v26.8a20.57,20.57,0,0,1,5.94,1.5,38.23,38.23,0,0,1,6.67,3.61,38.92,38.92,0,0,1,11.23,10V992h8.33Zm-39.58-44.52a4.31,4.31,0,0,0-1.38-3.13,4.53,4.53,0,0,0-3.32-1.41,4.83,4.83,0,0,0-3.43,1.45,4.58,4.58,0,0,0-1.07,4.87,4.13,4.13,0,0,0,1.07,1.49,6.07,6.07,0,0,0,1.48.79,11.29,11.29,0,0,0,1.95.41,4.71,4.71,0,0,0,3.32-1.3A4.14,4.14,0,0,0,158.61,1002.31Zm-.46,42.61v-8.81a8.23,8.23,0,0,0-5.53,2,6.4,6.4,0,0,0-2.11,4.75,7.44,7.44,0,0,0,1.1,4.2,4.31,4.31,0,0,0,3.39,1.87C157.11,1048.88,158.15,1047.56,158.15,1044.92Z"/><path class="cls-1" d="M253,1055.58h-8.34V1010.3a13.55,13.55,0,0,0-3.48-9.52,13.12,13.12,0,0,0-9.68-3.62,14,14,0,0,0-8.89,2.75,18,18,0,0,0-5.57,8h-8.7a23.41,23.41,0,0,1,8.18-12.5q6-4.79,15.17-4.78c6.22,0,11.34,1.6,15.33,4.85a16.07,16.07,0,0,1,6,13.16Z"/><path class="cls-1" d="M319.28,1055.58h-8.34v-41.36a17.3,17.3,0,0,0-4.15-11.66q-4.73-5.4-13.17-5.4-8.06,0-13.18,4.81a15,15,0,0,0-5.14,11.31c0,1.43.05,2.9.16,4.4a39.93,39.93,0,0,0,.64,4.62l2,10.12v7.64c-.12.78-.19,1.34-.23,1.7l1.3-9.56a96.61,96.61,0,0,1,2.36-9.69,54.61,54.61,0,0,1,3.16-8.09q3.42-7.21,11-7.23a11.2,11.2,0,0,1,7.76,3.07,10,10,0,0,1,3.37,7.66,10.21,10.21,0,0,1-3.17,7.54,11,11,0,0,1-8,3.09,11.7,11.7,0,0,1-7.33-2.5q-1.56,4-4.16,14c-.7,2.75-1.36,5.39-1.94,8s-1.17,5.09-1.7,7.63h-8.89v-10c0-4.33-1-11.09-3-20.36-.43-2.34-.81-4.62-1.14-6.88a38.57,38.57,0,0,1-.49-5.23q0-9,7.16-15.63,7.89-6.83,19.93-6.82,11.37,0,18.3,6.35a20.26,20.26,0,0,1,6.92,15.46Zm-18.75-37.66a4.3,4.3,0,0,0-1.46-3.18,4.18,4.18,0,0,0-3.36-1.46,4.82,4.82,0,0,0-3.51,1.46,5.79,5.79,0,0,0-1.39,3.18,4.56,4.56,0,0,0,1.39,3.33,4.33,4.33,0,0,0,1.88.89c.76.18,1.31.29,1.63.35a6.12,6.12,0,0,0,1.84-.23,4.58,4.58,0,0,0,1.52-1A4.81,4.81,0,0,0,300.53,1017.92Z"/><path class="cls-1" d="M387.94,1046.83c0,5.82-2.57,8.75-7.7,8.75h-2.86q-2-5.68-8-11.45a33.48,33.48,0,0,0-6.55-5,30.89,30.89,0,0,0-7-3v9.7a10.15,10.15,0,0,1-2.81,7.28,10.4,10.4,0,0,1-7.85,2.92,12.83,12.83,0,0,1-8.9-3.51,13.56,13.56,0,0,1-3.59-9.59,12.49,12.49,0,0,1,4.58-9.58,16,16,0,0,1,5-3.08,15.68,15.68,0,0,1,5.73-1.06V1012a5.29,5.29,0,0,1-1.33.36c-.49.07-1.4.17-2.72.27a11.73,11.73,0,0,1-8-3,10.64,10.64,0,0,1-2.36-3.24,9.7,9.7,0,0,1-.86-4.18,10.61,10.61,0,0,1,3.19-7.64,10.83,10.83,0,0,1,8.1-3.28,11.24,11.24,0,0,1,8.55,3.32,10.64,10.64,0,0,1,3.31,8.2v26.8a20.67,20.67,0,0,1,5.93,1.5,38.65,38.65,0,0,1,6.68,3.61,39.45,39.45,0,0,1,11.23,10V992h8.33Zm-39.58-44.52a4.29,4.29,0,0,0-1.4-3.13,4.53,4.53,0,0,0-3.31-1.41,4.81,4.81,0,0,0-3.43,1.45,4.6,4.6,0,0,0-1.35,3.09,5.17,5.17,0,0,0,.27,1.78,4.3,4.3,0,0,0,1.08,1.49,6.07,6.07,0,0,0,1.48.79,10.89,10.89,0,0,0,1.95.41,4.71,4.71,0,0,0,3.31-1.3A4.13,4.13,0,0,0,348.36,1002.31Zm-.46,42.61v-8.81a8.2,8.2,0,0,0-5.53,2,6.36,6.36,0,0,0-2.11,4.75,7.28,7.28,0,0,0,1.09,4.2,4.33,4.33,0,0,0,3.37,1.87C346.83,1048.88,347.9,1047.56,347.9,1044.92Z"/><path class="cls-1" d="M453.84,1045.73c0,3.52-.72,6.06-2.18,7.6-1.3,1.51-3.31,2.25-6,2.25h-2.85l-13.51-29.53-13.42,29.53H404.78v-52.74a11.38,11.38,0,0,1,3.15-8.33c2.08-2.15,5.06-3.23,8.91-3.23a10.61,10.61,0,0,1,8,3.32,10.22,10.22,0,0,1,.14,14.95,10.82,10.82,0,0,1-7.84,3.09,19.54,19.54,0,0,1-2.42-.09,4.37,4.37,0,0,1-1.6-.54v32l13.32-28.18,5.92,0L445.51,1044V992h8.33Zm-31.94-43.42a4.05,4.05,0,0,0-1.44-3.09,4.21,4.21,0,0,0-3.3-1.45,4.7,4.7,0,0,0-4.74,4.54,5.33,5.33,0,0,0,.28,1.83,3.64,3.64,0,0,0,1,1.4,4.12,4.12,0,0,0,1.85.9c.75.17,1.27.29,1.59.34a5.75,5.75,0,0,0,1.82-.22,4.6,4.6,0,0,0,1.48-1A4.34,4.34,0,0,0,421.9,1002.31Z"/><path class="cls-1" d="M453.81,1083.26c0,4-.95,7.08-2.89,9.08s-5.06,3-9.46,3H421.32v-5.65a8.86,8.86,0,0,0,4.73-.94c.77-.74,1.15-2.1,1.15-4v-3.41l-3.36.65a10.56,10.56,0,0,1-7.55-2.85,10.21,10.21,0,0,1,0-14.42,10.48,10.48,0,0,1,7.55-2.86,11.71,11.71,0,0,1,8.33,3.06,9.39,9.39,0,0,1,3.36,7.65v16.94h3c3,0,4.91-.52,5.83-1.53a9.48,9.48,0,0,0,.81-2.23,15.38,15.38,0,0,0,.32-3.38V1062.5l8.33-.08Zm-25.45-11.34a4,4,0,0,0-1.19-3,5.37,5.37,0,0,0-3.33-1.4,4.24,4.24,0,0,0-3.08,1.15,5.22,5.22,0,0,0-1.43,3.24,4.19,4.19,0,0,0,1.3,3.12,5.33,5.33,0,0,0,3.21,1.28,4.19,4.19,0,0,0,3.07-1.16A5.23,5.23,0,0,0,428.36,1071.92Z"/><path class="cls-1" d="M466.08,959A20.64,20.64,0,0,1,457,974.66a29.82,29.82,0,0,1-7.82,3.6,33.25,33.25,0,0,1-9.44,1.29,36.35,36.35,0,0,1-8.22-.92,12.76,12.76,0,0,0,3.7-2.93,11.2,11.2,0,0,0,2.17-4.11l-1.72.2a9.47,9.47,0,0,1-6.55-2.56,9.33,9.33,0,0,1-1.91-2.85,8.22,8.22,0,0,1-.7-3.38,8.43,8.43,0,0,1,2.61-6.23,11.06,11.06,0,0,1,3-1.86,9.09,9.09,0,0,1,3.56-.71,10,10,0,0,1,7.19,2.74,8.92,8.92,0,0,1,2.86,6.71,20,20,0,0,1-.55,5.12,21.91,21.91,0,0,1-.92,2.89,15.29,15.29,0,0,1-1.31,2.25,13.62,13.62,0,0,0,6-1.31,18.79,18.79,0,0,0,5.34-3.75,13.29,13.29,0,0,0,4.44-9.85Zm-26.38,4q0-3.94-4.14-4c-2.79,0-4.2,1.32-4.2,4s1.41,3.81,4.2,3.81S439.7,965.51,439.7,963Z"/><path class="cls-1" d="M520,1055.58h-8.33v-41.36a17.06,17.06,0,0,0-4.14-11.82c-3-3.51-7.28-5.24-12.78-5.24a19.07,19.07,0,0,0-12.82,4.34c-3.38,2.91-5.26,5.66-5.58,8.3l-.32,5.87a45.54,45.54,0,0,0,.48,6.17q.48,3.47,1.68,8.48,2.24,9.87,2.24,13.12c.37-.66.78-1.33,1.2-2a26.46,26.46,0,0,1,1.6-2.26,21.27,21.27,0,0,1,1.36-1.86c.7-.88,1.51-1.82,2.41-2.88l5.46-6.19a11.58,11.58,0,0,1-6.19-3.66,10.54,10.54,0,0,1,.81-14.2,11.68,11.68,0,0,1,8.07-3.19,11.19,11.19,0,0,1,7.84,3.19,10.71,10.71,0,0,1,2.15,12.74,17.88,17.88,0,0,1-1.51,2.42c-.64.81-1.25,1.57-1.84,2.24l-9.6,11.57q-3.19,4.14-6.35,8.75a54,54,0,0,0-4.49,7.48h-9v-9.24a54.87,54.87,0,0,0-.49-7c-.32-2.5-.9-5.64-1.74-9.45s-1.46-7-1.84-9.62a51.35,51.35,0,0,1-.56-7.17A20.5,20.5,0,0,1,475,997.18q7.34-6.52,19.76-6.52c7.49,0,13.57,2.08,18.22,6.29a20.05,20.05,0,0,1,7,15.52Zm-19.9-37.66a4.28,4.28,0,0,0-1.5-3.18,4.47,4.47,0,0,0-3.43-1.46,5,5,0,0,0-3.6,1.46,4.76,4.76,0,0,0-1.42,3.18,4.92,4.92,0,0,0,.29,1.78,4.45,4.45,0,0,0,1.13,1.55,5.44,5.44,0,0,0,1.54.81,9.22,9.22,0,0,0,2.06.43,5.14,5.14,0,0,0,3.43-1.24A4.78,4.78,0,0,0,500.1,1017.92Z"/><path class="cls-1" d="M520.15,1083.26c0,4-1,7.08-2.89,9.08s-5.07,3-9.46,3H487.66v-5.65a8.88,8.88,0,0,0,4.73-.94c.77-.74,1.14-2.1,1.14-4v-3.41l-3.35.65a10.54,10.54,0,0,1-7.55-2.85,10.21,10.21,0,0,1,0-14.42,10.47,10.47,0,0,1,7.55-2.86,11.72,11.72,0,0,1,8.33,3.06,9.42,9.42,0,0,1,3.35,7.65v16.94h3c3,0,4.9-.52,5.83-1.53a9,9,0,0,0,.81-2.23,14.79,14.79,0,0,0,.32-3.38V1062.5l8.33-.08Zm-25.46-11.34a3.93,3.93,0,0,0-1.19-3,5.32,5.32,0,0,0-3.32-1.4,4.19,4.19,0,0,0-3.07,1.15,5.23,5.23,0,0,0-1.45,3.24A4.17,4.17,0,0,0,487,1075a5.27,5.27,0,0,0,3.2,1.28,4.25,4.25,0,0,0,3.08-1.16A5.16,5.16,0,0,0,494.69,1071.92Z"/><path class="cls-1" d="M562.73,1045.49a10.56,10.56,0,0,1-.78,4.13,11.46,11.46,0,0,1-2.54,3.63,10.77,10.77,0,0,1-8,3.18,12.31,12.31,0,0,1-8.88-3.2,11.78,11.78,0,0,1-3.18-8.38V992.11h8.33v43.57a16.36,16.36,0,0,1,4-.62,11.33,11.33,0,0,1,7.72,2.94A9.58,9.58,0,0,1,562.73,1045.49Zm-6.25-.07a4.2,4.2,0,0,0-1.43-3.12,4.69,4.69,0,0,0-3.38-1.37,4.94,4.94,0,0,0-3.51,1.37,4.7,4.7,0,0,0-1.39,3.12,4.45,4.45,0,0,0,.29,1.79,4,4,0,0,0,1.1,1.51,6.51,6.51,0,0,0,1.5.78,9.08,9.08,0,0,0,2,.44,4.85,4.85,0,0,0,3.38-1.31A4.11,4.11,0,0,0,556.48,1045.42Zm38,.07a10.56,10.56,0,0,1-.78,4.13,11.5,11.5,0,0,1-2.55,3.63,10.74,10.74,0,0,1-8,3.18,12.29,12.29,0,0,1-8.88-3.2,12,12,0,0,1-2.33-3.74,12.59,12.59,0,0,1-.85-4.64V992.11h8.33v43.57a16.35,16.35,0,0,1,4-.62,11.34,11.34,0,0,1,7.73,2.94A9.58,9.58,0,0,1,594.44,1045.49Zm-6.25-.07a4.17,4.17,0,0,0-1.47-3.12,4.22,4.22,0,0,0-3.34-1.37,4.73,4.73,0,0,0-4.91,4.49,4.63,4.63,0,0,0,.29,1.79,4.19,4.19,0,0,0,1.1,1.51,6.38,6.38,0,0,0,1.51.78,9.08,9.08,0,0,0,2,.44,4.85,4.85,0,0,0,3.38-1.31A4.11,4.11,0,0,0,588.19,1045.42Z"/><path class="cls-1" d="M654.37,1055.58h-8.56l-16.38-34.85a9,9,0,0,0-3.17-3.33,6.16,6.16,0,0,0-3.58-1,9.78,9.78,0,0,0-1.39.07c-4,.64-6,3-6,7.18v12a5.9,5.9,0,0,1,1.28-.36c.49-.07,1.38-.15,2.67-.26a11,11,0,0,1,7.68,2.94,9.77,9.77,0,0,1,3.18,7.49,10.55,10.55,0,0,1-.77,4.13,11.79,11.79,0,0,1-2.54,3.63,10.29,10.29,0,0,1-7.93,3.18,11,11,0,0,1-11.91-11.61v-22a10.53,10.53,0,0,1,3.35-8.1,13.39,13.39,0,0,1,6.85-4c.75-.15,1.85-.3,3.3-.47l2.66-.3a23.18,23.18,0,0,1,4.43.39,12.13,12.13,0,0,1,3.79,1.4,9.85,9.85,0,0,1,5,5.36L646,1038.4v-28.16c0-3.52-1.57-6.61-4.72-9.2a17.44,17.44,0,0,0-11.49-3.88q-13.71,0-18.2,10.78H603a22.36,22.36,0,0,1,9.79-12.77,33.08,33.08,0,0,1,8.07-3.34,35.33,35.33,0,0,1,9.46-1.17q10.29,0,17.16,4.89a15.28,15.28,0,0,1,6.9,13.12Zm-30.32-10.16a5,5,0,0,0-4.9-4.49,5.27,5.27,0,0,0-3.5,1.37,4.76,4.76,0,0,0-1.32,3.12,5.26,5.26,0,0,0,.29,1.84,3.92,3.92,0,0,0,1,1.46,6.5,6.5,0,0,0,1.53.78,10.31,10.31,0,0,0,2,.44,5.32,5.32,0,0,0,1.88-.28,4.18,4.18,0,0,0,1.47-.94A4.42,4.42,0,0,0,624.05,1045.42Z"/><path class="cls-1" d="M697,1045.49a10.56,10.56,0,0,1-.78,4.13,11.63,11.63,0,0,1-2.58,3.63,10.66,10.66,0,0,1-8,3.18,12.32,12.32,0,0,1-8.87-3.2,11.77,11.77,0,0,1-3.17-8.38V992.11h8.34v43.57a15.87,15.87,0,0,1,4-.62,11.26,11.26,0,0,1,7.72,2.94A9.6,9.6,0,0,1,697,1045.49Zm-6.25-.07a4.25,4.25,0,0,0-1.44-3.12,4.73,4.73,0,0,0-3.39-1.37,4.9,4.9,0,0,0-3.5,1.37,4.48,4.48,0,0,0-1.39,3.12,5.07,5.07,0,0,0,.27,1.79,4.15,4.15,0,0,0,1.12,1.51,6.13,6.13,0,0,0,1.5.78,9.25,9.25,0,0,0,2,.44,4.89,4.89,0,0,0,3.39-1.31A4.15,4.15,0,0,0,690.72,1045.42Z"/><path class="cls-1" d="M751.62,1044.82a11.52,11.52,0,0,1-3.15,8.38q-3.13,3.22-8.92,3.23a11.38,11.38,0,0,1-8.14-3.18,11,11,0,0,1-3.17-7.76,9.7,9.7,0,0,1,3.27-7.37,10.94,10.94,0,0,1,7.75-3.06c1.16,0,2,0,2.42.07a5.07,5.07,0,0,1,1.6.55v-25.36a11.86,11.86,0,0,0-4.45-9.38A16.25,16.25,0,0,0,728,997.16a22.24,22.24,0,0,0-10.85,2.8,15.94,15.94,0,0,0-6.53,8h-8.71a23,23,0,0,1,9.84-12.77,33,33,0,0,1,7.75-3.34,31.53,31.53,0,0,1,8.95-1.17c6.57,0,12.08,1.63,16.54,4.93a15.51,15.51,0,0,1,6.68,13.1Zm-7.41.6a4.2,4.2,0,0,0-1.56-3.12,4.25,4.25,0,0,0-3.36-1.37,5.33,5.33,0,0,0-3.5,1.37,4.76,4.76,0,0,0-1.3,3.12,5.28,5.28,0,0,0,.28,1.84,3.78,3.78,0,0,0,1,1.46,6.63,6.63,0,0,0,1.55.78,9.75,9.75,0,0,0,1.95.44,5.25,5.25,0,0,0,1.88-.28,4.21,4.21,0,0,0,1.48-.94A4.43,4.43,0,0,0,744.21,1045.42Z"/><path class="cls-1" d="M752.48,950c0,3.77-1.82,6.85-5.46,9.3A21.6,21.6,0,0,1,734.64,963h-5.86c-.77,0-1.52,0-2.29,0a18.6,18.6,0,0,0-2.53.32c-1.42,0-3,.81-4.89,2.44a6.47,6.47,0,0,0-2.46,5.5,6.66,6.66,0,0,0,2.14,5,4.37,4.37,0,0,0,3,1.42l6-8.18c.27.26.56.56.85.89a3.56,3.56,0,0,1,.61.86l3.35,3.07a9.44,9.44,0,0,1,3-5.32,9.65,9.65,0,0,1,12.66.32,8.63,8.63,0,0,1,1.91,2.69,7.93,7.93,0,0,1,.69,3.32,8.1,8.1,0,0,1-2.76,6.17,9.7,9.7,0,0,1-3.26,1.8A11.32,11.32,0,0,1,741,984a16.78,16.78,0,0,1-3.57-.41,15.9,15.9,0,0,1-3.41-1.27,17.74,17.74,0,0,1-5.85-4.4l-3.67,5.44h-4.72a10.76,10.76,0,0,1-7.64-3.15,11.21,11.21,0,0,1-3.35-8.52,12.64,12.64,0,0,1,4.18-9.23,14,14,0,0,1,8.29-4.08,36.21,36.21,0,0,1,4.83-.56h8.61a12.84,12.84,0,0,0,6.88-1.7,7.19,7.19,0,0,0,2.63-6.05Zm-7.17,25.23c0-2.3-1.18-3.46-3.59-3.46s-3.58,1.16-3.58,3.46,1.19,3.47,3.58,3.47S745.31,977.56,745.31,975.25Z"/><path class="cls-1" d="M821.69,1040.61c0,5-1.17,8.85-3.5,11.48q-3.44,3.5-12.25,3.49H768.19v-6.08c3.2,0,5.4-.49,6.6-1.44s1.78-3,1.78-5.85V1012a5.17,5.17,0,0,1-1.3.36c-.49.07-1.38.17-2.68.27a11.46,11.46,0,0,1-7.9-3,10.55,10.55,0,0,1-2.33-3.24,10,10,0,0,1-.85-4.18,10.64,10.64,0,0,1,3.21-7.64,11.06,11.06,0,0,1,8.19-3.28,11.44,11.44,0,0,1,8.65,3.32,10.57,10.57,0,0,1,3.32,8.2v46.28h16.45c5.08,0,8.32-.55,9.74-1.69,1.53-1.36,2.28-4.15,2.28-8.44V992h8.34Zm-44.21-38.3a4.25,4.25,0,0,0-1.43-3.13,4.66,4.66,0,0,0-3.38-1.41,5,5,0,0,0-3.52,1.45,4.67,4.67,0,0,0-1.39,3.09,4.52,4.52,0,0,0,.29,1.78,4.13,4.13,0,0,0,1.1,1.49,6.19,6.19,0,0,0,1.5.79,11.65,11.65,0,0,0,2,.41,4.86,4.86,0,0,0,3.38-1.3A4.09,4.09,0,0,0,777.48,1002.31Z"/><path class="cls-1" d="M869,1045.49a10.56,10.56,0,0,1-.78,4.13,11.46,11.46,0,0,1-2.54,3.63,10.26,10.26,0,0,1-7.93,3.18,12.22,12.22,0,0,1-8.83-3.2,11.86,11.86,0,0,1-2.3-3.73,13.09,13.09,0,0,1-.76-4.66V960.66l-11.09,10.7a86.12,86.12,0,0,0-5.14-10c-4.29-7-8.91-11.77-13.86-14.3l7.16-4.58q5.32,3.1,10.35,10.29a29.62,29.62,0,0,1,1.63,2.52c.59,1,1.33,2.27,2.2,3.83l11-10.65a5.09,5.09,0,0,1,4.28,2.35,8.77,8.77,0,0,1,1.26,2.81,12.43,12.43,0,0,1,.45,3.38v78.68a5.94,5.94,0,0,1,1.3-.36c.48-.07,1.37-.15,2.66-.26a11,11,0,0,1,7.72,2.94A9.73,9.73,0,0,1,869,1045.49Zm-6-.07a5.07,5.07,0,0,0-4.9-4.49,4.93,4.93,0,0,0-3.52,1.37,4.81,4.81,0,0,0-1.3,3.12,5.05,5.05,0,0,0,.28,1.84,3.53,3.53,0,0,0,1,1.42,4.35,4.35,0,0,0,1.88.91c.75.19,1.3.29,1.64.35a6,6,0,0,0,1.83-.24,4.54,4.54,0,0,0,1.5-1A4.44,4.44,0,0,0,863,1045.42Z"/><path class="cls-1" d="M933.72,1055.58h-8.34v-48.22q0-9.18-6.19-9.17c-1.3,0-2.27,1.13-2.93,3.37l-18.08,54h-9.13V1012a4.71,4.71,0,0,1-1.31.36c-.49.07-1.37.17-2.67.27a11.43,11.43,0,0,1-7.89-3,10.35,10.35,0,0,1-2.32-3.24,9.7,9.7,0,0,1-.86-4.18,10.65,10.65,0,0,1,3.22-7.64,11,11,0,0,1,8.18-3.28A11.38,11.38,0,0,1,894,994.6a10.56,10.56,0,0,1,3.34,8.23v21.77c0,1.07-.07,2.53-.23,4.33s-.39,3.85-.7,6.13a31.43,31.43,0,0,1-.17,3.16c-.11,1.2-.29,2.53-.52,4,.32-1.43.56-2.55.73-3.32a10.48,10.48,0,0,1,.55-1.94,68.4,68.4,0,0,1,2.34-8l10-30.48c1.46-4.75,4.93-7.13,10.46-7.13q6.47,0,10.12,3.5a10.64,10.64,0,0,1,2.83,4.41,20.15,20.15,0,0,1,1,6.67ZM890,1002.31a4.22,4.22,0,0,0-1.43-3.13,4.65,4.65,0,0,0-3.39-1.41,5,5,0,0,0-3.51,1.45,4.58,4.58,0,0,0-1.39,3.09,4.91,4.91,0,0,0,.29,1.78,4.26,4.26,0,0,0,1.1,1.49,6.43,6.43,0,0,0,1.51.79,11.37,11.37,0,0,0,2,.41,4.84,4.84,0,0,0,3.39-1.3A4.06,4.06,0,0,0,890,1002.31Z"/><path class="cls-1" d="M996.92,1040.61c0,5.12-1.16,8.89-3.48,11.34s-6.38,3.63-12.23,3.63H951.09v-22.45a12.06,12.06,0,0,1,2.35-7.77,22.21,22.21,0,0,1,4.36-3.19,13.36,13.36,0,0,1-5.93-3.16,8.52,8.52,0,0,1-2.4-6.21v-10a11.35,11.35,0,0,1,3.12-8.38c2.1-2.1,5.06-3.14,8.92-3.14a10.75,10.75,0,0,1,8,3.32,10.08,10.08,0,0,1,0,15,11.42,11.42,0,0,1-3.44,2.29,10.76,10.76,0,0,1-4.24.73,8.7,8.7,0,0,1-4-.63c0,1.79.93,3.41,2.81,4.86q3.06,2.05,8.36,2.06h5v6.5h-5.22c-6.23,0-9.36,2.7-9.36,8.17v15.48H976.6c5.06,0,8.28-.55,9.69-1.69,1.52-1.36,2.29-4.15,2.29-8.44V992h8.34Zm-30.33-38.3a4.22,4.22,0,0,0-1.43-3.13,4.66,4.66,0,0,0-3.4-1.41,5,5,0,0,0-3.5,1.45,4.62,4.62,0,0,0-1.39,3.09,4.71,4.71,0,0,0,.29,1.78,3.91,3.91,0,0,0,1.1,1.49,6.24,6.24,0,0,0,1.51.79,11.64,11.64,0,0,0,2,.41,4.85,4.85,0,0,0,3.4-1.3A4.06,4.06,0,0,0,966.59,1002.31Z"/></g></g></svg>