<svg xmlns="http://www.w3.org/2000/svg" viewBox="0 0 1935.25 1945.4"><defs><style>.cls-1{fill:#fff;}</style></defs><title>ITKMITL</title><g id="Layer_2" data-name="Layer 2"><g id="Layer_1-2" data-name="Layer 1"><path class="cls-1" d="M375.6,1618.6h0c-71.5,0-130-58.5-130-130v-830c0-71.5,58.5-130,130-130h0c71.5,0,130,58.5,130,130v830C505.6,1560.1,447.1,1618.6,375.6,1618.6Z"/><path class="cls-1" d="M375.6,428.6h0c-71.5,0-130-58.5-130-130h0c0-71.5,58.5-130,130-130h0c71.5,0,130,58.5,130,130h0C505.6,370.1,447.1,428.6,375.6,428.6Z"/><path class="cls-1" d="M1484.6,528.6h-830c-71.5,0-130,58.5-130,130h0c0,71.5,58.5,130,130,130h285v700c0,71.5,58.5,130,130,130h0c71.5,0,130-58.5,130-130v-700h285c71.5,0,130-58.5,130-130h0C1614.6,587.1,1556.1,528.6,1484.6,528.6Z"/><circle class="cls-1" cx="127.6" cy="60.6" r="60.6"/><circle class="cls-1" cx="68" cy="481.6" r="68"/><circle class="cls-1" cx="629.6" cy="222.6" r="62"/><rect class="cls-1" x="216.21" y="50.6" width="30" height="228" transform="translate(-48.67 211.7) rotate(-45)"/><rect class="cls-1" x="94.18" y="379.6" width="228" height="30" transform="translate(-182.51 179.17) rotate(-33.31)"/><rect class="cls-1" x="410.61" y="243.1" width="228" height="30" transform="translate(-57.76 206.41) rotate(-21.12)"/><path class="cls-1" d="M731.6,420.6a1028.76,1028.76,0,0,1,262-114c28.8-8,536.6-142.3,724,108,41.2,55.1,53.2,110.4,58,134,75.1,366.9-449.2,750.5-496,784a1504.94,1504.94,0,0,0,290-198c120.8-105.1,294.6-256.4,346-496,16.3-75.9,47.4-220.9-34-334-72.1-100.2-194.5-122.7-272.1-135.7C1235.4,105.8,868.8,328.4,731.6,420.6Z"/><path class="cls-1" d="M828.4,1942.4a10.5,10.5,0,0,1-10.5-10.5v-139a10.5,10.5,0,0,1,21,0v139A10.5,10.5,0,0,1,828.4,1942.4Z"/><path class="cls-1" d="M1048.6,1782.4H951.4c-4.1,0-7.3,4.7-7.3,10.5s3.3,10.5,7.3,10.5h39.1v128.5a10.5,10.5,0,0,0,21,0V1803.4h37.1c4.1,0,7.3-4.7,7.3-10.5S1052.7,1782.4,1048.6,1782.4Z"/><path class="cls-1" d="M1249.8,1921.4H1183V1792.9a10.5,10.5,0,0,0-21,0v139h0c0,5.8,2.8,10.5,6.2,10.5h81.6c3.4,0,6.2-4.7,6.2-10.5S1253.2,1921.4,1249.8,1921.4Z"/><path class="cls-1" d="M409.5,1931.2l-47.6-81.4,38.6-53.6c3-4.2,1.6-10.3-3.1-13.7s-10.9-2.8-13.9,1.4L329,1859.5v-66.6a10.5,10.5,0,0,0-21,0v139a10.5,10.5,0,0,0,21,0v-36.5l19.5-27,42.9,73.4c2.1,3.6,7.9,4.1,12.9,1.2S411.6,1934.8,409.5,1931.2Z"/><path class="cls-1" d="M694,1788.1h0s-5.7-8.1-17.5-7.3-15.9,5-19.3,14l-47.6,123-47.6-123c-3.5-9-7.5-13.3-19.3-14s-17.5,7.3-17.5,7.3h0a10.57,10.57,0,0,0-3.5,7.8v139a10.5,10.5,0,0,0,21,0V1803l49.9,129a10.09,10.09,0,0,0,.7,1.5h0s4,11.8,16.1,11.1,14.8-6.4,17.2-12.6l49.9-129v131.9a10.5,10.5,0,0,0,21,0v-139A11,11,0,0,0,694,1788.1Z"/></g></g></svg>