<svg xmlns="http://www.w3.org/2000/svg" viewBox="0 0 36.78 54.28"><defs><style>.cls-1{fill:#fff;}</style></defs><title>SCB</title><g id="Layer_2" data-name="Layer 2"><g id="Layer_1-2" data-name="Layer 1"><path class="cls-1" d="M11.41,45.92l.27-1.69a9.65,9.65,0,0,0-3.22-.54c-1.85,0-4.15.54-4.15,3.13,0,2.32,2.66,2.73,3.27,2.89s2.5.51,2.5,1.53-1.4,1.32-2.25,1.3a7.56,7.56,0,0,1-3.34-.87l-.27,1.8a7.8,7.8,0,0,0,3.58.81c2.17,0,4.26-.92,4.26-3S10.86,48.53,9,48.08c-2.21-.52-2.64-.83-2.64-1.44s.64-1.2,2.24-1.2a10.91,10.91,0,0,1,2.86.48"/><path class="cls-1" d="M21.48,45.87l.25-1.71a8,8,0,0,0-2.86-.52c-1.65,0-5.39.34-5.39,5.37s3.79,5.27,5.27,5.27a9.25,9.25,0,0,0,3-.61L21.5,52a6.51,6.51,0,0,1-2.54.5c-1.42,0-3.25-.25-3.25-3.52s1.8-3.51,3.29-3.51a10.21,10.21,0,0,1,2.48.4"/><path class="cls-1" d="M28.67,52.41H25.76V49.6h3c.73,0,1.72.15,1.72,1.35s-.81,1.45-1.79,1.45m-2.92-6.86h2.7c.91,0,1.64.27,1.64,1.27s-.49,1.3-1.62,1.3l-2.72,0Zm4.79,3.19v-.09s1.51-.21,1.51-2.23-1.94-2.58-3.67-2.58H23.73V54.12l4.85,0c2.28,0,4-.77,4-2.91a2.37,2.37,0,0,0-2-2.45"/><path class="cls-1" d="M0,0V36.67H36.78V0ZM25.26,32.43H19.42V27.2s10.86,5.73,8-7.11c-1-4.39-6.25-10.3-9-11.66h0l-.26.13c-2.86,1.58-7.85,7.27-8.79,11.53-2.84,12.84,8,7.11,8,7.11v5.23H11.52l-7.4-3.49L8,13.63,18.39,4.25l10.36,9.38,3.91,15.31Z"/></g></g></svg>