<svg xmlns="http://www.w3.org/2000/svg" viewBox="0 0 118.06 28.42"><defs><style>.cls-1{fill:#fff;}</style></defs><title>scb</title><g id="Layer_2" data-name="Layer 2"><g id="Layer_1-2" data-name="Layer 1"><path class="cls-1" d="M62.48,20.37l.26-1.63a9.3,9.3,0,0,0-3.1-.52c-1.78,0-4,.52-4,3,0,2.23,2.56,2.62,3.14,2.77s2.41.5,2.41,1.48S59.86,26.77,59,26.75a7.38,7.38,0,0,1-3.21-.85l-.26,1.74a7.53,7.53,0,0,0,3.45.78c2.08,0,4.1-.89,4.1-2.93s-1.16-2.61-3-3c-2.13-.5-2.54-.8-2.54-1.39s.61-1.15,2.15-1.15a10.49,10.49,0,0,1,2.75.46"/><path class="cls-1" d="M72.18,20.33l.24-1.65a7.71,7.71,0,0,0-2.76-.5c-1.58,0-5.18.32-5.18,5.16s3.64,5.08,5.07,5.08a8.92,8.92,0,0,0,2.89-.59l-.24-1.6a6.4,6.4,0,0,1-2.45.47c-1.37,0-3.12-.23-3.12-3.38s1.73-3.38,3.16-3.38a9.72,9.72,0,0,1,2.39.39"/><path class="cls-1" d="M80.9,23.08V23s1.46-.2,1.46-2.15-1.87-2.48-3.54-2.48H74.35v9.9l4.66,0c2.19,0,3.82-.74,3.82-2.81a2.29,2.29,0,0,0-1.93-2.36M76.29,20h2.6c.87,0,1.58.26,1.58,1.23S80,22.5,78.9,22.5l-2.61,0Zm2.81,6.61H76.3V23.92h2.88c.7,0,1.65.14,1.65,1.3S80,26.62,79.1,26.62"/><path class="cls-1" d="M2.3,1.46H0V2.64H1.73c.5,0,.64.1.65.41s-.73.73-.74,1.52v9.56H3.38V4.8c0-.72.71-1,.74-1.86S3.46,1.46,2.3,1.46m32.83,9.22L32.92,4.2H31.46l-2.22,6.48L27.5,4.2H25.77l2.66,9.92h1.32l2.42-7,2.43,7H36L38.6,4.2H36.87Zm7-6.65a4.8,4.8,0,0,0-2.33.52l-.06,0V6.41L40,6.29a3.82,3.82,0,0,1,2.13-.66,2.08,2.08,0,0,1,1.66.64A2.62,2.62,0,0,1,44.32,8v6.09H46V7.64a3.43,3.43,0,0,0-.93-2.53A3.82,3.82,0,0,0,42.16,4M12.86,5a3.9,3.9,0,0,0-1.23-.7A4.64,4.64,0,0,0,10.07,4a4.4,4.4,0,0,0-2.87,1V4.2H5.5v9.92H7.2V7.66a1.66,1.66,0,0,1,.88-1.42A3.52,3.52,0,0,1,10,5.63a2.35,2.35,0,0,1,1.64.55,1.9,1.9,0,0,1,.6,1.5v6.44H14V7.52a3.49,3.49,0,0,0-.29-1.44A3,3,0,0,0,12.86,5m9.73,7a4.49,4.49,0,0,1-2.49.74,3.89,3.89,0,0,1-2.12-.5,1.5,1.5,0,0,1-.76-1.32,1.34,1.34,0,0,1,.19-.68,2.06,2.06,0,0,1,.5-.56,2.55,2.55,0,0,1,1.51-.52h1.17V7.49H19.2c-1.25,0-1.76-.34-1.76-.94s.42-.86,1.47-.87a4.32,4.32,0,0,1,.58.06l1,.18.15,0V4.38l-.09,0a5.08,5.08,0,0,0-1.61-.27,3.9,3.9,0,0,0-1.25.19,3.53,3.53,0,0,0-1,.5,2.15,2.15,0,0,0-.94,1.78,1.8,1.8,0,0,0,.48,1.21A2.48,2.48,0,0,0,17,8.4a3.2,3.2,0,0,0-.94.83,2.6,2.6,0,0,0-.6,1.65,3,3,0,0,0,1.18,2.39,5.3,5.3,0,0,0,3.44,1,5.28,5.28,0,0,0,4.16-1.64l-.1-.08h.13V4.2h-1.7ZM54.78.63V2.09h7.74V.63Zm25.88,11.3a4.46,4.46,0,0,1-2.49.74,3.89,3.89,0,0,1-2.12-.5,1.52,1.52,0,0,1-.76-1.32,1.34,1.34,0,0,1,.19-.68,2.06,2.06,0,0,1,.5-.56,2.55,2.55,0,0,1,1.51-.52h1.17V7.49H77.28c-1.26,0-1.77-.34-1.77-.94s.42-.86,1.47-.87a4.32,4.32,0,0,1,.58.06l1,.18.15,0V4.38l-.09,0A5.08,5.08,0,0,0,77,4.08a3.79,3.79,0,0,0-1.24.19,3.47,3.47,0,0,0-1,.5,2.3,2.3,0,0,0-.69.77,2.21,2.21,0,0,0-.24,1,1.79,1.79,0,0,0,.47,1.21,2.48,2.48,0,0,0,.85.64,3,3,0,0,0-.93.83,2.59,2.59,0,0,0-.61,1.65,3,3,0,0,0,1.18,2.39,6.23,6.23,0,0,0,7.6-.64l0-.08V4.2h-1.7ZM81.22,0A1.5,1.5,0,0,0,80,.39a1.66,1.66,0,0,0-.31,1.14v.56h1.7v-.4c0-.33.15-.46.63-.48h.81V1.09l0-1V0ZM60.83,10.66a1.7,1.7,0,0,1-.78,1.42,2.87,2.87,0,0,1-1.76.61,2.17,2.17,0,0,1-1.52-.5,1.72,1.72,0,0,1-.54-1.34V7.42A3,3,0,0,0,55,4.88a5.31,5.31,0,0,0-7.16,1.31l0,0v7.9h3.15V12.55H49.46V6.69A3.09,3.09,0,0,1,52,5.63a3,3,0,0,1,1.84.54,1.69,1.69,0,0,1,.7,1.47v3.21a3.33,3.33,0,0,0,1,2.49,3.64,3.64,0,0,0,2.64.95,4.05,4.05,0,0,0,2.66-1v.81h1.69V4.2H60.83Zm9.22-4.24,1.76-1.59L70.4,4.05,66.94,7l.26,0c2.46.41,3.61,1.43,3.62,3.12A2.23,2.23,0,0,1,70,12a3.62,3.62,0,0,1-2.24.75h-.23a4.48,4.48,0,0,1-.64-.05,7.08,7.08,0,0,1-.77-.17V4.2h-1.7v9.47l.09,0a8.53,8.53,0,0,0,3.1.57h.13a5.27,5.27,0,0,0,3.54-1.19,3.68,3.68,0,0,0,1.23-2.9,3.91,3.91,0,0,0-2.47-3.76"/><path class="cls-1" d="M62.48,20.37l.26-1.63a9.3,9.3,0,0,0-3.1-.52c-1.78,0-4,.52-4,3,0,2.23,2.56,2.62,3.14,2.77s2.41.5,2.41,1.48S59.86,26.77,59,26.75a7.38,7.38,0,0,1-3.21-.85l-.26,1.74a7.53,7.53,0,0,0,3.45.78c2.08,0,4.1-.89,4.1-2.93s-1.16-2.61-3-3c-2.13-.5-2.54-.8-2.54-1.39s.61-1.15,2.15-1.15a10.49,10.49,0,0,1,2.75.46"/><path class="cls-1" d="M72.18,20.33l.24-1.65a7.71,7.71,0,0,0-2.76-.5c-1.58,0-5.18.32-5.18,5.16s3.64,5.08,5.07,5.08a8.92,8.92,0,0,0,2.89-.59l-.24-1.6a6.4,6.4,0,0,1-2.45.47c-1.37,0-3.12-.23-3.12-3.38s1.73-3.38,3.16-3.38a9.72,9.72,0,0,1,2.39.39"/><path class="cls-1" d="M80.9,23.08V23s1.46-.2,1.46-2.15-1.87-2.48-3.54-2.48H74.35v9.9l4.66,0c2.19,0,3.82-.74,3.82-2.81a2.29,2.29,0,0,0-1.93-2.36M76.29,20h2.6c.87,0,1.58.26,1.58,1.23S80,22.5,78.9,22.5l-2.61,0Zm2.81,6.61H76.3V23.92h2.88c.7,0,1.65.14,1.65,1.3S80,26.62,79.1,26.62"/><path class="cls-1" d="M2.3,1.46H0V2.64H1.73c.5,0,.64.1.65.41s-.73.73-.74,1.52v9.56H3.38V4.8c0-.72.71-1,.74-1.86S3.46,1.46,2.3,1.46m32.83,9.22L32.92,4.2H31.46l-2.22,6.48L27.5,4.2H25.77l2.66,9.92h1.32l2.42-7,2.43,7H36L38.6,4.2H36.87Zm7-6.65a4.8,4.8,0,0,0-2.33.52l-.06,0V6.41L40,6.29a3.82,3.82,0,0,1,2.13-.66,2.08,2.08,0,0,1,1.66.64A2.62,2.62,0,0,1,44.32,8v6.09H46V7.64a3.43,3.43,0,0,0-.93-2.53A3.82,3.82,0,0,0,42.16,4M12.86,5a3.9,3.9,0,0,0-1.23-.7A4.64,4.64,0,0,0,10.07,4a4.4,4.4,0,0,0-2.87,1V4.2H5.5v9.92H7.2V7.66a1.66,1.66,0,0,1,.88-1.42A3.52,3.52,0,0,1,10,5.63a2.35,2.35,0,0,1,1.64.55,1.9,1.9,0,0,1,.6,1.5v6.44H14V7.52a3.49,3.49,0,0,0-.29-1.44A3,3,0,0,0,12.86,5m9.73,7a4.49,4.49,0,0,1-2.49.74,3.89,3.89,0,0,1-2.12-.5,1.5,1.5,0,0,1-.76-1.32,1.34,1.34,0,0,1,.19-.68,2.06,2.06,0,0,1,.5-.56,2.55,2.55,0,0,1,1.51-.52h1.17V7.49H19.2c-1.25,0-1.76-.34-1.76-.94s.42-.86,1.47-.87a4.32,4.32,0,0,1,.58.06l1,.18.15,0V4.38l-.09,0a5.08,5.08,0,0,0-1.61-.27,3.9,3.9,0,0,0-1.25.19,3.53,3.53,0,0,0-1,.5,2.15,2.15,0,0,0-.94,1.78,1.8,1.8,0,0,0,.48,1.21A2.48,2.48,0,0,0,17,8.4a3.2,3.2,0,0,0-.94.83,2.6,2.6,0,0,0-.6,1.65,3,3,0,0,0,1.18,2.39,5.3,5.3,0,0,0,3.44,1,5.28,5.28,0,0,0,4.16-1.64l-.1-.08h.13V4.2h-1.7ZM54.78.63V2.09h7.74V.63Zm25.88,11.3a4.46,4.46,0,0,1-2.49.74,3.89,3.89,0,0,1-2.12-.5,1.52,1.52,0,0,1-.76-1.32,1.34,1.34,0,0,1,.19-.68,2.06,2.06,0,0,1,.5-.56,2.55,2.55,0,0,1,1.51-.52h1.17V7.49H77.28c-1.26,0-1.77-.34-1.77-.94s.42-.86,1.47-.87a4.32,4.32,0,0,1,.58.06l1,.18.15,0V4.38l-.09,0A5.08,5.08,0,0,0,77,4.08a3.79,3.79,0,0,0-1.24.19,3.47,3.47,0,0,0-1,.5,2.3,2.3,0,0,0-.69.77,2.21,2.21,0,0,0-.24,1,1.79,1.79,0,0,0,.47,1.21,2.48,2.48,0,0,0,.85.64,3,3,0,0,0-.93.83,2.59,2.59,0,0,0-.61,1.65,3,3,0,0,0,1.18,2.39,6.23,6.23,0,0,0,7.6-.64l0-.08V4.2h-1.7ZM81.22,0A1.5,1.5,0,0,0,80,.39a1.66,1.66,0,0,0-.31,1.14v.56h1.7v-.4c0-.33.15-.46.63-.48h.81V1.09l0-1V0ZM60.83,10.66a1.7,1.7,0,0,1-.78,1.42,2.87,2.87,0,0,1-1.76.61,2.17,2.17,0,0,1-1.52-.5,1.72,1.72,0,0,1-.54-1.34V7.42A3,3,0,0,0,55,4.88a5.31,5.31,0,0,0-7.16,1.31l0,0v7.9h3.15V12.55H49.46V6.69A3.09,3.09,0,0,1,52,5.63a3,3,0,0,1,1.84.54,1.69,1.69,0,0,1,.7,1.47v3.21a3.33,3.33,0,0,0,1,2.49,3.64,3.64,0,0,0,2.64.95,4.05,4.05,0,0,0,2.66-1v.81h1.69V4.2H60.83Zm9.22-4.24,1.76-1.59L70.4,4.05,66.94,7l.26,0c2.46.41,3.61,1.43,3.62,3.12A2.23,2.23,0,0,1,70,12a3.62,3.62,0,0,1-2.24.75h-.23a4.48,4.48,0,0,1-.64-.05,7.08,7.08,0,0,1-.77-.17V4.2h-1.7v9.47l.09,0a8.53,8.53,0,0,0,3.1.57h.13a5.27,5.27,0,0,0,3.54-1.19,3.68,3.68,0,0,0,1.23-2.9,3.91,3.91,0,0,0-2.47-3.76"/><path class="cls-1" d="M118.06,24.78,114.13,9.42,103.74,0,93.35,9.42,89.42,24.78l7.43,3.49h5.86V23s-10.89,5.76-8-7.13c1-4.27,6-10,8.82-11.55l.26-.14h0c2.81,1.36,8.1,7.29,9.08,11.69,2.84,12.89-8,7.13-8,7.13v5.25h5.86Z"/></g></g></svg>