<svg xmlns="http://www.w3.org/2000/svg" viewBox="0 0 469.08 502.61"><defs><style>.cls-1{fill:#fff;}</style></defs><title>2-2-Thai Media Fund</title><g id="Layer_2" data-name="Layer 2"><g id="Layer_1-2" data-name="Layer 1"><path class="cls-1" d="M288.93,239.89c1.9-3.15,3.62-6.19,5.18-9-.52-1.31-1-2.57-1.48-3.74-.18-.43-.34-.88-.51-1.3-1.57,2.66-3.36,5.54-5.37,8.61l.22.55C287.57,236.5,288.23,238.15,288.93,239.89Z"/><path class="cls-1" d="M305.3,255.54c-2.18-3.91-4.09-7.84-5.77-11.59-1.45,3-3.08,6.07-4.85,9.27,1.82,3.83,3.88,7.81,6.25,11.77C302.52,261.79,304,258.62,305.3,255.54Z"/><path class="cls-1" d="M316.92,285.36q2-4.46,3.68-8.88a84.56,84.56,0,0,1-8-9.41q-1.9,4.51-4.09,9.08A84.08,84.08,0,0,0,316.92,285.36Z"/><path class="cls-1" d="M313.34,333.62A91.86,91.86,0,0,1,301.93,330c-1.67,1.69-3.37,3.3-5.11,4.81a106.61,106.61,0,0,0,12,3.68C310.33,336.93,311.85,335.33,313.34,333.62Z"/><path class="cls-1" d="M328.74,310.77a70.42,70.42,0,0,1-9.78-4.32q-1.83,3.33-3.88,6.56a79.9,79.9,0,0,0,10.25,3.91C326.52,314.91,327.66,312.85,328.74,310.77Z"/><path class="cls-1" d="M321.61,322.83A88.93,88.93,0,0,1,311,319.06c-1.42,2-2.9,3.92-4.46,5.77a88.94,88.94,0,0,0,11,3.64C319,326.64,320.32,324.75,321.61,322.83Z"/><path class="cls-1" d="M274.63,228.5c-.95-2.3-1.86-4.5-2.73-6.63q-3,3.81-6.42,7.88c.93,2.08,1.88,4.23,2.87,6.46C270.56,233.56,272.65,231,274.63,228.5Z"/><path class="cls-1" d="M265.76,271.63q2.76-3,5.36-6.21c-1.11-2.41-2.06-4.6-2.86-6.48q-2.92,3.4-6.14,6.88c.81,1.86,1.77,4.08,3,6.55C265.3,272.13,265.54,271.89,265.76,271.63Z"/><path class="cls-1" d="M286.72,212.54c-.94-2.34-1.82-4.6-2.68-6.78-1.73,2.42-3.65,5.06-5.77,7.88.87,2.13,1.77,4.34,2.72,6.64C283.08,217.52,285,214.93,286.72,212.54Z"/><path class="cls-1" d="M283.06,249.19c-1-2.24-1.76-4.22-2.43-5.87q-2.72,3.74-5.82,7.68c.76,1.8,1.65,3.89,2.68,6.2C279.45,254.52,281.31,251.84,283.06,249.19Z"/><path class="cls-1" d="M313.38,292.82a87.7,87.7,0,0,1-8.85-8.69c-1.44,2.68-2.94,5.35-4.51,7.93a78.94,78.94,0,0,0,9.32,8.23C310.76,297.84,312.11,295.34,313.38,292.82Z"/><path class="cls-1" d="M274.51,302.31A99.48,99.48,0,0,1,266,291.37c-1.95,1.86-3.93,3.63-5.92,5.32a102.68,102.68,0,0,0,8.75,10.68Q271.69,305,274.51,302.31Z"/><path class="cls-1" d="M262.61,312.21a107.5,107.5,0,0,1-8.7-10.56c-2.08,1.58-4.18,3.08-6.24,4.49a116.8,116.8,0,0,0,8.88,10.21C258.57,315.06,260.6,313.68,262.61,312.21Z"/><path class="cls-1" d="M261.73,244l-2.93-6.49q-3,3.48-6.35,7.07,1.52,3.07,3.07,6.41Q258.73,247.45,261.73,244Z"/><path class="cls-1" d="M334.85,297.79a66.55,66.55,0,0,1-9.12-5.27c-1,2.33-2.06,4.67-3.19,7a68.45,68.45,0,0,0,9.35,4.91C332.94,302.22,333.91,300,334.85,297.79Z"/><path class="cls-1" d="M234.57,314.09c2.67,3,5.72,6.25,9.2,9.49,2.07-1,4.17-2.13,6.29-3.32a117.2,117.2,0,0,1-9-9.88C238.86,311.72,236.69,313,234.57,314.09Z"/><path class="cls-1" d="M304.91,307.36a77.21,77.21,0,0,1-9.88-7.68c-1.56,2.24-3.19,4.38-4.87,6.44a83.71,83.71,0,0,0,10.26,7.45C302,311.56,303.48,309.49,304.91,307.36Z"/><path class="cls-1" d="M272.12,285.17a97.29,97.29,0,0,0,8.25,11.16l.37-.38c1.76-1.95,3.44-4,5.07-6.12a101.18,101.18,0,0,1-7.89-11.37C276.07,280.76,274.14,283,272.12,285.17Z"/><path class="cls-1" d="M284.73,329.26a85.34,85.34,0,0,1-11.28-7.32q-3,2.18-6,4.05A94.35,94.35,0,0,0,279,333.43C280.89,332.14,282.83,330.75,284.73,329.26Z"/><path class="cls-1" d="M296.36,273.67a127.34,127.34,0,0,1-7-11.43c-1.69,2.71-3.46,5.4-5.34,8.08a112.62,112.62,0,0,0,7.39,11.53C293.16,279.17,294.81,276.42,296.36,273.67Z"/><path class="cls-1" d="M295.45,319.41a84.64,84.64,0,0,1-10.66-7.33c-1.73,1.79-3.52,3.47-5.33,5.05a86.46,86.46,0,0,0,10.94,7.33C292.12,322.87,293.81,321.19,295.45,319.41Z"/><path class="cls-1" d="M285.6,343.1a119,119,0,0,0,12.75,4.26q2.7-2,5.31-4.22a106.51,106.51,0,0,1-12.35-3.94C289.44,340.59,287.51,341.89,285.6,343.1Z"/><path class="cls-1" d="M316.09,346.18c2.15.34,4.35.63,6.62.86q2.24-2.32,4.36-4.92c-2.13-.22-4.22-.48-6.25-.78C319.29,343,317.71,344.66,316.09,346.18Z"/><path class="cls-1" d="M305.58,354.84c2.24.44,4.53.85,6.9,1.2,1.8-1.32,3.55-2.72,5.27-4.25-2.31-.32-4.57-.68-6.75-1.09Q308.31,352.91,305.58,354.84Z"/><path class="cls-1" d="M272.6,349.93a136.23,136.23,0,0,0,13.31,5.17q3.36-1.74,6.74-3.85a133.74,133.74,0,0,1-13.15-4.63C277.2,347.84,274.89,348.94,272.6,349.93Z"/><path class="cls-1" d="M325,336.47q2.86.4,5.88.65c1.19-1.67,2.34-3.38,3.43-5.1q-2.82-.27-5.52-.67C327.55,333.1,326.3,334.82,325,336.47Z"/><path class="cls-1" d="M261.11,329.67c-2.12,1.11-4.23,2.12-6.31,3.06a114.1,114.1,0,0,0,11.79,7.6c2.08-1,4.15-2,6.23-3.2A108.22,108.22,0,0,1,261.11,329.67Z"/><path class="cls-1" d="M338.46,314.3c1.62.35,3.29.66,5,.91.86-1.87,1.68-3.72,2.48-5.58-1.67-.34-3.29-.72-4.87-1.16C340.25,310.43,339.38,312.36,338.46,314.3Z"/><path class="cls-1" d="M252.45,284.7c2.08-1.82,4.17-3.74,6.22-5.75-.94-1.84-1.76-3.47-2.47-4.91-.23-.48-.46-.94-.69-1.4-2.14,2.08-4.27,4.06-6.42,6l.81,1.5C250.65,281.48,251.5,283,252.45,284.7Z"/><path class="cls-1" d="M332.27,325.92q2.57.43,5.25.76,1.64-2.88,3.13-5.77c-1.74-.22-3.44-.48-5.1-.79C334.51,322.08,333.43,324,332.27,325.92Z"/><path class="cls-1" d="M226.23,304c2.2-1.33,4.48-2.77,6.78-4.32-1.08-1.51-2-2.87-2.95-4.08-.31-.43-.62-.87-1-1.32-2.4,1.64-4.74,3.17-7,4.61.1.11.18.23.28.33C223.52,300.53,224.78,302.15,226.23,304Z"/><path class="cls-1" d="M235.06,271.45l-3.51-5.95c-2.27,2.12-4.53,4.16-6.74,6.12,1.21,1.95,2.39,3.86,3.53,5.67C230.56,275.43,232.79,273.49,235.06,271.45Z"/><path class="cls-1" d="M239.84,338.14c3.75,2.61,7.82,5.21,12.24,7.71,2.45-.74,5-1.59,7.54-2.58a129.93,129.93,0,0,1-11.82-7.71C245.08,336.53,242.43,337.4,239.84,338.14Z"/><path class="cls-1" d="M239.74,294.94c2.15-1.58,4.32-3.23,6.5-5-.78-1.23-1.49-2.38-2.17-3.43-.43-.66-.93-1.46-1.5-2.36-2.23,1.83-4.45,3.54-6.63,5.18.2.29.39.57.58.83C237.5,291.57,238.55,293.18,239.74,294.94Z"/><path class="cls-1" d="M221.27,283.05l-3.66-5.24c-2.5,2.11-4.93,4.09-7.26,6,1.22,1.63,2.44,3.24,3.65,4.8Q217.52,286,221.27,283.05Z"/><path class="cls-1" d="M227.5,317.68c-2.88,1.37-5.64,2.57-8.23,3.63,2.85,2.69,6.06,5.59,9.68,8.57,2.55-.92,5.2-1.95,8-3.13C233.36,323.6,230.25,320.53,227.5,317.68Z"/><path class="cls-1" d="M248.47,258.53c-1.11-2.12-2.19-4.22-3.27-6.27q-3.4,3.47-6.77,6.74,1.69,3.11,3.4,6.15C244,263,246.26,260.83,248.47,258.53Z"/><path class="cls-1" d="M214.43,303.42q-4.53,2.52-8.44,4.51l2.63,2.71,1.84,1.89c2.58-1.25,5.39-2.66,8.36-4.3-.4-.42-.77-.84-1.14-1.24C216.63,305.85,215.54,304.66,214.43,303.42Z"/><path class="cls-1" d="M202.63,289.84c-2.95,1.92-6,3.72-8.43,5.45,1.14,1.21,2.66,3,3.8,4.2,2.48-1.56,5.26-3.36,8.28-5.42C205.06,292.65,203.83,291.25,202.63,289.84Z"/><path class="cls-1" d="M348.08,105.17c-21.49,11.51-38.46,36.59-53,65.64-1.59,3.19-4.41,9.05-8.48,16.55,0,0-64.81,84.38-110.32,104.42a50.12,50.12,0,0,1-20,4.7,134.71,134.71,0,0,1-33.23.89C77.71,293,54.36,278.8,54.36,278.8s3.47,7.54,17.54,17.89c13.67,10.05,33.2,12.45,33.2,12.45s-13.63,3.57-32.32-4.32c-16-6.74-26.58-16-36.75-24.72C16.7,263.45,0,268,0,268s11.72,3.91,34.31,36.51c33.07,47.72,79.47,87.84,138,100.07,43.43,9.08,97.52,1.61,133.77-23.79,63.55-44.54,64.6-105.82,67-174.14C376.24,117.2,406,101.73,406,101.73S378.13,89.09,348.08,105.17ZM325.73,292.52a66.55,66.55,0,0,0,9.12,5.27c-.94,2.21-1.91,4.43-3,6.63a68.45,68.45,0,0,1-9.35-4.91C323.67,297.19,324.73,294.85,325.73,292.52Zm-78.06,13.62c2.06-1.41,4.16-2.91,6.24-4.49a107.5,107.5,0,0,0,8.7,10.56c-2,1.47-4,2.85-6.06,4.14A116.8,116.8,0,0,1,247.67,306.14Zm2.39,14.12c-2.12,1.19-4.22,2.29-6.29,3.32-3.48-3.24-6.53-6.46-9.2-9.49,2.12-1.14,4.29-2.37,6.48-3.71A117.2,117.2,0,0,0,250.06,320.26Zm10-23.57c2-1.69,4-3.46,5.92-5.32a99.48,99.48,0,0,0,8.52,10.94q-2.82,2.65-5.69,5.06A102.68,102.68,0,0,1,260.07,296.69Zm25.74-6.86c-1.63,2.13-3.31,4.17-5.07,6.12l-.37.38a97.29,97.29,0,0,1-8.25-11.16c2-2.16,3.95-4.41,5.8-6.71A101.18,101.18,0,0,0,285.81,289.83ZM284,270.32c1.88-2.68,3.65-5.37,5.34-8.08a127.34,127.34,0,0,0,7,11.43c-1.55,2.75-3.2,5.5-4.93,8.18A112.62,112.62,0,0,1,284,270.32Zm-10.59,51.62a85.34,85.34,0,0,0,11.28,7.32c-1.9,1.49-3.84,2.88-5.78,4.17A94.35,94.35,0,0,1,267.49,326Q270.49,324.12,273.45,321.94Zm6-4.81c1.81-1.58,3.6-3.26,5.33-5.05a84.64,84.64,0,0,0,10.66,7.33c-1.64,1.78-3.33,3.46-5.05,5A86.46,86.46,0,0,1,279.46,317.13Zm10.7-11c1.68-2.06,3.31-4.2,4.87-6.44a77.21,77.21,0,0,0,9.88,7.68c-1.43,2.13-2.92,4.2-4.49,6.21A83.71,83.71,0,0,1,290.16,306.12ZM300,292.06c1.57-2.58,3.07-5.25,4.51-7.93a87.7,87.7,0,0,0,8.85,8.69c-1.27,2.52-2.62,5-4,7.47A78.94,78.94,0,0,1,300,292.06ZM301.93,330a91.86,91.86,0,0,0,11.41,3.65c-1.49,1.71-3,3.31-4.56,4.84a106.61,106.61,0,0,1-12-3.68C298.56,333.27,300.26,331.66,301.93,330Zm4.63-5.14c1.56-1.85,3-3.78,4.46-5.77a88.93,88.93,0,0,0,10.59,3.77c-1.29,1.92-2.63,3.81-4,5.64A88.94,88.94,0,0,1,306.56,324.83ZM315.08,313q2.06-3.22,3.88-6.56a70.42,70.42,0,0,0,9.78,4.32c-1.08,2.08-2.22,4.14-3.41,6.15A79.9,79.9,0,0,1,315.08,313Zm-2.44-45.94a84.56,84.56,0,0,0,8,9.41q-1.71,4.42-3.68,8.88a84.08,84.08,0,0,1-8.37-9.21Q310.73,271.58,312.64,267.07ZM299.53,244c1.68,3.75,3.59,7.68,5.77,11.59-1.33,3.08-2.78,6.25-4.37,9.45-2.37-4-4.43-7.94-6.25-11.77C296.45,250,298.08,246.92,299.53,244Zm-7.41-18.12c.17.42.33.87.51,1.3.47,1.17,1,2.43,1.48,3.74-1.56,2.83-3.28,5.87-5.18,9-.7-1.74-1.36-3.39-2-4.9l-.22-.55C288.76,231.37,290.55,228.49,292.12,225.83ZM284,205.76c.86,2.18,1.74,4.44,2.68,6.78-1.74,2.39-3.64,5-5.73,7.74-.95-2.3-1.85-4.51-2.72-6.64C280.39,210.82,282.31,208.18,284,205.76Zm-3.41,37.56c.67,1.65,1.46,3.63,2.43,5.87-1.75,2.65-3.61,5.33-5.57,8-1-2.31-1.92-4.4-2.68-6.2Q277.91,247.06,280.63,243.32Zm-8.73-21.45c.87,2.13,1.78,4.33,2.73,6.63-2,2.48-4.07,5.06-6.28,7.71-1-2.23-1.94-4.38-2.87-6.46Q268.87,225.67,271.9,221.87Zm-3.64,37.07c.8,1.88,1.75,4.07,2.86,6.48q-2.6,3.16-5.36,6.21c-.22.26-.46.5-.68.74-1.19-2.47-2.15-4.69-3-6.55Q265.34,262.36,268.26,258.94Zm-9.46-21.42,2.93,6.49q-3,3.44-6.21,7-1.56-3.33-3.07-6.41Q255.75,241,258.8,237.52Zm-3.29,35.12c.23.46.46.92.69,1.4.71,1.44,1.53,3.07,2.47,4.91-2.05,2-4.14,3.93-6.22,5.75-.95-1.67-1.8-3.22-2.55-4.6l-.81-1.5C251.24,276.7,253.37,274.72,255.51,272.64ZM245.2,252.26c1.08,2.05,2.16,4.15,3.27,6.27-2.21,2.3-4.43,4.49-6.64,6.62q-1.71-3-3.4-6.15Q241.79,255.73,245.2,252.26Zm-2.63,31.91c.57.9,1.07,1.7,1.5,2.36.68,1.05,1.39,2.2,2.17,3.43-2.18,1.75-4.35,3.4-6.5,5-1.19-1.76-2.24-3.37-3.22-4.76-.19-.26-.38-.54-.58-.83C238.12,287.71,240.34,286,242.57,284.17Zm-11-18.67,3.51,5.95c-2.27,2-4.5,4-6.72,5.84-1.14-1.81-2.32-3.72-3.53-5.67C227,269.66,229.28,267.62,231.55,265.5Zm-2.45,28.74c.34.45.65.89,1,1.32.9,1.21,1.87,2.57,2.95,4.08-2.3,1.55-4.58,3-6.78,4.32-1.45-1.81-2.71-3.43-3.87-4.78-.1-.1-.18-.22-.28-.33C224.36,297.41,226.7,295.88,229.1,294.24Zm-11.49-16.43,3.66,5.24q-3.75,3-7.27,5.53c-1.21-1.56-2.43-3.17-3.65-4.8C212.68,281.9,215.11,279.92,217.61,277.81ZM194.2,295.29c2.4-1.73,5.48-3.53,8.43-5.45,1.2,1.41,2.43,2.81,3.65,4.23-3,2.06-5.8,3.86-8.28,5.42C196.86,298.28,195.34,296.5,194.2,295.29Zm16.26,17.24-1.84-1.89L206,307.93q3.91-2,8.44-4.51c1.11,1.24,2.2,2.43,3.25,3.57.37.4.74.82,1.14,1.24C215.85,309.87,213,311.28,210.46,312.53ZM229,329.88c-3.62-3-6.83-5.88-9.68-8.57,2.59-1.06,5.35-2.26,8.23-3.63,2.75,2.85,5.86,5.92,9.4,9.07C234.15,327.93,231.5,329,229,329.88Zm23.13,16c-4.42-2.5-8.49-5.1-12.24-7.71,2.59-.74,5.24-1.61,8-2.58a129.93,129.93,0,0,0,11.82,7.71C257.06,344.26,254.53,345.11,252.08,345.85Zm2.72-13.12c2.08-.94,4.19-2,6.31-3.06a108.22,108.22,0,0,0,11.71,7.46c-2.08,1.17-4.15,2.23-6.23,3.2A114.1,114.1,0,0,1,254.8,332.73Zm31.11,22.37a136.23,136.23,0,0,1-13.31-5.17c2.29-1,4.6-2.09,6.9-3.31a133.74,133.74,0,0,0,13.15,4.63Q289.27,353.37,285.91,355.1Zm12.44-7.74a119,119,0,0,1-12.75-4.26c1.91-1.21,3.84-2.51,5.71-3.9a106.51,106.51,0,0,0,12.35,3.94Q301.05,345.39,298.35,347.36ZM312.48,356c-2.37-.35-4.66-.76-6.9-1.2q2.73-1.93,5.42-4.14c2.18.41,4.44.77,6.75,1.09C316,353.32,314.28,354.72,312.48,356Zm10.23-9c-2.27-.23-4.47-.52-6.62-.86,1.62-1.52,3.2-3.14,4.73-4.84,2,.3,4.12.56,6.25.78Q324.94,344.72,322.71,347Zm8.14-9.92q-3-.24-5.88-.65c1.33-1.65,2.58-3.37,3.79-5.12q2.7.4,5.52.67C333.19,333.74,332,335.45,330.85,337.12Zm6.67-10.44q-2.68-.33-5.25-.76c1.16-1.9,2.24-3.84,3.28-5.8,1.66.31,3.36.57,5.1.79Q339.15,323.8,337.52,326.68Zm5.93-11.47c-1.7-.25-3.37-.56-5-.91.92-1.94,1.79-3.87,2.6-5.83,1.58.44,3.2.82,4.87,1.16C345.13,311.49,344.31,313.34,343.45,315.21Z"/><path class="cls-1" d="M156.29,296.48a50.12,50.12,0,0,0,20-4.7A130.25,130.25,0,0,1,156.29,296.48Z"/><path class="cls-1" d="M156.29,296.48a50.12,50.12,0,0,0,20-4.7A130.25,130.25,0,0,1,156.29,296.48Z"/><path class="cls-1" d="M255.12,162.41q-1.49-3-3-6c-2.32,2.72-4.73,5.55-7.24,8.45,1.1,2,2.16,4,3.21,6C250.51,168,252.87,165.13,255.12,162.41Z"/><path class="cls-1" d="M240.88,179.23c-1.09-2-2.22-3.94-3.36-5.9,2.5-2.87,4.95-5.69,7.32-8.45q-1.59-2.9-3.24-5.82c-2.43,2.77-4.93,5.61-7.48,8.48q1.74,2.9,3.4,5.78c-2.43,2.77-4.9,5.59-7.42,8.42q1.78,2.92,3.51,5.82Q237.33,183.35,240.88,179.23Z"/><path class="cls-1" d="M226.21,195.84c-1.19-1.9-2.4-3.79-3.63-5.69,2.53-2.81,5-5.63,7.52-8.41q-1.74-2.85-3.54-5.7-3.8,4.25-7.65,8.51c1.24,1.87,2.47,3.73,3.67,5.59-2.53,2.8-5.08,5.6-7.64,8.37l3.74,5.54C221.22,201.33,223.73,198.58,226.21,195.84Z"/><path class="cls-1" d="M202.92,238.41q-1.89-2.47-3.82-5c-2.74,2.7-5.45,5.32-8.08,7.86,1.3,1.59,2.6,3.18,3.87,4.76q-4.23,3.91-8.25,7.51,1.92,2.24,3.78,4.45,4.05-3.47,8.33-7.22c-1.28-1.61-2.57-3.24-3.9-4.86C197.49,243.51,200.19,241,202.92,238.41Z"/><path class="cls-1" d="M182.83,281.37c1.2,1.26,2.41,2.51,3.62,3.77,2.58-1.66,5.48-3.56,8.62-5.75-1.28-1.46-2.58-2.91-3.85-4.37C188.15,277.42,185.32,279.53,182.83,281.37Z"/><path class="cls-1" d="M252.08,156.44c2.51-2.95,4.91-5.78,7.16-8.46-.95-1.94-1.91-3.87-2.9-5.81-2.3,2.66-4.76,5.49-7.33,8.43C250.05,152.55,251.08,154.5,252.08,156.44Z"/><path class="cls-1" d="M173,272.25s5.72-4.53,8.83-7.08l-3.8-4.24q4.06-3.53,8.47-7.45l-3.75-4.34q-4.38,4.13-8.41,7.84,1.9,2.07,3.76,4.12c-3.08,2.69-6,5.18-8.7,7.47,1.2,1.25,2.38,2.48,3.55,3.72Z"/><path class="cls-1" d="M195.22,228.49c-1.26-1.61-2.56-3.23-3.86-4.85,2.61-2.76,5.27-5.56,7.95-8.41,1.31,1.72,2.59,3.42,3.86,5.12q3.89-4,7.82-8.14-1.87-2.67-3.82-5.35c1.25-1.34,2.51-2.67,3.75-4l4-4.33c-1.24-1.82-2.5-3.63-3.78-5.45L207.59,197l-4.26,4.65q1.95,2.64,3.84,5.25c-2.63,2.82-5.26,5.61-7.86,8.37q-1.91-2.49-3.87-5l-7.94,8.69c1.31,1.57,2.59,3.15,3.85,4.72l-8,8.44c-1.25-1.47-2.51-2.94-3.8-4.41l-8,8.8c1.26,1.36,2.5,2.73,3.72,4.09L167,249.07q1.86,2,3.67,3.9c2.64-2.58,5.42-5.32,8.31-8.17-1.23-1.41-2.5-2.82-3.77-4.25,2.62-2.72,5.33-5.56,8.12-8.47,1.3,1.52,2.59,3,3.84,4.55Q191.11,232.67,195.22,228.49Z"/><path class="cls-1" d="M226.21,195.84c-1.19-1.9-2.4-3.79-3.63-5.69,2.53-2.81,5-5.63,7.52-8.41q-1.74-2.85-3.54-5.7-3.8,4.25-7.65,8.51c1.24,1.87,2.47,3.73,3.67,5.59-2.53,2.8-5.08,5.6-7.64,8.37l3.74,5.54C221.22,201.33,223.73,198.58,226.21,195.84Z"/><path class="cls-1" d="M195.22,228.49c-1.26-1.61-2.56-3.23-3.86-4.85,2.61-2.76,5.27-5.56,7.95-8.41,1.31,1.72,2.59,3.42,3.86,5.12q3.89-4,7.82-8.14-1.87-2.67-3.82-5.35c1.25-1.34,2.51-2.67,3.75-4l4-4.33c-1.24-1.82-2.5-3.63-3.78-5.45L207.59,197l-4.26,4.65q1.95,2.64,3.84,5.25c-2.63,2.82-5.26,5.61-7.86,8.37q-1.91-2.49-3.87-5l-7.94,8.69c1.31,1.57,2.59,3.15,3.85,4.72l-8,8.44c-1.25-1.47-2.51-2.94-3.8-4.41l-8,8.8c1.26,1.36,2.5,2.73,3.72,4.09L167,249.07q1.86,2,3.67,3.9c2.64-2.58,5.42-5.32,8.31-8.17-1.23-1.41-2.5-2.82-3.77-4.25,2.62-2.72,5.33-5.56,8.12-8.47,1.3,1.52,2.59,3,3.84,4.55Q191.11,232.67,195.22,228.49Z"/><path class="cls-1" d="M182.83,281.37c1.2,1.26,2.41,2.51,3.62,3.77,2.58-1.66,5.48-3.56,8.62-5.75-1.28-1.46-2.58-2.91-3.85-4.37C188.15,277.42,185.32,279.53,182.83,281.37Z"/><path class="cls-1" d="M202.92,238.41q-1.89-2.47-3.82-5c-2.74,2.7-5.45,5.32-8.08,7.86,1.3,1.59,2.6,3.18,3.87,4.76q-4.23,3.91-8.25,7.51,1.92,2.24,3.78,4.45,4.05-3.47,8.33-7.22c-1.28-1.61-2.57-3.24-3.9-4.86C197.49,243.51,200.19,241,202.92,238.41Z"/><path class="cls-1" d="M252.08,156.44c2.51-2.95,4.91-5.78,7.16-8.46-.95-1.94-1.91-3.87-2.9-5.81-2.3,2.66-4.76,5.49-7.33,8.43C250.05,152.55,251.08,154.5,252.08,156.44Z"/><path class="cls-1" d="M255.12,162.41q-1.49-3-3-6c-2.32,2.72-4.73,5.55-7.24,8.45,1.1,2,2.16,4,3.21,6C250.51,168,252.87,165.13,255.12,162.41Z"/><path class="cls-1" d="M173,272.25s5.72-4.53,8.83-7.08l-3.8-4.24q4.06-3.53,8.47-7.45l-3.75-4.34q-4.38,4.13-8.41,7.84,1.9,2.07,3.76,4.12c-3.08,2.69-6,5.18-8.7,7.47,1.2,1.25,2.38,2.48,3.55,3.72Z"/><path class="cls-1" d="M240.88,179.23c-1.09-2-2.22-3.94-3.36-5.9,2.5-2.87,4.95-5.69,7.32-8.45q-1.59-2.9-3.24-5.82c-2.43,2.77-4.93,5.61-7.48,8.48q1.74,2.9,3.4,5.78c-2.43,2.77-4.9,5.59-7.42,8.42q1.78,2.92,3.51,5.82Q237.33,183.35,240.88,179.23Z"/><path class="cls-1" d="M256.48,211.76c1,2.15,2,4.39,3.06,6.7,2.28-2.79,4.45-5.5,6.49-8.1-1-2.38-2-4.67-2.9-6.89Q260,207.46,256.48,211.76Z"/><path class="cls-1" d="M199.25,268.63c1.28,1.67,2.59,3.35,3.86,5q3.66-2.73,7.56-5.84c-1.27-1.77-2.56-3.59-3.87-5.43C204.2,264.55,201.67,266.65,199.25,268.63Z"/><path class="cls-1" d="M269.71,194.83c1,2.21,1.9,4.52,2.91,6.91,2.17-2.91,4.13-5.62,5.93-8.13-1-2.42-1.95-4.78-2.86-7C273.91,189.12,271.92,191.88,269.71,194.83Z"/><path class="cls-1" d="M243,227.35c1.08,2.13,2.15,4.35,3.26,6.65,2.23-2.48,4.37-4.94,6.45-7.35l-3.12-6.72C247.46,222.35,245.26,224.84,243,227.35Z"/><path class="cls-1" d="M214.28,255.79c1.28,2,2.53,4,3.74,5.89,2.29-2,4.63-4,7-6.15l-3.72-6.17C218.92,251.59,216.57,253.73,214.28,255.79Z"/><path class="cls-1" d="M228.42,242.51c1.21,2.15,2.41,4.27,3.61,6.38,2.29-2.24,4.59-4.55,6.9-7-1.19-2.21-2.34-4.4-3.48-6.52Q231.93,239.06,228.42,242.51Z"/><path class="cls-1" d="M255.12,162.41q-1.49-3-3-6c-2.32,2.72-4.73,5.55-7.24,8.45,1.1,2,2.16,4,3.21,6C250.51,168,252.87,165.13,255.12,162.41Z"/><path class="cls-1" d="M199.25,268.63c1.28,1.67,2.59,3.35,3.86,5q3.66-2.73,7.56-5.84c-1.27-1.77-2.56-3.59-3.87-5.43C204.2,264.55,201.67,266.65,199.25,268.63Z"/><path class="cls-1" d="M195.22,228.49c-1.26-1.61-2.56-3.23-3.86-4.85,2.61-2.76,5.27-5.56,7.95-8.41,1.31,1.72,2.59,3.42,3.86,5.12q3.89-4,7.82-8.14-1.87-2.67-3.82-5.35c1.25-1.34,2.51-2.67,3.75-4l4-4.33c-1.24-1.82-2.5-3.63-3.78-5.45L207.59,197l-4.26,4.65q1.95,2.64,3.84,5.25c-2.63,2.82-5.26,5.61-7.86,8.37q-1.91-2.49-3.87-5l-7.94,8.69c1.31,1.57,2.59,3.15,3.85,4.72l-8,8.44c-1.25-1.47-2.51-2.94-3.8-4.41l-8,8.8c1.26,1.36,2.5,2.73,3.72,4.09L167,249.07q1.86,2,3.67,3.9c2.64-2.58,5.42-5.32,8.31-8.17-1.23-1.41-2.5-2.82-3.77-4.25,2.62-2.72,5.33-5.56,8.12-8.47,1.3,1.52,2.59,3,3.84,4.55Q191.11,232.67,195.22,228.49Z"/><path class="cls-1" d="M182.83,281.37c1.2,1.26,2.41,2.51,3.62,3.77,2.58-1.66,5.48-3.56,8.62-5.75-1.28-1.46-2.58-2.91-3.85-4.37C188.15,277.42,185.32,279.53,182.83,281.37Z"/><path class="cls-1" d="M226.21,195.84c-1.19-1.9-2.4-3.79-3.63-5.69,2.53-2.81,5-5.63,7.52-8.41q-1.74-2.85-3.54-5.7-3.8,4.25-7.65,8.51c1.24,1.87,2.47,3.73,3.67,5.59-2.53,2.8-5.08,5.6-7.64,8.37l3.74,5.54C221.22,201.33,223.73,198.58,226.21,195.84Z"/><path class="cls-1" d="M240.88,179.23c-1.09-2-2.22-3.94-3.36-5.9,2.5-2.87,4.95-5.69,7.32-8.45q-1.59-2.9-3.24-5.82c-2.43,2.77-4.93,5.61-7.48,8.48q1.74,2.9,3.4,5.78c-2.43,2.77-4.9,5.59-7.42,8.42q1.78,2.92,3.51,5.82Q237.33,183.35,240.88,179.23Z"/><path class="cls-1" d="M258.12,168.5c-2.19,2.7-4.49,5.51-6.9,8.4q1.59,3.09,3.13,6.14-3.28,4-6.86,8.26c-1.07-2-2.17-4.05-3.28-6.08q-3.47,4.07-7.14,8.24c1.17,2,2.31,4,3.44,6q-3.48,4-7.15,8c-1.16-1.94-2.35-3.88-3.55-5.84q-3.66,4-7.43,8.06c1.24,1.91,2.47,3.8,3.67,5.68q-2.49,2.66-5.06,5.28c-.81.84-1.63,1.68-2.44,2.5q-1.86-2.73-3.77-5.49-3.9,4-7.76,7.91c1.3,1.77,2.57,3.53,3.84,5.28q-4,3.9-7.85,7.6c1.29,1.69,2.56,3.39,3.81,5.06,2.59-2.38,5.22-4.84,7.86-7.37q-1.87-2.66-3.81-5.36,3.84-3.75,7.73-7.67c1.24,1.87,2.49,3.72,3.72,5.57l2.08-2.09c1.81-1.83,3.6-3.66,5.34-5.49l-3.62-5.75q3.74-3.95,7.33-7.89,1.78,3,3.52,5.93c2.41-2.65,4.75-5.28,7-7.86q-1.68-3-3.39-6,3.62-4.11,7-8.11c1.1,2.07,2.19,4.12,3.25,6.15,2.33-2.77,4.58-5.49,6.72-8.14-1-2.07-2-4.14-3.08-6.24q3.54-4.32,6.76-8.36,1.49,3.17,2.92,6.29c2.3-3,6.35-8.66,6.35-8.66l.53-.74-.6.8c-.91-2.09-1.82-4.17-2.76-6.28-2.07,2.69-4.28,5.54-6.63,8.51Q259.64,171.59,258.12,168.5Z"/><path class="cls-1" d="M252.08,156.44c2.51-2.95,4.91-5.78,7.16-8.46-.95-1.94-1.91-3.87-2.9-5.81-2.3,2.66-4.76,5.49-7.33,8.43C250.05,152.55,251.08,154.5,252.08,156.44Z"/><path class="cls-1" d="M269.71,194.83c1,2.21,1.9,4.52,2.91,6.91,2.17-2.91,4.13-5.62,5.93-8.13-1-2.42-1.95-4.78-2.86-7C273.91,189.12,271.92,191.88,269.71,194.83Z"/><path class="cls-1" d="M228.42,242.51c1.21,2.15,2.41,4.27,3.61,6.38,2.29-2.24,4.59-4.55,6.9-7-1.19-2.21-2.34-4.4-3.48-6.52Q231.93,239.06,228.42,242.51Z"/><path class="cls-1" d="M256.48,211.76c1,2.15,2,4.39,3.06,6.7,2.28-2.79,4.45-5.5,6.49-8.1-1-2.38-2-4.67-2.9-6.89Q260,207.46,256.48,211.76Z"/><path class="cls-1" d="M214.28,255.79c1.28,2,2.53,4,3.74,5.89,2.29-2,4.63-4,7-6.15l-3.72-6.17C218.92,251.59,216.57,253.73,214.28,255.79Z"/><path class="cls-1" d="M243,227.35c1.08,2.13,2.15,4.35,3.26,6.65,2.23-2.48,4.37-4.94,6.45-7.35l-3.12-6.72C247.46,222.35,245.26,224.84,243,227.35Z"/></g><g id="Layer_2-2" data-name="Layer 2"><path id="Plant" class="cls-1" d="M446.67,103.05a41.18,41.18,0,0,0-16.18-4.56,29.89,29.89,0,0,0,6.61-2.68c16.46-9.1,8.78-26,8.78-26s-4.13,1.22-8.27,6c-6.17,7.19-4.37,11.89-6.54,17.08-3.17,7.58-19.57,9-19.57,9s14.28,1.41,25.95,11.24c7.84,6.6,5.58,13.33,15.63,24.54,8.33,9.28,14.57,10.95,14.57,10.95S477.25,118.58,446.67,103.05Z"/></g><g id="Layer_3" data-name="Layer 3"><polygon class="cls-1" points="253.93 135.4 261.43 127.08 258.4 121.42 250.93 129.74 253.93 135.4"/><path class="cls-1" d="M140.89,247.65,137,253.21c.82.7,2,1.69,2,1.69l4-5.33C142.69,249.15,140.89,247.65,140.89,247.65Z"/><path class="cls-1" d="M149.44,245.22l-6.37-6.39-4.32,5.44c.56.4,6.61,5.77,6.61,5.77Z"/><path class="cls-1" d="M151.05,234.18l-5,6.07,2.23,2.12s3.77-4.25,4.94-6C153.26,236.4,151.47,234.57,151.05,234.18Z"/><path class="cls-1" d="M160.48,231.39s-6.13-6.57-6.81-7.14l-4.82,6.05,6.7,6.95Z"/><path class="cls-1" d="M143.29,237.34l4.88-6.34s-7.75-7.47-8.44-8L135,230.24Z"/><path class="cls-1" d="M158,217.28s-7.4-7.84-8.08-8.42l-4.95,7,8.11,7.66Z"/><path class="cls-1" d="M167.89,203.67s-7.19-8.19-7.88-8.76l-5.08,6.57,8.24,8.42Z"/><path class="cls-1" d="M178.62,190.39s-7.59-8.85-8.28-9.43l-5.25,6.4,8.45,9.26Z"/><path class="cls-1" d="M189,177.85s-7.85-10.17-8.54-10.74l-5.22,6.06,9,10.49Z"/><path class="cls-1" d="M201.28,163.81s-8.26-10.66-8.91-11.2l-4.86,5.92,9.14,10.95Z"/><path class="cls-1" d="M211.88,149.33s-8.3-10.19-9-10.76l-6.54,7.6,9.4,10.27Z"/><path class="cls-1" d="M224.9,135.44s-8.51-11.4-9.2-12L209,130.74l9.65,11.18Z"/><path class="cls-1" d="M237.68,122s-8.55-12.53-9.23-13.11l-6.38,6.63L231.94,128Z"/><path class="cls-1" d="M245.2,114.88l6.57-6.54s-6.75-13.41-7.43-14l-7.67,7Z"/><polygon class="cls-1" points="160.69 220.82 156.49 226.21 159.06 228.91 163.29 223.6 160.69 220.82"/><path class="cls-1" d="M170.9,218.81s-7.05-7.68-7.61-8.25l-4.81,6.76s6.21,6.54,7.26,7.63Z"/><polygon class="cls-1" points="171.11 207.63 166.6 213.18 169.22 216.06 173.79 210.56 171.11 207.63"/><path class="cls-1" d="M176.54,212.12l4.68-5.35s-6.84-8-7.7-9.1l-4.73,6S175.8,211.45,176.54,212.12Z"/><path class="cls-1" d="M181.34,195.37l-4.13,4.87c.59.61,2.62,3.43,2.62,3.43l4.32-4.87Z"/><path class="cls-1" d="M187.07,199.64l4.47-5.14s-6.58-8-7.44-9.11l-4.81,5.43S186.32,199,187.07,199.64Z"/><path class="cls-1" d="M192.59,183.1l-4.81,5c.59.61,2.73,3.4,2.73,3.4l4.78-5.15Z"/><path class="cls-1" d="M197.91,186.39l5.57-6.28s-6.15-8.33-7-9.35l-5.6,6.87S197.2,185.76,197.91,186.39Z"/><path class="cls-1" d="M204.32,168.69l-4.07,4.82c.8,1,2.41,3.3,2.41,3.3l4-4.89Z"/><path class="cls-1" d="M214,167.73s-6.61-9.09-7.47-10.16l-4.73,5.83s6.78,9.28,7.52,9.94Z"/><path class="cls-1" d="M214.73,153.94l-5,5.22c.59.61,2.45,3.36,2.45,3.36l5.1-5.58Z"/><path class="cls-1" d="M226.51,153.11s-7.12-9.73-8-10.8l-6,6.51s7.42,10,8.16,10.69Z"/><path class="cls-1" d="M227.45,140,222,145.43c.58.61,2.8,3.59,2.8,3.59l5.32-5.32Z"/><path class="cls-1" d="M238.47,140.22s-6.4-10.53-7.26-11.6l-5.81,5.92s7.5,10.78,8.25,11.45Z"/><path class="cls-1" d="M240.9,126.51l-5.81,5.66a40,40,0,0,1,2.49,4.16l6-5.7Z"/><path class="cls-1" d="M250,128.19s-5.33-11-6.19-12l-5.29,5.25s6.76,10.65,7.5,11.31Z"/><path class="cls-1" d="M249.77,124.78l7-6.66-2.29-4.26-7.18,6.55C248,121.82,249.77,124.78,249.77,124.78Z"/><polygon class="cls-1" points="135.81 242.65 131.26 248.69 134.09 251 138.29 245 135.81 242.65"/><polygon class="cls-1" points="130.26 237.66 125.52 244.33 128.24 246.57 132.73 240.01 130.26 237.66"/><polygon class="cls-1" points="139.94 235.95 137.21 233.4 133.21 239.18 135.9 241.92 139.94 235.95"/><polygon class="cls-1" points="146.6 219.39 142.95 224.52 146.09 227.28 149.68 222.2 146.6 219.39"/><polygon class="cls-1" points="156.9 204.61 152.87 210.15 155.97 213.12 160.03 207.75 156.9 204.61"/><polygon class="cls-1" points="167.1 190.91 162.66 196.78 165.73 200.17 170.32 194.38 167.1 190.91"/><path class="cls-1" d="M177.6,177.84l-4.32,5,3.12,3.72,4.35-4.91C180.58,181.48,177.6,177.84,177.6,177.84Z"/><polygon class="cls-1" points="189.36 163.12 183.69 169.63 186.82 173.8 192.58 166.72 189.36 163.12"/><polygon class="cls-1" points="199.12 150.2 195.15 154.98 198.7 159.29 202.78 154.37 199.12 150.2"/><polygon class="cls-1" points="211.59 135.32 206.39 141.42 209.69 145.08 214.75 139.29 211.59 135.32"/><path class="cls-1" d="M224.46,120.53l-5.28,6c.14.23,3.35,4.26,3.35,4.26l5.31-5.83C227.44,124.31,224.46,120.53,224.46,120.53Z"/><polygon class="cls-1" points="238.2 106.5 232.53 112.33 235.68 116.74 241.15 111.07 238.2 106.5"/><path class="cls-1" d="M128.57,228.22c-.64,1-1.28,2-1.93,2.94l2.4,2.16,1.72-2.63Z"/><path class="cls-1" d="M120.71,236.59c-.64,1-.82,1.26-1.46,2.24l4.74,3.82c.57-.88,1-1.16,1.53-2Z"/><path class="cls-1" d="M135.29,223.83c.58-.87,1.15-1.74,1.73-2.6l-2.19-2.46-1.93,2.9Z"/><path class="cls-1" d="M146.35,201.73l-2.29,3.34,2.33,2.25,2.14-3.14Z"/><path class="cls-1" d="M152.48,192.86l-2.31,3.33,2.32,2.24,2.17-3.12Z"/><path class="cls-1" d="M158.54,184.22l-2.33,3.31,2.32,2.25c.73-1.05,1.46-2.09,2.19-3.11Z"/><path class="cls-1" d="M165.41,174.61l-2.66,3.71,2.08,2.57q1.38-1.95,2.75-3.84Z"/><path class="cls-1" d="M173,164.22l-2.7,3.67,2.08,2.57,2.78-3.8Z"/><path class="cls-1" d="M181,153.49q-1.58,2.08-3.2,4.26l2.06,2.56c1-1.33,2-2.63,2.94-3.91Z"/><path class="cls-1" d="M188.28,144c-.8,1-1.6,2.06-2.41,3.12l2.06,2.55c.84-1.1,1.66-2.17,2.48-3.22Z"/><path class="cls-1" d="M195.08,135.31l-2.46,3.11,2.06,2.54,2.53-3.2Z"/><path class="cls-1" d="M202,126.69c-.78,1-1.58,1.93-2.39,2.94l2.05,2.53,2.36-2.9Z"/><path class="cls-1" d="M211.15,120.7l-2-2.57-1.38,1.64q-.52.62-1,1.26l2,2.52,1.35-1.61Z"/><path class="cls-1" d="M218.21,107.74l-.8.91,0-.06q-1.4,1.57-2.88,3.29l-1.62-2.1q-1.91,2.23-3.94,4.66l5.4,6.44q1.93-2.31,3.74-4.39l-1.58-2q1.51-1.76,2.94-3.37l0,0c.26-.31.53-.62.79-.91Z"/><path class="cls-1" d="M226.92,98.14l-.53.57,0,0c-1.07,1.14-2.2,2.36-3.4,3.68l-1.7-2.28c-1.3,1.48-2.69,3.06-4.15,4.76l5.28,6.77q2.16-2.41,4.11-4.47l-1.6-2.16c1.17-1.29,2.29-2.5,3.34-3.62l0,0,.52-.57Z"/><path class="cls-1" d="M237.31,92.05l-.05-.08.24-.23L235.86,89l-.24.23h0c-1,.92-2.18,2.11-3.64,3.59l1.74,2.8C235.14,94.18,236.33,93,237.31,92.05Z"/><path class="cls-1" d="M141.29,214.84c.44-.64.87-1.29,1.3-1.93l-2.29-2.3L139,212.48Z"/><path class="cls-1" d="M243.13,91.66l-5.63-9.1c-.13.12-1.12,1.07-3,3l5.33,8.68C242,92.46,243.06,91.72,243.13,91.66Z"/><path class="cls-1" d="M225.79,95l5,7.68c1.56-1.57,3-2.94,4.23-4.13L230,90.39C228.73,91.74,227.34,93.26,225.79,95Z"/><path class="cls-1" d="M209.65,126.6l-5.19-7.12c-1.09,1.31-2.21,2.67-3.34,4.06l5.17,7.08Z"/><path class="cls-1" d="M202.76,134.87l-5.35-6.74q-1.72,2.16-3.53,4.44l5.35,6.58Z"/><path class="cls-1" d="M195.61,143.59l-5.28-6.48q-1.53,2-3.11,4l5.4,6.12Q194.14,145.39,195.61,143.59Z"/><path class="cls-1" d="M188.36,152.61l-4.9-6.51-3.3,4.42,5.12,6Z"/><path class="cls-1" d="M180.24,163l-4.6-6.36c-1.18,1.61-2.39,3.27-3.61,5l4.71,6Z"/><path class="cls-1" d="M172.83,172.72l-4.7-5.72c-1.19,1.67-2.41,3.37-3.64,5.11l4.76,5.41Q171.07,175.08,172.83,172.72Z"/><path class="cls-1" d="M165.32,182.84,161,177c-1.13,1.6-2.26,3.22-3.42,4.88l4.49,5.37C163.19,185.75,164.27,184.28,165.32,182.84Z"/><path class="cls-1" d="M159,191.61l-4.33-5.42-3,4.4,4.29,5.33Z"/><path class="cls-1" d="M152.93,200.1l-4.45-5-3,4.46,4.43,4.85C150.91,203,151.92,201.52,152.93,200.1Z"/><path class="cls-1" d="M146.87,208.78l-4.47-4.69-3,4.51,4.52,4.51Z"/><path class="cls-1" d="M141.51,216.6,137.1,212q-1.47,2.19-3,4.45l4.44,4.49Z"/><path class="cls-1" d="M135.35,225.73l-4.55-4.27c-1,1.51-2,3-3,4.58l4.69,4Z"/><path class="cls-1" d="M126.17,239.62q1.52-2.33,3-4.59l-4.54-4.22-3,4.59Z"/><path class="cls-1" d="M213.64,89.1c-1.25-1.35-2.54-1.85-3.65-1.45l-5.21-5.33-1.43,1.46L208.5,89c-.64,1.23-.27,2.8,1.08,4.29a3.64,3.64,0,0,0,3.82,1.34v0l5.31,6.24h0l1.63-1.74L215.09,93C215.53,91.86,214.92,90.52,213.64,89.1ZM213,92.75c-.41.42-1.23.1-2.08-.83s-1.15-1.83-.73-2.26c.6-.6,1.58.27,2.08.85S213.64,92.15,213,92.75Z"/><polygon class="cls-1" points="216.24 91.69 221.62 97.93 223.42 96.37 217.96 89.98 216.24 91.69"/><path class="cls-1" d="M212.7,107.82a57.94,57.94,0,0,0-4.85-5.81l-1.57,1.6,4.84,5.78Z"/><path class="cls-1" d="M197.46,91.17,196,92.72,201.2,98l-1.47,1.51c-2.16-2.27-4.37-3.82-5.87-5.35L192.34,96c-2.16-2-3.67-3.06-5-4.42l-1.45,1.72,4.95,4.33-1.39,1.65,6.11,5.3,1.36-1.71c-1.94-2-3.92-3.5-5.4-4.89l1.3-1.52h0l5.6,4.86,1.31-1.63,4.9,5.2,1.64-1.75c-2.15-2.27-3.44-3.6-4.92-5.12l1.28-1.61C200.46,94.1,199,92.72,197.46,91.17Z"/><polygon class="cls-1" points="207.24 66.51 212.6 72.12 214.2 70.43 208.71 64.86 207.24 66.51"/><polygon class="cls-1" points="203.17 71.74 208.53 77.35 210.13 75.66 204.64 70.09 203.17 71.74"/><polygon class="cls-1" points="223.5 83.51 218.61 77.37 216.89 79 212.09 73.72 210.47 75.52 215.59 80.81 217.04 79.3 221.89 85.32 223.62 83.82 228.48 89.85 230.28 88.29 225.2 81.9 223.5 83.51"/><polygon class="cls-1" points="200.18 74.87 205.79 80.2 207.39 78.51 201.68 73.19 200.18 74.87"/><polygon class="cls-1" points="195.11 67.49 200.68 72.89 202.22 71.15 196.59 65.7 195.11 67.49"/><polygon class="cls-1" points="192.58 71.25 198.37 76.35 199.76 74.49 193.91 69.3 192.58 71.25"/><polygon class="cls-1" points="185.7 80.09 180.24 75.67 179.04 77.27 184.44 81.84 185.53 80.39 191.57 85.42 193.02 83.54 186.83 78.61 185.7 80.09"/><polygon class="cls-1" points="181.33 73.98 186.72 78.55 188.03 76.83 182.52 72.38 181.33 73.98"/><polygon class="cls-1" points="188.38 64.19 193.69 68.88 194.96 67.49 189.63 62.77 188.38 64.19"/><polygon class="cls-1" points="192.88 58.96 198.19 63.65 199.46 62.26 194.13 57.55 192.88 58.96"/><polygon class="cls-1" points="195.37 55.69 200.69 60.38 201.96 58.99 196.63 54.27 195.37 55.69"/><polygon class="cls-1" points="190.16 87.31 184.22 83.09 183.25 84.74 188.85 89.03 190.16 87.31"/><polygon class="cls-1" points="183.18 96.6 177.66 91.82 176.45 93.42 182.06 98.07 183.18 96.6"/><path class="cls-1" d="M171.08,100.56l-5.18-3.8-1,1.54,5.05,3.88-1.19,1.57,5.44,4.53.69-1a3.16,3.16,0,0,0,1.2,3.71,3.59,3.59,0,0,0,3.48.92,3.1,3.1,0,0,0,1.34-.89c1.41-1.52,1.22-3.26-.54-4.77s-3.45-1.42-4.8,0l-.22.26-5.27-4.41,1-1.33,5.32,4.42,1.2-1.76-5.34-4.47Zm5.74,6.81c.63-.7,1.63,0,2.16.43s1.37,1.35.72,2c-.44.48-1.28.32-2.15-.42S176.38,107.85,176.82,107.37Z"/><polygon class="cls-1" points="162.56 101.57 167.72 105.38 168.62 103.92 163.47 100.15 162.56 101.57"/><polygon class="cls-1" points="161.16 112.39 154.91 107.82 153.72 109.68 160.06 114.37 161.16 112.39"/><polygon class="cls-1" points="171.86 112.03 165.89 107.82 164.45 109.65 170.58 114.18 171.86 112.03"/><polygon class="cls-1" points="169.54 115.18 163.71 110.74 162.27 112.57 168.4 117.09 169.54 115.18"/><polygon class="cls-1" points="175.38 82.02 181.74 86.69 182.86 84.85 176.45 80.32 175.38 82.02"/><polygon class="cls-1" points="176.13 93.63 169.98 89.03 168.78 90.89 175.01 95.52 176.13 93.63"/><polygon class="cls-1" points="230.95 75.81 225.87 69.42 224.09 71.1 229.15 77.37 230.95 75.81"/><path class="cls-1" d="M220.6,62.84c-1.53-1.83-3.19-3.65-5.06-5.49L214,58.9l5.24,5.38Z"/><path class="cls-1" d="M209.47,50c-2.44-2.41-3.14-3.2-5-5l-1.32,1.47,5,5Z"/><path class="cls-1" d="M221.24,79.29a3.89,3.89,0,0,0,3.44,1.86,3.36,3.36,0,0,0,1.64-.6c1.87-1.24,2.1-3.12.64-5.16s-3.29-2.38-5.06-1.22S219.82,77.34,221.24,79.29Zm1.66-3.6c.84-.57,1.72.39,2.16,1s1.11,1.76.26,2.32c-.59.4-1.44,0-2.17-1S222.31,76.09,222.9,75.69Z"/><path class="cls-1" d="M226.26,88.18C224.84,86.25,223,85.8,221.2,87s-2.08,3.17-.66,5.13A3.88,3.88,0,0,0,224,93.94a3.31,3.31,0,0,0,1.64-.59C227.49,92.1,227.73,90.22,226.26,88.18Zm-1.64,3.63c-.59.4-1.44,0-2.17-1s-.83-1.94-.25-2.34c.84-.57,1.73.39,2.17,1S225.48,91.26,224.62,91.81Z"/><path class="cls-1" d="M204.48,93.83C202.67,95,202.41,97,203.83,99a3.9,3.9,0,0,0,3.44,1.86,3.33,3.33,0,0,0,1.63-.6c1.88-1.25,2.11-3.13.64-5.16S206.26,92.67,204.48,93.83Zm3.42,4.85c-.58.39-1.43,0-2.16-1s-.84-2-.25-2.34c.84-.57,1.72.39,2.16,1S208.76,98.12,207.9,98.68Z"/><path class="cls-1" d="M192.27,85.22c-1.54,1.3-1.58,3.12-.09,4.77a3.62,3.62,0,0,0,3.35,1.35,3.09,3.09,0,0,0,1.44-.71c1.59-1.33,1.61-3.08.06-4.8S193.78,84,192.27,85.22Zm3.16,2c.48.53,1.19,1.51.47,2.1-.5.43-1.32.16-2.09-.69s-1-1.69-.47-2.11C194.06,85.91,195,86.7,195.43,87.22Z"/><path class="cls-1" d="M144.85,197.31a3.05,3.05,0,0,0,1.3-.94c1.35-1.57,1.09-3.3-.72-4.74s-3.51-1.29-4.8.18-1,3.33.7,4.71A3.6,3.6,0,0,0,144.85,197.31Zm-2.95-4.4c.61-.72,1.63-.09,2.17.35s1.43,1.29.81,2c-.42.5-1.27.37-2.17-.34S141.48,193.41,141.9,192.91Z"/><path class="cls-1" d="M123.17,224.48a3.49,3.49,0,0,0,3.42.77,3,3,0,0,0,1.27-.91c1.32-1.54,1.07-3.22-.7-4.62s-3.41-1.26-4.67.17S121.47,223.14,123.17,224.48Zm.56-3.52c.59-.7,1.58-.08,2.11.34s1.39,1.26.79,1.95c-.41.49-1.24.36-2.12-.33S123.32,221.45,123.73,221Z"/><path class="cls-1" d="M98.84,190.48c-1.69-1.32-3.42-1.26-4.67.17s-1,3.25.67,4.59a3.5,3.5,0,0,0,3.43.77,3,3,0,0,0,1.27-.91C100.85,193.57,100.6,191.88,98.84,190.48ZM98.3,194c-.41.48-1.23.36-2.11-.34s-1.2-1.47-.78-2c.58-.7,1.58-.09,2.11.34S98.91,193.33,98.3,194Z"/><path class="cls-1" d="M111,194.73a3,3,0,0,0,1.27-.91c1.31-1.54,1.06-3.22-.7-4.62s-3.42-1.26-4.67.17-1,3.25.67,4.59A3.5,3.5,0,0,0,111,194.73Zm-2.87-4.29c.59-.7,1.59-.08,2.12.35s1.39,1.26.78,2c-.41.48-1.24.35-2.11-.34S107.69,190.93,108.1,190.44Z"/><path class="cls-1" d="M119.56,167.08c-1.06,1.46-.7,3.06,1,4.17a3.27,3.27,0,0,0,3.21.45,2.81,2.81,0,0,0,1.1-.94c1.1-1.51.74-3-1-4.2S120.6,165.67,119.56,167.08Zm4,2.78c-.34.48-1.11.42-2-.15s-1.21-1.26-.86-1.74c.48-.69,1.45-.2,2,.16S124.12,169.18,123.61,169.86Z"/><path class="cls-1" d="M68.91,154.21c-.84,1.49-.33,3,1.36,3.83a3.09,3.09,0,0,0,3.08.08,2.65,2.65,0,0,0,.93-1c.88-1.54.37-2.94-1.38-3.85S69.75,152.76,68.91,154.21Zm1.25.71c.39-.7,1.35-.34,1.87-.06s1.41.84,1,1.54c-.27.48-1,.52-1.88.07S69.89,155.4,70.16,154.92Z"/><path class="cls-1" d="M88.78,125.89c-1.68-.86-3.15-.51-4,.94s-.34,3,1.35,3.83a3.09,3.09,0,0,0,3.08.08,2.75,2.75,0,0,0,.94-1C91,128.2,90.53,126.79,88.78,125.89Zm.14,3.13c-.27.48-1,.52-1.87.07s-1.28-1.07-1-1.55c.39-.7,1.35-.34,1.88-.07S89.32,128.32,88.92,129Z"/><path class="cls-1" d="M93.41,111.74c-.85,1.49-.33,3,1.36,3.83a3.07,3.07,0,0,0,3.07.08,2.67,2.67,0,0,0,.94-1c.87-1.54.37-2.94-1.39-3.85S94.24,110.29,93.41,111.74Zm4.12,2.19c-.27.48-1,.52-1.87.07s-1.28-1.07-1-1.55c.39-.7,1.35-.34,1.88-.06S97.94,113.23,97.53,113.93Z"/><path class="cls-1" d="M116.13,116.39a3.07,3.07,0,0,0,3.07.08,2.6,2.6,0,0,0,.94-1c.87-1.54.37-2.94-1.38-3.85s-3.15-.51-4,.94S114.44,115.52,116.13,116.39Zm-.11-3.12c.38-.7,1.34-.34,1.87-.06s1.41.84,1,1.54c-.28.48-1,.52-1.88.07S115.75,113.75,116,113.27Z"/><path class="cls-1" d="M117.82,76c-1.62-1-3.11-.71-4,.67s-.52,2.94,1.11,3.92a3.09,3.09,0,0,0,3.06.28,2.56,2.56,0,0,0,1-.94C119.92,78.4,119.51,77,117.82,76Zm-.06,3.13c-.31.47-1,.45-1.88,0s-1.2-1.15-.9-1.61c.43-.68,1.37-.26,1.88.06S118.2,78.41,117.76,79.08Z"/><path class="cls-1" d="M117.16,51.51a3,3,0,0,0,3.06.28,2.56,2.56,0,0,0,1-.94c1-1.48.56-2.91-1.13-3.93s-3.11-.71-4,.68S115.53,50.53,117.16,51.51Zm.09-3.12c.43-.67,1.37-.25,1.87.06s1.35.94.9,1.6c-.3.47-1,.46-1.87,0S117,48.86,117.25,48.39Z"/><path class="cls-1" d="M150.2,57.28c-1.14,1.53-.78,3.23,1,4.43a3.44,3.44,0,0,0,3.39.53,2.88,2.88,0,0,0,1.18-1c1.18-1.58.83-3.2-1-4.45S151.33,55.8,150.2,57.28Zm4.25,3c-.37.5-1.18.43-2.08-.19s-1.26-1.36-.89-1.86c.53-.72,1.54-.18,2.08.2S155,59.58,154.45,60.29Z"/><path class="cls-1" d="M154.19,42.56c-1.74-1.18-3.41-1-4.54.47s-.79,3.23.95,4.43A3.42,3.42,0,0,0,154,48a2.86,2.86,0,0,0,1.18-1C156.36,45.44,156,43.82,154.19,42.56ZM153.9,46c-.37.5-1.19.44-2.09-.18s-1.26-1.36-.89-1.86c.53-.72,1.54-.19,2.09.2S154.44,45.33,153.9,46Z"/><path class="cls-1" d="M143,37.57a2.69,2.69,0,0,0,1.07-.88c1.07-1.44.75-2.92-.9-4.06s-3.1-.91-4.13.43-.71,2.94.87,4A3.11,3.11,0,0,0,143,37.57Zm-2.8-3.63c.48-.65,1.4-.17,1.9.18s1.3,1,.81,1.68c-.34.45-1.08.39-1.9-.17S139.89,34.39,140.22,33.94Z"/><path class="cls-1" d="M159.13,32.42c-1.58-1.07-3.1-.91-4.13.43s-.71,2.94.87,4a3.1,3.1,0,0,0,3.09.48,2.76,2.76,0,0,0,1.07-.88C161.1,35,160.78,33.56,159.13,32.42Zm-.26,3.17c-.34.45-1.08.39-1.9-.17s-1.14-1.24-.81-1.69c.48-.65,1.4-.17,1.9.18S159.36,34.94,158.87,35.59Z"/><path class="cls-1" d="M162.57,27.46c-1.57-1.07-3.1-.91-4.12.43s-.72,2.94.86,4a3.11,3.11,0,0,0,3.09.48,2.69,2.69,0,0,0,1.07-.88C164.55,30.08,164.22,28.6,162.57,27.46Zm-.26,3.17c-.34.45-1.08.39-1.89-.17s-1.15-1.24-.81-1.69c.47-.65,1.39-.17,1.89.18S162.81,30,162.31,30.63Z"/><path class="cls-1" d="M176.39,45.05c-1.75-1.12-3.44-.95-4.57.45s-.8,3.06,1,4.2a3.62,3.62,0,0,0,3.41.5,3.07,3.07,0,0,0,1.19-.92C178.57,47.78,178.21,46.24,176.39,45.05Zm-.3,3.3c-.37.48-1.19.41-2.09-.17s-1.27-1.29-.9-1.76c.53-.69,1.55-.18,2.1.18S176.64,47.68,176.09,48.35Z"/><path class="cls-1" d="M163.58,42.23c-1.63-1.11-3.22-.94-4.28.45s-.74,3,.9,4.17a3.24,3.24,0,0,0,3.2.49,2.8,2.8,0,0,0,1.11-.91C165.62,44.94,165.29,43.41,163.58,42.23Zm-.27,3.28c-.35.47-1.12.4-2-.18s-1.19-1.28-.84-1.75c.5-.67,1.45-.17,2,.19S163.82,44.84,163.31,45.51Z"/><path class="cls-1" d="M162.87,37.54c-1.08,1.45-.74,3,.9,4.17a3.24,3.24,0,0,0,3.2.5,2.83,2.83,0,0,0,1.11-.92c1.11-1.48.78-3-.93-4.19S163.93,36.15,162.87,37.54Zm4,2.84c-.34.47-1.11.4-2-.18s-1.19-1.28-.84-1.75c.5-.68,1.45-.17,2,.19S167.39,39.71,166.87,40.38Z"/><path class="cls-1" d="M172.93,26.72c-1.81-1.23-3.55-1-4.72.49s-.82,3.35,1,4.59a3.56,3.56,0,0,0,3.53.55,3.05,3.05,0,0,0,1.22-1C175.18,29.7,174.81,28,172.93,26.72Zm-.31,3.61c-.38.52-1.22.45-2.16-.19s-1.31-1.41-.93-1.93c.55-.75,1.6-.19,2.17.2S173.19,29.59,172.62,30.33Z"/><path class="cls-1" d="M172.14,21.55c-1.19,1.59-.82,3.35,1,4.6a3.54,3.54,0,0,0,3.52.54,3,3,0,0,0,1.22-1c1.23-1.63.86-3.32-1-4.62S173.31,20,172.14,21.55Zm1.33,1c.55-.75,1.6-.19,2.16.21s1.49,1.18.93,1.91c-.39.52-1.23.45-2.17-.19S173.08,23.07,173.47,22.55Z"/><path class="cls-1" d="M180.43,37c-1.8-1.22-3.54-1-4.72.49s-.82,3.36,1,4.6a3.57,3.57,0,0,0,3.52.55,3.07,3.07,0,0,0,1.22-1C182.68,40,182.31,38.29,180.43,37Zm-.3,3.62c-.39.51-1.23.44-2.17-.2s-1.3-1.41-.92-1.92c.55-.75,1.6-.2,2.16.2S180.7,39.87,180.13,40.61Z"/><path class="cls-1" d="M180.64,36.42a3.57,3.57,0,0,0,3.52.55,3,3,0,0,0,1.23-1c1.23-1.64.86-3.32-1-4.62s-3.55-1.05-4.72.49S178.83,35.18,180.64,36.42Zm.33-3.59c.55-.75,1.6-.19,2.17.2s1.49,1.18.92,1.92c-.38.52-1.23.45-2.16-.19S180.59,33.35,181,32.83Z"/><path class="cls-1" d="M132.52,22.62a3.11,3.11,0,0,0,3.09.48,2.69,2.69,0,0,0,1.07-.88c1.07-1.44.75-2.92-.9-4.06s-3.1-.91-4.13.43S130.94,21.53,132.52,22.62Zm.29-3.15c.48-.66,1.4-.17,1.9.18s1.3,1,.81,1.68c-.34.45-1.08.39-1.9-.17S132.48,19.92,132.81,19.47Z"/><path class="cls-1" d="M152.94,13.21c-1.58-1.07-3.11-.91-4.13.43s-.72,2.94.87,4a3.09,3.09,0,0,0,3.08.48,2.63,2.63,0,0,0,1.07-.88C154.91,15.83,154.58,14.35,152.94,13.21Zm-.27,3.17c-.33.45-1.07.39-1.89-.17S149.63,15,150,14.52c.48-.65,1.4-.17,1.89.18S153.17,15.73,152.67,16.38Z"/><path class="cls-1" d="M101.47,78.77a3,3,0,0,0,3.06.28,2.56,2.56,0,0,0,1-.94c1-1.48.56-2.91-1.13-3.93s-3.11-.71-4,.68S99.84,77.79,101.47,78.77Zm.09-3.12c.43-.67,1.37-.25,1.87.06s1.35.94.9,1.6c-.3.47-1,.46-1.87,0S101.26,76.12,101.56,75.65Z"/><path class="cls-1" d="M80,198.3c-1.65-1.09-3.23-.9-4.28.52s-.69,3.06,1,4.17a3.24,3.24,0,0,0,3.21.44,2.76,2.76,0,0,0,1.1-.93C82.05,201,81.69,199.46,80,198.3Zm-.22,3.3c-.34.47-1.11.42-2-.15s-1.21-1.26-.87-1.74c.49-.69,1.45-.2,2,.15S80.24,200.92,79.74,201.6Z"/><path class="cls-1" d="M145.19,167.47a3.22,3.22,0,0,0,3.21.45,2.76,2.76,0,0,0,1.1-.93c1.09-1.51.73-3-1-4.2s-3.24-.9-4.29.52S143.53,166.37,145.19,167.47Zm.25-3.27c.49-.69,1.45-.2,2,.15s1.38,1.06.87,1.74c-.34.47-1.11.42-2-.15S145.1,164.67,145.44,164.2Z"/><path class="cls-1" d="M96.41,215.73c-1.58-1.24-3.19-1.18-4.36.16s-1,3,.63,4.29a3.27,3.27,0,0,0,3.2.72,2.83,2.83,0,0,0,1.19-.85C98.3,218.61,98.06,217,96.41,215.73Zm-.5,3.31c-.38.45-1.15.33-2-.32s-1.12-1.37-.73-1.83c.54-.65,1.48-.07,2,.32S96.48,218.39,95.91,219Z"/><path class="cls-1" d="M157.41,177.94a3.17,3.17,0,0,0,1.37-.84c1.46-1.47,1.33-3.21-.37-4.79s-3.41-1.54-4.8-.17-1.3,3.25.34,4.75A3.6,3.6,0,0,0,157.41,177.94Zm-2.61-4.61c.65-.67,1.62,0,2.13.51s1.33,1.4.66,2.06c-.46.46-1.29.27-2.14-.5S154.34,173.8,154.8,173.33Z"/><path class="cls-1" d="M180.44,88.2c-1.54,1.3-1.58,3.12-.08,4.77a3.59,3.59,0,0,0,3.34,1.35,3.09,3.09,0,0,0,1.44-.71c1.59-1.34,1.61-3.08.06-4.8S182,87,180.44,88.2Zm3.16,2c.48.53,1.2,1.51.47,2.1-.5.42-1.32.16-2.09-.69s-1-1.69-.46-2.11C182.23,88.88,183.14,89.67,183.6,90.2Z"/><path class="cls-1" d="M163.62,81.44c-1.17,1.46-.9,3.13.73,4.38a3.23,3.23,0,0,0,3.23.67,2.9,2.9,0,0,0,1.18-.91c1.2-1.49.93-3.1-.76-4.41S164.77,80,163.62,81.44Zm3.95,3.13c-.37.48-1.15.38-2-.27s-1.15-1.38-.78-1.86c.54-.68,1.49-.11,2,.28S168.13,83.9,167.57,84.57Z"/><path class="cls-1" d="M151.34,77.25c-1.17,1.45-.9,3.13.72,4.38a3.25,3.25,0,0,0,3.24.66,2.71,2.71,0,0,0,1.17-.9c1.21-1.5.94-3.1-.75-4.41S152.49,75.85,151.34,77.25Zm3.95,3.13c-.38.47-1.15.37-2-.27s-1.15-1.39-.78-1.86c.54-.69,1.49-.12,2,.28S155.85,79.71,155.29,80.38Z"/><path class="cls-1" d="M132.26,107.94c-1.16,1.45-.89,3.13.73,4.38a3.22,3.22,0,0,0,3.24.66,2.83,2.83,0,0,0,1.17-.9c1.21-1.5.93-3.1-.75-4.41S133.41,106.54,132.26,107.94Zm1.19,1c.54-.68,1.49-.12,2,.28s1.33,1.18.78,1.85c-.38.47-1.16.37-2-.27S133.07,109.41,133.45,108.94Z"/><path class="cls-1" d="M157.75,72.65a3.25,3.25,0,0,0,3.24.67,2.94,2.94,0,0,0,1.17-.91c1.21-1.49.93-3.1-.75-4.41s-3.24-1.13-4.39.27S156.12,71.4,157.75,72.65Zm.46-3.38c.53-.68,1.48-.11,2,.28s1.33,1.18.78,1.85c-.38.48-1.16.38-2-.27S157.83,69.74,158.21,69.27Z"/><path class="cls-1" d="M144.61,66.26c-1.17,1.45-.9,3.13.72,4.38a3.22,3.22,0,0,0,3.24.66,2.71,2.71,0,0,0,1.17-.9c1.21-1.5.94-3.1-.75-4.41S145.76,64.86,144.61,66.26Zm3.95,3.13c-.38.47-1.15.37-2-.27s-1.16-1.39-.78-1.86c.54-.68,1.49-.12,2,.28S149.12,68.72,148.56,69.39Z"/><path class="cls-1" d="M183.39,57.68c-1.79-1.35-3.59-1.24-4.87.29s-1,3.43.81,4.8a3.66,3.66,0,0,0,3.6.72,3.25,3.25,0,0,0,1.3-1C185.57,60.87,185.26,59.11,183.39,57.68Zm-.48,3.72c-.41.52-1.28.41-2.21-.3s-1.28-1.52-.86-2c.6-.75,1.65-.13,2.21.31S183.53,60.66,182.91,61.4Z"/><path class="cls-1" d="M177.16,122.37c-1.64-1.47-3.41-1.52-4.79-.14a3.53,3.53,0,0,0-.44.53,3.51,3.51,0,0,0-1.37-3c-1.64-1.47-3.42-1.52-4.8-.14s-1.28,3.25.37,4.75a3.59,3.59,0,0,0,3.46,1,3.09,3.09,0,0,0,1.36-.84,4.72,4.72,0,0,0,.47-.57,3.42,3.42,0,0,0,1.32,3,3.59,3.59,0,0,0,3.46,1,3,3,0,0,0,1.36-.85C179,125.68,178.87,123.93,177.16,122.37Zm-7.4,1c-.45.47-1.29.29-2.14-.49s-1.12-1.59-.67-2.06c.65-.67,1.63,0,2.14.5S170.43,122.74,169.76,123.4Zm6.61,2.56c-.46.47-1.29.28-2.14-.49s-1.13-1.59-.67-2.06c.65-.67,1.63,0,2.14.5S177,125.3,176.37,126Z"/><path class="cls-1" d="M166.52,125.27c-1.55-1.41-3.23-1.45-4.53-.13s-1.22,3.13.34,4.56a3.35,3.35,0,0,0,3.26,1,2.87,2.87,0,0,0,1.29-.82C168.26,128.44,168.13,126.77,166.52,125.27Zm-.76,3.45c-.43.45-1.22.27-2-.47s-1.06-1.52-.63-2c.62-.65,1.54,0,2,.47S166.39,128.08,165.76,128.72Z"/><path class="cls-1" d="M174.65,136.54a3.37,3.37,0,0,0,3.27,1,2.81,2.81,0,0,0,1.29-.81c1.38-1.42,1.25-3.09-.37-4.59s-3.22-1.46-4.53-.13S173.1,135.11,174.65,136.54Zm.79-3.43c.61-.65,1.54,0,2,.48s1.26,1.33.63,2c-.44.45-1.23.28-2-.46S175,133.56,175.44,133.11Z"/><path class="cls-1" d="M150.61,148.38c-1.55-1.41-3.23-1.46-4.54-.13s-1.21,3.12.35,4.55a3.33,3.33,0,0,0,3.26,1A2.9,2.9,0,0,0,151,153C152.35,151.54,152.22,149.87,150.61,148.38Zm-.76,3.44c-.43.45-1.22.28-2-.46s-1-1.53-.62-2c.61-.65,1.54,0,2,.47S150.48,151.18,149.85,151.82Z"/><path class="cls-1" d="M155.39,133.81a2.87,2.87,0,0,0,1.29-.81c1.37-1.42,1.24-3.1-.37-4.59s-3.22-1.46-4.53-.13-1.21,3.12.34,4.56A3.36,3.36,0,0,0,155.39,133.81Zm-2.49-4.4c.62-.65,1.54,0,2,.48s1.26,1.33.62,2c-.43.45-1.22.28-2-.46S152.47,129.86,152.9,129.41Z"/><path class="cls-1" d="M139.82,145.36a2.66,2.66,0,0,0,1.11-.91c1.13-1.47.83-3-.84-4.24s-3.16-1-4.24.37-.79,3,.81,4.22A3.17,3.17,0,0,0,139.82,145.36Zm-2.8-3.84c.51-.67,1.44-.15,1.94.22s1.32,1.11.8,1.77c-.35.47-1.11.39-1.94-.21S136.67,142,137,141.52Z"/><path class="cls-1" d="M191.47,131.81a3,3,0,0,0,1.36-.8c1.47-1.42,1.4-3.15-.22-4.75s-3.28-1.62-4.68-.3-1.36,3.19.2,4.72A3.46,3.46,0,0,0,191.47,131.81Zm-2.41-4.64c.66-.65,1.59.08,2.07.56s1.26,1.42.58,2.06c-.46.45-1.27.24-2.08-.55S188.6,127.62,189.06,127.17Z"/><path class="cls-1" d="M192.8,118.32a3.13,3.13,0,0,0,1.44-.68c1.58-1.27,1.59-3,0-4.63s-3.28-1.81-4.78-.62-1.56,3,0,4.59A3.72,3.72,0,0,0,192.8,118.32Zm-2.23-4.68c.71-.58,1.62.19,2.09.7s1.21,1.47.49,2c-.5.4-1.32.14-2.1-.69S190.07,114.05,190.57,113.64Z"/><path class="cls-1" d="M188.44,123.5a3,3,0,0,0,1.43-.68c1.58-1.27,1.59-2.95,0-4.63s-3.27-1.81-4.77-.62-1.56,3-.05,4.59A3.74,3.74,0,0,0,188.44,123.5Zm-2.23-4.67c.7-.59,1.62.18,2.09.69s1.21,1.47.49,2c-.5.4-1.32.14-2.1-.69S185.71,119.23,186.21,118.83Z"/><path class="cls-1" d="M196.77,79.84c-1.64,1-1.84,2.71-.51,4.42a3.8,3.8,0,0,0,3.18,1.68,3.06,3.06,0,0,0,1.48-.49c1.69-1,1.87-2.67.49-4.46S198.37,78.87,196.77,79.84ZM200,84.11c-.53.33-1.31,0-2-.91s-.8-1.69-.27-2c.76-.48,1.58.36,2,.91S200.75,83.64,200,84.11Z"/><path class="cls-1" d="M185.18,68.08c-1.66,1.34-1.64,3.22.08,4.92A4.23,4.23,0,0,0,189,74.39a3.43,3.43,0,0,0,1.57-.74c1.71-1.38,1.67-3.18-.1-5S186.81,66.8,185.18,68.08Zm4.16,4.23c-.54.43-1.45.16-2.34-.71s-1.12-1.75-.58-2.18c.76-.64,1.79.18,2.32.72S190.12,71.69,189.34,72.31Z"/><path class="cls-1" d="M205,61.81c-1.57-1.25-3.17-1.2-4.35.13s-1,3,.6,4.27a3.27,3.27,0,0,0,3.18.74,2.9,2.9,0,0,0,1.19-.84C206.87,64.69,206.65,63.12,205,61.81Zm-.52,3.28c-.39.45-1.16.33-2-.32s-1.1-1.38-.71-1.83c.55-.64,1.47-.07,2,.34S205.06,64.46,204.5,65.09Z"/><path class="cls-1" d="M215.22,68.25a3,3,0,0,0,1.41-.77c1.54-1.38,1.5-3.13-.12-4.78s-3.31-1.73-4.77-.43-1.46,3.16.1,4.75A3.57,3.57,0,0,0,215.22,68.25Zm-2.36-4.73c.69-.64,1.62.12,2.11.62s1.25,1.46.54,2.08c-.48.44-1.3.21-2.1-.61S212.38,64,212.86,63.52Z"/><path class="cls-1" d="M199.66,54.88a3.83,3.83,0,0,0,3.46,1.62,3.25,3.25,0,0,0,1.56-.67c1.76-1.32,1.88-3.16.34-5.07s-3.33-2.13-5-.91S198.18,53.05,199.66,54.88Zm1.43-3.6c.78-.6,1.7.28,2.16.86s1.18,1.66.37,2.25c-.55.42-1.39.09-2.16-.85S200.54,51.7,201.09,51.28Z"/><path class="cls-1" d="M190.87,45.34a3.46,3.46,0,0,0,3.43.59,3,3,0,0,0,1.21-1c1.22-1.58.89-3.23-.92-4.53s-3.44-1.08-4.61.4S189.13,44.09,190.87,45.34Zm.39-3.51c.54-.72,1.56-.16,2.1.24s1.44,1.17.87,1.89c-.38.49-1.2.41-2.1-.23S190.87,42.33,191.26,41.83Z"/><path class="cls-1" d="M208.07,78.47c-1.69,1.13-1.94,3-.62,4.77A3.66,3.66,0,0,0,210.66,85a3.08,3.08,0,0,0,1.52-.56c1.74-1.16,2-2.91.59-4.8S209.72,77.4,208.07,78.47ZM211.25,83c-.55.37-1.34,0-2-.93s-.78-1.8-.23-2.17c.78-.53,1.6.36,2,.93S212.05,82.47,211.25,83Z"/><path class="cls-1" d="M207.23,113.88l-4.68-5.53c.51-1.17.11-2.51-1.2-3.8-1.56-1.51-3.17-1.66-4.34-.4s-.94,3.08.63,4.62c1.17,1.12,2.4,1.5,3.41,1.1l4.7,5.61Zm-6.37-5.9c-.39.44-1.16.21-2-.59s-1.11-1.61-.72-2c.54-.61,1.46.11,2,.6S201.42,107.38,200.86,108Z"/><path class="cls-1" d="M116,204.55c1.39.83,2.68.93,3.57.31l5.83,4.42,1.09-1.88-5.8-4.35c.24-1.26-.45-2.47-2-3.44-1.85-1.12-3.45-.91-4.31.58S114.1,203.4,116,204.55Zm-.24-3.44c.38-.72,1.45-.22,2,.15s1.57,1.09,1.16,1.8c-.28.51-1.08.46-2-.14S115.45,201.61,115.74,201.11Z"/><path class="cls-1" d="M122.44,231.56l-3.91-3c.22-1.3-.48-2.55-2-3.55-1.87-1.17-3.47-1-4.32.56s-.21,3.31,1.68,4.5c1.4.86,2.68,1,3.57.35l3.77,2.94Zm-5.65-3c-.27.53-1.08.46-2.05-.16s-1.45-1.36-1.17-1.87c.38-.74,1.45-.22,2,.17S117.2,227.81,116.79,228.54Z"/><path class="cls-1" d="M203.23,119.28c1.22-1.51.93-3.5-1-5.3-1.38-1.29-2.77-1.62-3.86-1.1l-5-5.06-1.46,1.67,5,5.06,0,0c-.51,1.31,0,2.83,1.43,4.23C200.21,120.42,202.12,120.68,203.23,119.28Zm-3.51-2c-.85-.84-1.13-1.69-.74-2.17.55-.68,1.5.09,2,.6s1.3,1.51.73,2.17C201.32,118.32,200.54,118.09,199.72,117.24Z"/><path class="cls-1" d="M172.55,159c1-1.5.6-3.31-1.35-4.82-1.41-1.07-2.76-1.26-3.75-.69l-5.19-4.25L161,150.85l5.19,4.25,0,0c-.38,1.25.18,2.62,1.69,3.79C169.77,160.26,171.61,160.33,172.55,159Zm-3.5-1.59c-.88-.71-1.21-1.47-.88-1.94.47-.67,1.44,0,2,.39s1.36,1.28.87,1.94C170.66,158.22,169.89,158.07,169.05,157.36Z"/><polygon class="cls-1" points="198.66 123.97 193.69 118.67 192.14 120.43 197.2 125.69 198.66 123.97"/><polygon class="cls-1" points="188.07 114.65 182.54 110 181.11 111.64 186.82 116.11 188.07 114.65"/><polygon class="cls-1" points="183.95 119.48 178.42 114.47 177 116.11 182.54 121.01 183.95 119.48"/><polygon class="cls-1" points="181.51 122.36 176.23 117.57 174.8 119.48 180.02 124.18 181.51 122.36"/><polygon class="cls-1" points="183.47 143.1 178.34 138.14 176.91 139.89 172.03 135.18 173.1 133.92 168 129.49 166.68 130.94 171.64 135.27 170.35 136.84 175.42 141.76 176.92 140.05 181.91 144.89 183.47 143.1"/><polygon class="cls-1" points="188.66 136.02 190.23 134.23 185.09 129.27 183.6 131.08 178.85 126.78 177.32 128.32 182.29 132.69 181.04 134.36 186.15 139.45 187.63 137.63 182.58 132.57 183.72 131.24 188.66 136.02"/><polygon class="cls-1" points="136.63 164.61 137.49 163.31 142.44 166.82 143.19 165.45 138.36 162 139.56 160.34 134.07 156.9 133.04 158.55 137.95 161.75 137.14 162.9 132.37 159.71 131.3 161.09 136.63 164.61"/><polygon class="cls-1" points="176.46 152.15 178.02 150.36 172.88 145.4 171.45 147.15 166.26 142.43 165.01 144.13 170.31 148.74 169.06 150.26 174.14 155.18 175.7 153.38 170.61 148.47 171.53 147.37 176.46 152.15"/><polygon class="cls-1" points="181.7 98.49 180.4 100.23 185.9 104.84 184.76 106.07 179.25 101.63 177.66 103.4 183.4 108.01 184.63 106.5 190.05 111.22 191.6 109.63 186.08 104.95 187.52 103.43 181.7 98.49"/><polygon class="cls-1" points="168.09 163.81 169.4 161.92 164.13 157.29 162.78 159.13 158.1 155.01 159.16 153.46 154.12 148.97 152.79 150.79 157.39 154.84 156.2 156.45 161.55 161.09 162.82 159.24 168.09 163.81"/><polygon class="cls-1" points="154.97 147.19 149.77 143.07 148.54 144.68 153.66 148.86 154.97 147.19"/><polygon class="cls-1" points="157.32 144.07 152.12 139.94 150.88 141.55 156.01 145.74 157.32 144.07"/><polygon class="cls-1" points="144.32 138.47 149.44 142.66 150.75 140.99 145.55 136.86 144.32 138.47"/><polygon class="cls-1" points="142.68 141.17 143.9 139.44 139.12 135.65 137.89 137.25 142.68 141.17"/><path class="cls-1" d="M152.8,162.31a3.35,3.35,0,0,0,1.38,2.74,3.89,3.89,0,0,0,3.58,1,3.16,3.16,0,0,0,1.4-.82c1.48-1.44,1.33-3.15-.45-4.69s-3.52-1.52-4.94-.17a3.18,3.18,0,0,0-.85,1.29l-5.13-3.78-1.21,1.82,5.34,4Zm2.21-.75c.66-.65,1.68,0,2.21.51s1.38,1.36.7,2c-.47.46-1.33.27-2.21-.49S154.54,162,155,161.56Z"/><polygon class="cls-1" points="168.1 140.31 173.25 144.89 174.7 142.85 169.34 138.09 167.98 139.77 163.32 135.53 161.71 137.31 166.85 141.8 168.1 140.31"/><polygon class="cls-1" points="163.63 147.73 158.54 143.29 157.22 144.75 162.36 149.24 163.63 147.73"/><polygon class="cls-1" points="164.9 132.69 159.66 128.27 158.32 129.91 163.58 134.18 164.9 132.69"/><polygon class="cls-1" points="164.56 122.06 158.78 117.74 157.44 119.59 163.22 123.65 164.56 122.06"/><polygon class="cls-1" points="147.47 121.33 153.85 126.07 155.02 124.18 148.73 119.4 147.47 121.33"/><polygon class="cls-1" points="141.66 117.3 147.01 120.78 148.02 119.25 142.73 115.58 141.66 117.3"/><polygon class="cls-1" points="138.64 111.64 143.99 115.12 145 113.59 139.71 109.92 138.64 111.64"/><polygon class="cls-1" points="150.35 114.05 151.35 112.52 146.07 108.85 145 110.57 150.35 114.05"/><polygon class="cls-1" points="146.99 107.52 152.34 111 153.34 109.47 148.06 105.8 146.99 107.52"/><polygon class="cls-1" points="159.05 100.68 153.76 97.01 152.69 98.73 158.04 102.21 159.05 100.68"/><polygon class="cls-1" points="151.33 94.16 156.68 97.64 157.69 96.11 152.4 92.44 151.33 94.16"/><polygon class="cls-1" points="153.51 84.7 158.86 88.18 159.87 86.65 154.58 82.98 153.51 84.7"/><polygon class="cls-1" points="166.57 88.83 161.5 84.82 160.43 86.28 165.58 90.33 166.57 88.83"/><polygon class="cls-1" points="165.91 78.76 171.06 82.8 172.05 81.31 166.98 77.3 165.91 78.76"/><polygon class="cls-1" points="143.99 91.2 149.34 94.68 150.35 93.15 145.06 89.48 143.99 91.2"/><polygon class="cls-1" points="141.58 94.68 140.51 96.4 145.86 99.88 146.87 98.35 141.58 94.68"/><polygon class="cls-1" points="145.19 101.22 139.9 97.55 138.83 99.27 144.18 102.75 145.19 101.22"/><polygon class="cls-1" points="132.72 97.1 133.91 95.47 128.57 91.63 127.42 93.29 132.72 97.1"/><polygon class="cls-1" points="125.6 96.34 130.77 99.82 131.85 98.34 126.59 94.68 125.6 96.34"/><polygon class="cls-1" points="137.74 90.27 143.09 93.75 144.1 92.22 138.81 88.55 137.74 90.27"/><polygon class="cls-1" points="136.6 90.91 131.23 87.38 130.25 88.95 135.6 92.44 136.6 90.91"/><polygon class="cls-1" points="134.56 81.66 139.91 85.14 140.92 83.61 135.54 80.09 134.56 81.66"/><polygon class="cls-1" points="136.35 78.67 141.7 82.15 142.71 80.62 137.33 77.09 136.35 78.67"/><polygon class="cls-1" points="162.38 95.23 157.18 91.42 156.26 92.91 161.46 96.62 162.38 95.23"/><polygon class="cls-1" points="157.69 90.51 162.89 94.23 163.81 92.83 158.61 89.03 157.69 90.51"/><polygon class="cls-1" points="149.7 129.68 144.56 125.67 143.62 127.31 148.75 131.23 149.7 129.68"/><polygon class="cls-1" points="132.31 131.37 137.32 134.98 138.27 133.43 133.42 129.91 132.31 131.37"/><polygon class="cls-1" points="131.14 122.92 136.42 126.59 137.57 124.92 132.25 121.45 131.14 122.92"/><polygon class="cls-1" points="140.34 107.82 135.18 103.86 134.22 105.35 139.29 109.48 140.34 107.82"/><polygon class="cls-1" points="129.86 112.79 134.84 116 135.76 114.55 130.78 111.3 129.86 112.79"/><polygon class="cls-1" points="122.47 113.28 127.75 116.7 128.71 115.16 123.45 111.71 122.47 113.28"/><polygon class="cls-1" points="130.19 123.77 125.29 120.54 124.38 122.01 129.29 125.2 130.19 123.77"/><polygon class="cls-1" points="126.57 148.27 121.13 144.95 120.1 146.63 125.59 149.9 126.57 148.27"/><polygon class="cls-1" points="119.6 140.58 114.31 137.47 113.4 138.94 118.47 142.01 119.6 140.58"/><polygon class="cls-1" points="168.7 73.18 174.17 77.14 175.38 75.59 169.87 71.58 168.7 73.18"/><polygon class="cls-1" points="170.38 70.4 175.85 74.36 177.06 72.81 171.55 68.81 170.38 70.4"/><polygon class="cls-1" points="179.53 68.87 174.02 64.87 172.85 66.46 178.32 70.42 179.53 68.87"/><polygon class="cls-1" points="175.28 63.02 180.55 67.26 181.84 65.77 176.54 61.49 175.28 63.02"/><polygon class="cls-1" points="183.39 49.9 188.55 54.27 189.87 52.82 184.69 48.4 183.39 49.9"/><polygon class="cls-1" points="181.8 52.31 187.19 56.58 188.4 55.03 183.01 50.86 181.8 52.31"/><polygon class="cls-1" points="186.33 46.18 191.59 50.41 192.88 48.92 187.58 44.65 186.33 46.18"/><polygon class="cls-1" points="199 40.28 193.7 36 192.45 37.54 197.72 41.77 199 40.28"/><polygon class="cls-1" points="141.06 203.25 136.32 199.51 134.86 201.41 139.78 205.03 141.06 203.25"/><polygon class="cls-1" points="131.39 206.85 132.56 205.22 137.26 208.68 138.54 206.9 133.81 203.16 132.46 204.9 128.09 201.46 129.23 199.88 124.01 196.3 122.95 198.13 127.77 201.54 126.47 203.22 131.39 206.85"/><polygon class="cls-1" points="142.13 201.22 143.41 199.44 138.67 195.7 137.21 197.59 142.13 201.22"/><polygon class="cls-1" points="124.77 217.27 129.53 220.57 130.79 218.7 126.32 215.45 127.26 214.06 131.77 217.17 133.02 215.3 128.33 211.88 127.09 213.75 122.64 210.52 121.32 212.51 125.85 215.64 124.77 217.27"/><polygon class="cls-1" points="115.18 221.81 120.15 225.25 121.44 223.38 116.6 219.89 117.78 218.18 112.77 214.57 111.51 216.61 116.33 219.94 115.18 221.81"/><polygon class="cls-1" points="99.7 224.94 104.78 228.22 106.06 226.35 100.92 222.96 99.7 224.94"/><polygon class="cls-1" points="162.49 171.45 157.62 167.11 156.03 168.99 161.01 173.32 162.49 171.45"/><path class="cls-1" d="M145.93,179c-1.74-1.36-3.51-1.29-4.8.18a3.78,3.78,0,0,0-.62,1l-4.6-3.16,1.06-1.62-5.16-3.54-1.09,1.62,4.87,3.48-1.1,1.64,5.53,4,.4-.61a3.94,3.94,0,0,0,1.41,1.94,3.6,3.6,0,0,0,3.52.79,3.14,3.14,0,0,0,1.3-.94C148,182.17,147.74,180.45,145.93,179Zm-.55,3.64c-.42.49-1.27.37-2.17-.35s-1.23-1.51-.81-2c.61-.72,1.63-.08,2.18.35S146,181.93,145.38,182.64Z"/><polygon class="cls-1" points="143.33 176.7 137.87 173.32 136.97 174.61 142.46 178.03 143.33 176.7"/><polygon class="cls-1" points="144.29 186.86 139.11 183.28 137.96 185.03 142.99 188.67 144.29 186.86"/><polygon class="cls-1" points="150.12 178.37 154.73 182.38 156.21 180.51 151.34 176.17 149.86 177.91 145.04 174.19 143.76 176.09 148.74 180.11 150.12 178.37"/><polygon class="cls-1" points="136.83 187.59 131.49 184.03 130.6 185.42 135.9 188.83 136.83 187.59"/><polygon class="cls-1" points="134.54 190.91 129.44 187.28 128.08 189.26 133.27 192.84 134.54 190.91"/><polygon class="cls-1" points="116.02 207.44 110.91 203.86 109.65 205.63 114.81 209.28 116.02 207.44"/><polygon class="cls-1" points="100.19 203.61 105.49 206.57 106.55 204.96 101.28 201.85 100.19 203.61"/><polygon class="cls-1" points="96.57 209.61 101.6 212.75 102.68 211.2 97.62 207.8 96.57 209.61"/><polygon class="cls-1" points="71.41 207.4 76.21 210.04 77.16 208.47 72.46 205.76 71.41 207.4"/><polygon class="cls-1" points="62.12 202.32 66.84 204.96 67.8 203.31 63.08 200.64 62.12 202.32"/><polygon class="cls-1" points="123.08 187.04 117.73 183.22 116.48 185.06 121.72 188.76 123.08 187.04"/><polygon class="cls-1" points="128.6 177.25 123.33 173.51 121.99 175.33 127.36 178.99 128.6 177.25"/><polygon class="cls-1" points="108.56 180.85 103.46 177.18 102.26 179.1 107.31 182.54 108.56 180.85"/><polygon class="cls-1" points="106.38 183.19 101.22 179.99 100.23 181.67 105.41 184.82 106.38 183.19"/><polygon class="cls-1" points="83.76 184.79 88.84 187.56 89.8 185.92 84.68 183.09 83.76 184.79"/><polygon class="cls-1" points="73.69 180.99 68.64 178.27 67.74 179.88 72.9 182.63 73.69 180.99"/><polygon class="cls-1" points="42.96 177.95 48.25 180.95 49.3 179.31 44.09 176.22 42.96 177.95"/><path class="cls-1" d="M79.25,171.64l-5.09-2.73s-.82,1.56-.88,1.56,5.07,2.72,5.07,2.72Z"/><polygon class="cls-1" points="71.11 163.27 66.04 160.53 65.37 161.91 70.25 164.66 71.11 163.27"/><polygon class="cls-1" points="54.65 158.2 59.66 160.9 60.52 159.56 55.49 156.77 54.65 158.2"/><polygon class="cls-1" points="124.21 159.82 129.44 163.54 130.58 161.86 125.22 158.17 124.21 159.82"/><polygon class="cls-1" points="131.3 149.9 136.51 153.33 137.41 152.13 132.18 148.55 131.3 149.9"/><polygon class="cls-1" points="115.16 156.21 120.48 159.66 121.34 158.51 115.89 154.95 115.16 156.21"/><polygon class="cls-1" points="105.15 151.78 109.91 154.69 110.92 153.21 105.99 150.23 105.15 151.78"/><polygon class="cls-1" points="113.14 172.75 108.07 169.44 107.06 171.16 112.14 174.26 113.14 172.75"/><polygon class="cls-1" points="97.12 165.87 101.8 168.45 102.68 166.96 97.98 164.22 97.12 165.87"/><polygon class="cls-1" points="98.3 151.47 93.48 148.54 92.53 150.09 97.35 152.97 98.3 151.47"/><polygon class="cls-1" points="109.85 133.67 110.75 132.26 105.29 129.06 104.44 130.61 109.85 133.67"/><polygon class="cls-1" points="95.4 132.42 100.83 135.55 101.65 134.1 96.3 130.87 95.4 132.42"/><polygon class="cls-1" points="84.4 139.36 85.24 137.99 80.13 135.27 79.3 136.71 84.4 139.36"/><polygon class="cls-1" points="70.12 141.46 65.02 138.68 64.22 140.15 69.3 142.85 70.12 141.46"/><polygon class="cls-1" points="80.7 122.15 75.41 119.25 74.74 120.64 80 123.41 80.7 122.15"/><polygon class="cls-1" points="90.48 116.76 95.24 119.86 96.1 118.52 91.37 115.58 90.48 116.76"/><polygon class="cls-1" points="97.64 104.38 96.69 105.94 102.15 109.04 103.1 107.66 97.64 104.38"/><polygon class="cls-1" points="108.38 109.33 113.77 112.46 114.59 111.03 109.31 107.89 108.38 109.33"/><polygon class="cls-1" points="116.21 122.32 110.87 119.11 109.96 120.59 115.29 123.72 116.21 122.32"/><polygon class="cls-1" points="119.16 129.53 124.93 133.16 125.77 131.79 119.96 128.14 119.16 129.53"/><polygon class="cls-1" points="115.45 99.14 120.94 102.29 121.85 100.84 116.5 97.61 115.45 99.14"/><polygon class="cls-1" points="105.01 90.88 110.35 94 111.32 92.56 105.93 89.43 105.01 90.88"/><polygon class="cls-1" points="96.41 94.61 91.08 91.51 90.09 92.93 95.48 96.04 96.41 94.61"/><polygon class="cls-1" points="101.46 86.37 96.01 83.1 95.02 84.61 100.56 87.75 101.46 86.37"/><polygon class="cls-1" points="113.79 88.15 114.65 86.77 109.31 83.54 108.38 85 113.79 88.15"/><polygon class="cls-1" points="108.7 72.69 103.24 69.55 102.53 70.91 107.92 73.91 108.7 72.69"/><polygon class="cls-1" points="120.34 77.48 125.94 80.87 126.86 79.49 121.26 75.99 120.34 77.48"/><polygon class="cls-1" points="129.29 76.16 134.43 79.41 135.41 78.06 130.25 74.6 129.29 76.16"/><polygon class="cls-1" points="121.47 89.21 126.86 92.32 127.73 90.86 122.39 87.73 121.47 89.21"/><polygon class="cls-1" points="145.43 80.6 150.62 84.06 151.81 82.42 146.51 78.91 145.43 80.6"/><polygon class="cls-1" points="132.43 70.44 137.81 73.88 138.71 72.41 133.46 68.97 132.43 70.44"/><polygon class="cls-1" points="127.91 65.11 133.59 68.61 134.46 67.15 128.84 63.67 127.91 65.11"/><polygon class="cls-1" points="124.63 69.46 125.59 68.05 120.34 64.75 119.4 66.22 124.63 69.46"/><polygon class="cls-1" points="130.16 61.42 135.76 65.25 136.6 63.94 131.06 60.08 130.16 61.42"/><polygon class="cls-1" points="138.44 60.55 143.73 63.82 144.73 62.45 139.34 59.07 138.44 60.55"/><polygon class="cls-1" points="146.63 63.04 151.86 66.62 152.95 65.13 147.75 61.45 146.63 63.04"/><polygon class="cls-1" points="153.51 74.08 158.42 77.48 159.36 76.12 154.63 72.65 153.51 74.08"/><polygon class="cls-1" points="163.2 68.9 168.47 72.34 169.54 70.75 164.31 67.26 163.2 68.9"/><polygon class="cls-1" points="166.01 65.02 161.24 61.45 160.13 62.85 164.95 66.41 166.01 65.02"/><polygon class="cls-1" points="162.03 60.37 166.86 63.93 167.96 62.5 163.17 58.93 162.03 60.37"/><polygon class="cls-1" points="163.47 58.2 168.31 61.72 169.24 60.32 164.48 56.64 163.47 58.2"/><polygon class="cls-1" points="117.2 57.53 111.51 54.34 110.55 55.88 116.21 59.01 117.2 57.53"/><polygon class="cls-1" points="120.18 57.83 126.46 61.08 127.33 59.64 121.05 56.39 120.18 57.83"/><polygon class="cls-1" points="125.33 42.36 119.29 39.13 118.41 40.78 124.53 43.87 125.33 42.36"/><polygon class="cls-1" points="124.25 45.15 129.86 48.61 130.71 47.2 125.19 43.7 124.25 45.15"/><polygon class="cls-1" points="132.31 43.7 137.89 47.26 138.9 45.79 133.11 42.29 132.31 43.7"/><polygon class="cls-1" points="128.67 50.63 133.97 53.95 134.79 52.54 129.52 49.21 128.67 50.63"/><polygon class="cls-1" points="137.3 49.79 142.94 53.27 143.89 52 138.25 48.41 137.3 49.79"/><polygon class="cls-1" points="143.72 51.45 149.11 54.93 150.28 53.55 145.01 50.02 145.96 48.65 151.25 52.06 152.42 50.67 146.87 46.96 145.88 48.54 140.47 45.01 139.4 46.59 144.62 50.01 143.72 51.45"/><polygon class="cls-1" points="155.58 47.69 161.06 51.3 162.03 49.97 156.62 46.43 155.58 47.69"/><polygon class="cls-1" points="160.25 52.3 155 48.86 154.02 50.37 159.47 53.72 160.25 52.3"/><polygon class="cls-1" points="160.92 57.78 155.58 54.26 154.63 55.85 159.89 59.41 160.92 57.78"/><polygon class="cls-1" points="166.68 52.95 171.72 56.03 172.69 54.68 167.72 51.44 166.68 52.95"/><polygon class="cls-1" points="169.24 58.65 174.65 62.01 175.69 60.55 170.38 57.03 169.24 58.65"/><polygon class="cls-1" points="175.88 52.75 181.08 56.03 182.12 54.74 176.97 51.1 175.88 52.75"/><polygon class="cls-1" points="168.42 49.79 173.87 53.57 174.96 51.91 169.54 48.24 168.42 49.79"/><polygon class="cls-1" points="145.31 43.19 139.4 39.96 138.58 41.45 144.43 44.47 145.31 43.19"/><polygon class="cls-1" points="145.56 36.31 151.33 39.39 152.23 37.97 146.47 34.65 145.56 36.31"/><polygon class="cls-1" points="130.95 33.81 136.93 36.9 137.76 35.47 131.81 32.22 130.95 33.81"/><polygon class="cls-1" points="134.18 27.54 127.8 24.38 127.09 25.7 133.36 28.93 134.18 27.54"/><polygon class="cls-1" points="140.87 29.77 146.11 32.98 147.1 31.59 141.75 28.4 140.87 29.77"/><polygon class="cls-1" points="137.78 20.58 142.81 23.22 143.45 22.01 138.56 19.16 137.78 20.58"/><polygon class="cls-1" points="144.31 21.7 149.5 24.88 150.4 23.43 145.22 20.25 144.31 21.7"/><polygon class="cls-1" points="145.76 18.69 151.09 21.9 151.96 20.48 146.72 17.21 145.76 18.69"/><polygon class="cls-1" points="150.4 27.7 156.32 31.09 157.08 29.71 151.37 26.24 150.4 27.7"/><polygon class="cls-1" points="152.38 24.77 157.71 28.06 158.64 26.63 153.39 23.22 152.38 24.77"/><polygon class="cls-1" points="172.76 18.4 167.65 14.85 166.63 16.23 171.8 19.78 172.76 18.4"/><polygon class="cls-1" points="164.42 18.33 159.25 14.85 158.25 16.36 163.51 19.7 164.42 18.33"/><polygon class="cls-1" points="162.77 20.54 157.5 17.27 156.65 18.69 161.89 21.87 162.77 20.54"/><polygon class="cls-1" points="160.03 24.98 165.5 28.76 166.42 27.4 161.09 23.46 160.03 24.98"/><polygon class="cls-1" points="142.13 11.97 136.25 8.77 135.34 10.33 141.43 13.45 142.13 11.97"/><polygon class="cls-1" points="143.91 8.82 137.92 5.68 137.17 7.28 143.13 10.32 143.91 8.82"/><polygon class="cls-1" points="147.01 3.45 141.24 0 140.34 1.55 146.2 4.92 147.01 3.45"/><polygon class="cls-1" points="144.6 8.88 150.49 12.13 151.33 10.58 145.46 7.33 144.6 8.88"/><polygon class="cls-1" points="157.5 11.16 152.21 7.78 151.33 9.24 156.67 12.51 157.5 11.16"/><polygon class="cls-1" points="164.86 34 170.25 37.44 171.32 35.91 165.97 32.39 164.86 34"/><polygon class="cls-1" points="173.06 42.24 178.59 46.33 179.73 44.82 174.28 40.76 173.06 42.24"/><polygon class="cls-1" points="187.95 31.02 182.58 27 181.51 28.34 186.9 32.39 187.95 31.02"/><path class="cls-1" d="M279.59,170.23l-2.77-6.47c-.85-2.07-1.71-4.14-2.58-6.23-2,2.64-4.15,5.54-6.52,8.64.94,2.11,1.85,4.19,2.76,6.28l.6-.8-.53.74s-4.05,5.7-6.35,8.66q-1.44-3.12-2.92-6.29-3.22,4-6.76,8.36c1,2.1,2.07,4.17,3.08,6.24-2.14,2.65-4.39,5.37-6.72,8.14-1.06-2-2.15-4.08-3.25-6.15q-3.39,4-7,8.11,1.71,3,3.39,6c-2.29,2.58-4.63,5.21-7,7.86q-1.74-2.94-3.52-5.93-3.58,3.94-7.33,7.89l3.62,5.75c-1.74,1.83-3.53,3.66-5.34,5.49l-2.08,2.09c-1.23-1.85-2.48-3.7-3.72-5.57q-3.89,3.93-7.73,7.67,1.94,2.7,3.81,5.36c-2.64,2.53-5.27,5-7.86,7.37-1.25-1.67-2.52-3.37-3.81-5.06q3.87-3.69,7.85-7.6c-1.27-1.75-2.54-3.51-3.84-5.28q3.85-3.88,7.76-7.91,1.91,2.76,3.77,5.49c.81-.82,1.63-1.66,2.44-2.5q2.56-2.62,5.06-5.28c-1.2-1.88-2.43-3.77-3.67-5.68q3.78-4,7.43-8.06c1.2,2,2.39,3.9,3.55,5.84q3.67-4,7.15-8c-1.13-2-2.27-4-3.44-6q3.68-4.17,7.14-8.24c1.11,2,2.21,4.06,3.28,6.08q3.58-4.22,6.86-8.26-1.54-3-3.13-6.14c2.41-2.89,4.71-5.7,6.9-8.4q1.51,3.09,3,6.18c2.35-3,4.56-5.82,6.63-8.51q-1.38-3.07-2.8-6.17c2.44-3.08,4.69-6,6.71-8.59-.86-2-1.74-4-2.63-6-2.09,2.6-4.4,5.46-6.9,8.53-.93-2-1.89-4-2.86-6,2.56-3,4.93-5.88,7.08-8.47q-1.33-2.88-2.71-5.76c-2.21,2.57-4.65,5.39-7.27,8.42,1,1.94,2,3.87,2.9,5.81-2.25,2.68-4.65,5.51-7.16,8.46-1-1.94-2-3.89-3.07-5.84,2.57-2.94,5-5.77,7.33-8.43-1-1.92-1.95-3.83-3-5.75l-7.51,8.41q-1.58-2.82-3.21-5.66c-2.5,2.73-5.1,5.56-7.75,8.47,1.15,1.89,2.27,3.78,3.38,5.66l-7.64,8.52c-1.16-1.87-2.34-3.75-3.54-5.62-2.6,2.85-5.22,5.75-7.84,8.65,1.24,1.85,2.47,3.7,3.67,5.55L215.17,179q-1.86-2.72-3.8-5.43c-2.68,3-5.33,5.93-7.92,8.83,1.31,1.76,2.61,3.52,3.88,5.28l-3.07,3.38-4.82,5.37c-1.28-1.69-2.59-3.37-3.92-5.06-2.65,3-5.29,6.08-7.9,9.12,1.33,1.6,2.64,3.21,3.92,4.8-2.67,3-5.32,6-7.91,9-1.28-1.5-2.57-3-3.88-4.51-2.68,3.16-5.3,6.3-7.85,9.36q1.92,2.12,3.8,4.21l-7.94,9.13c-1.21-1.29-2.44-2.59-3.68-3.88-2.74,3.33-5.35,6.53-7.79,9.54l3.53,3.53-7.44,8.67-3.12-3L141.49,257c.29.26,3.17,3,3.17,3l7.47-8.78q1.59,1.52,3.15,3.05l8.11-8.9c1.22,1.25,2.41,2.5,3.59,3.75l-7.81,8.07c-.65-.69-2.83-3-3.08-3.32l-8.27,9,3.36,3.12,7.72-8.1,3.32,3.34c-3.23,3.11-6.1,5.86-8.56,8.19,1.15,1.09,2.27,2.18,3.38,3.27,2.54-2.24,5.48-4.86,8.74-7.81,1.23,1.26,2.44,2.51,3.64,3.77,2.71-2.29,5.62-4.78,8.7-7.47q-1.86-2.06-3.76-4.12,4-3.72,8.41-7.84l3.75,4.34q-4.41,3.93-8.47,7.45l3.8,4.24c-3.11,2.55-8.83,7.08-8.83,7.08l-.05,0c-1.17-1.24-2.35-2.47-3.55-3.72-3.31,2.79-6.3,5.27-8.93,7.42l3.54,3.5,3.47,3.41s3.81,4,8.75,8.88c52.5-19.13,110.32-104.42,110.32-104.42Zm-27.51-13.79q1.56,3,3,6c-2.25,2.72-4.61,5.54-7.07,8.43-1.05-2-2.11-4-3.21-6C247.35,162,249.76,159.16,252.08,156.44Zm-14.56,16.88q-1.67-2.88-3.4-5.78c2.55-2.87,5-5.71,7.48-8.48q1.65,2.92,3.24,5.82c-2.37,2.76-4.82,5.58-7.32,8.45,1.14,2,2.27,3.93,3.36,5.9q-3.54,4.11-7.27,8.33-1.73-2.9-3.51-5.82C232.62,178.91,235.09,176.09,237.52,173.32Zm-14.94,16.82c-1.2-1.86-2.43-3.72-3.67-5.59q3.85-4.26,7.65-8.51,1.8,2.85,3.54,5.7c-2.47,2.78-5,5.6-7.52,8.41,1.23,1.9,2.44,3.79,3.63,5.69-2.48,2.74-5,5.49-7.53,8.21l-3.74-5.54C217.5,195.74,220.05,192.94,222.58,190.14Zm-39.27,41.94c-2.79,2.91-5.5,5.75-8.12,8.47,1.27,1.43,2.54,2.84,3.77,4.25-2.89,2.85-5.67,5.59-8.31,8.17q-1.82-2-3.67-3.9l8.21-8.51c-1.22-1.36-2.46-2.73-3.72-4.09l8-8.8c1.29,1.47,2.55,2.94,3.8,4.41l8-8.44c-1.26-1.57-2.54-3.15-3.85-4.72l7.94-8.69q2,2.51,3.87,5c2.6-2.76,5.23-5.55,7.86-8.37q-1.89-2.61-3.84-5.25l4.26-4.65,3.57-3.89c1.28,1.82,2.54,3.63,3.78,5.45l-4,4.33c-1.24,1.34-2.5,2.67-3.75,4q2,2.69,3.82,5.35-3.93,4.13-7.82,8.14c-1.27-1.7-2.55-3.4-3.86-5.12-2.68,2.85-5.34,5.65-7.95,8.41,1.3,1.62,2.6,3.24,3.86,4.85q-4.11,4.17-8.07,8.14C185.9,235.13,184.61,233.6,183.31,232.08Zm8.29,51.12h0Zm-5.15,1.94c-1.21-1.26-2.42-2.51-3.62-3.77,2.49-1.84,5.32-3.95,8.39-6.35,1.27,1.46,2.57,2.91,3.85,4.37C191.93,281.58,189,283.48,186.45,285.14Zm4-27.13q-1.86-2.22-3.78-4.45,4-3.59,8.25-7.51c-1.27-1.58-2.57-3.17-3.87-4.76,2.63-2.54,5.34-5.16,8.08-7.86q1.93,2.5,3.82,5c-2.73,2.58-5.43,5.1-8.07,7.52,1.33,1.62,2.62,3.25,3.9,4.86Q194.46,254.54,190.42,258Zm12.69,15.59c-1.27-1.62-2.58-3.3-3.86-5,2.42-2,4.95-4.08,7.55-6.3,1.31,1.84,2.6,3.66,3.87,5.43Q206.77,270.88,203.11,273.6ZM218,261.68c-1.21-1.88-2.46-3.86-3.74-5.89,2.29-2.06,4.64-4.2,7-6.43l3.72,6.17C222.65,257.67,220.31,259.72,218,261.68Zm14-12.79c-1.2-2.11-2.4-4.23-3.61-6.38q3.5-3.45,7-7.1c1.14,2.12,2.29,4.31,3.48,6.52C236.62,244.34,234.32,246.65,232,248.89Zm7.07-6.95-.12.11.15-.15Zm7.13-7.94c-1.11-2.3-2.18-4.52-3.26-6.65,2.29-2.51,4.49-5,6.59-7.42l3.12,6.72C250.6,229.06,248.46,231.52,246.23,234Zm13.31-15.54c-1.05-2.31-2.08-4.55-3.06-6.7q3.52-4.29,6.65-8.29c.93,2.22,1.89,4.51,2.9,6.89C264,213,261.82,215.67,259.54,218.46Zm13.08-16.72c-1-2.39-2-4.7-2.91-6.91,2.21-3,4.2-5.71,6-8.25.91,2.25,1.86,4.61,2.86,7C276.75,196.12,274.79,198.83,272.62,201.74Z"/></g><g id="Layer_4" data-name="Layer 4"><path class="cls-1" d="M39.86,355.56A8.48,8.48,0,0,0,38.67,353a8.1,8.1,0,0,0-3.79-3.07,7.63,7.63,0,0,0-2.09-.49,5.57,5.57,0,0,0-1.94.21l-.26,2.74a3,3,0,0,0-1.41-.26,3,3,0,0,0-1.46.5l-5.12,3.43,1.9,2.84,5.15-3.43a2.65,2.65,0,0,1,1.55-.54,2.56,2.56,0,0,1,1.42.54l.33-2.88a2.62,2.62,0,0,1,.85.08,3.83,3.83,0,0,1,.94.35,5,5,0,0,1,.89.61,4.38,4.38,0,0,1,.72.83,3.29,3.29,0,0,1,.64,2.37,3,3,0,0,1-1.49,2L27.89,364l1.9,2.84,7.61-5.09A6.24,6.24,0,0,0,39.14,360a5.12,5.12,0,0,0,.84-2.09A5.67,5.67,0,0,0,39.86,355.56Z"/><path class="cls-1" d="M49.16,368.19a8.47,8.47,0,0,0-1.46-2.67,10.24,10.24,0,0,0-2.85-2.61,13.7,13.7,0,0,0-2.8-1.26l-1.33,2.45a11.09,11.09,0,0,1,2.45,1A7.11,7.11,0,0,1,45.4,367a4,4,0,0,1,.91,3.17,4.9,4.9,0,0,1-2.07,3.11,5.74,5.74,0,0,1-3.72,1.54,3.73,3.73,0,0,1-2.79-1.56q-1.92-2.47.29-4.21l.07,0a.43.43,0,0,1,.68.06l1.39,1.78,2.16-1.68-2.07-2.65a2.67,2.67,0,0,0-1.83-1.19,3.16,3.16,0,0,0-2.09.84l-.35.27a6,6,0,0,0-1.52,1.73,4.75,4.75,0,0,0-.62,2.07,5.7,5.7,0,0,0,.39,2.34,10.11,10.11,0,0,0,1.51,2.57,7.11,7.11,0,0,0,4.75,2.95c1.81.23,3.73-.46,5.77-2.05a9.28,9.28,0,0,0,2.25-2.44,6.52,6.52,0,0,0,.93-2.68A6.25,6.25,0,0,0,49.16,368.19Z"/><path class="cls-1" d="M59.46,380.11a5.18,5.18,0,0,0-1.13-2,8.31,8.31,0,0,0-1.16-1.07,4.06,4.06,0,0,0-1.17-.65l-1.52,2a5.47,5.47,0,0,1,1.43,1.08,2.42,2.42,0,0,1,.58,2.16,5.7,5.7,0,0,1-2,2.85,8,8,0,0,1-1.75,1.23,5.93,5.93,0,0,1-1.7.56,3.93,3.93,0,0,1-1.47-.08,2.22,2.22,0,0,1-1.08-.66l-.2-.21,6.5-10.72-2.26-2.49-8,13.17,1.81,2A6.84,6.84,0,0,0,48.59,389a6.06,6.06,0,0,0,2.6.54A7.28,7.28,0,0,0,54,389a10.51,10.51,0,0,0,2.79-1.84,9.67,9.67,0,0,0,2-2.36,6.77,6.77,0,0,0,.88-2.39A5,5,0,0,0,59.46,380.11Z"/><path class="cls-1" d="M69.92,390a6,6,0,0,0-2.54-1.5A11.52,11.52,0,0,0,64.8,388l1-1.56-2.2-2.12L53.38,395l2.46,2.37,7-7.29a7.16,7.16,0,0,1,2.54.21,4.7,4.7,0,0,1,2.09,1.17A1.71,1.71,0,0,1,68.1,393,3.84,3.84,0,0,1,67,394.82l-6.58,6.85,2.47,2.38,6.69-7a5.71,5.71,0,0,0,1.84-3.78A4.41,4.41,0,0,0,69.92,390Z"/><path class="cls-1" d="M60.19,403.86l-1.65-1.47-1.68,1.89.75.66a.57.57,0,0,1,0,.9L56,407.72l2.32,2.07,2.18-2.46a2.41,2.41,0,0,0,.77-1.79A2.84,2.84,0,0,0,60.19,403.86Z"/><path class="cls-1" d="M82.69,401.51l-6.31,7.65a4.1,4.1,0,0,1-2.24.39,3.66,3.66,0,0,1-2.07-.83,2.43,2.43,0,0,1-1-1.62,2.94,2.94,0,0,1,.86-2.05l6.09-7.38L75.4,395.5,69.23,403a5.47,5.47,0,0,0-1.56,4,5,5,0,0,0,2,3.33,5.53,5.53,0,0,0,1.22.76,5.8,5.8,0,0,0,2.5.54,4.38,4.38,0,0,0,1.07-.12l-.88,1.64L76,415.06l9.38-11.37Z"/><path class="cls-1" d="M99.27,413.56l-5.07,5.3c-.37.37-.8.85-1.3,1.44s-1.11,1.39-1.79,2.34l-.06,0,.75-1.38c.23-.41.42-.8.58-1.15s.32-.69.44-1,.24-.63.37-.92l2.19-6.39L92.76,410l-5.19,4.31c-.25.21-.5.43-.74.66s-.49.48-.77.76-.56.6-.87.95-.64.75-1,1.21l-.07-.05c.66-1,1.17-1.81,1.55-2.5s.68-1.27.9-1.74L89.71,407,87,405.06l-6.32,13.56,3.09,2.14,5.44-4.45c.59-.48,1.17-1,1.75-1.58s1.12-1.16,1.64-1.76l.07,0c-.37.7-.73,1.43-1.07,2.17s-.61,1.47-.86,2.2L88.49,424l3.09,2.13L102,415.46Z"/><path class="cls-1" d="M101,409.35a.53.53,0,0,1-.2-.83l.6-1-2.68-1.67L98,407a3.69,3.69,0,0,0-.55,1.32,2.47,2.47,0,0,0,0,1.12,2.35,2.35,0,0,0,.52.92,4,4,0,0,0,.91.76l6.39,4,1.36-2.19Z"/><path class="cls-1" d="M120.65,425.76l-4.4,8.18a4,4,0,0,1-1.52,1.75,2,2,0,0,1-1.91-.15,3.39,3.39,0,0,1-1.47-1.59,4.52,4.52,0,0,1-.42-2.15l2.55-4.76a4.79,4.79,0,0,0,.61-3.23,5.27,5.27,0,0,0-1.86-2.94l-3.15.19-1.32-2.6a6.14,6.14,0,0,0-2.41-.1,7.11,7.11,0,0,0-2.29.8,9,9,0,0,0-2,1.57,10.48,10.48,0,0,0-1.58,2.19,10.06,10.06,0,0,0-1.14,3.18,6.69,6.69,0,0,0,.09,2.66,5.27,5.27,0,0,0,1.1,2.11,6.64,6.64,0,0,0,1.86,1.5,7.74,7.74,0,0,0,1.55.65,4.21,4.21,0,0,0,1.31.14l.64-2.47a4.14,4.14,0,0,1-1-.18,7.13,7.13,0,0,1-.92-.4,2.87,2.87,0,0,1-.82-.71,2.9,2.9,0,0,1-.5-1.17,4.59,4.59,0,0,1,0-1.6,9,9,0,0,1,2.74-4.5,3.41,3.41,0,0,1,2.25-.79l1.19,2,2.45-.11c.62.51.68,1.24.19,2.16l-4.86,9,2.69,1.45,1.18-1.42a5.74,5.74,0,0,0,.29,1,5.52,5.52,0,0,0,.53,1.06,5.79,5.79,0,0,0,.81,1,4.75,4.75,0,0,0,1.14.84,4.58,4.58,0,0,0,3.85.47,6.21,6.21,0,0,0,3.07-3.12l4.48-8.31Z"/><path class="cls-1" d="M135.3,432l-3.75,9.19a4.24,4.24,0,0,1-2,1,3.79,3.79,0,0,1-2.22-.18,2.4,2.4,0,0,1-1.42-1.26,2.94,2.94,0,0,1,.22-2.21l3.61-8.84-3.16-1.3-3.68,9a5.5,5.5,0,0,0-.3,4.26,5.08,5.08,0,0,0,2.91,2.58,5.3,5.3,0,0,0,1.39.37,5.49,5.49,0,0,0,1.34,0,6.48,6.48,0,0,0,1.21-.24,4.25,4.25,0,0,0,1-.44l-.34,1.82,2.82,1.15,5.58-13.64Z"/><path class="cls-1" d="M148.76,438a5.26,5.26,0,0,0-3.44-2.72,9.24,9.24,0,0,0-3-.46,12.18,12.18,0,0,0-2.76.38l.07,2.6a9.84,9.84,0,0,1,2.25-.32,6.64,6.64,0,0,1,2.35.31q2.25.73,1.37,3.44l-2.93,9,3.26,1.05,2.89-8.9A6,6,0,0,0,148.76,438Z"/><path class="cls-1" d="M163.61,442.29l2.71-2-3.65-.9-1.13.87a5.16,5.16,0,0,0-.94-.53,7.66,7.66,0,0,0-1.14-.39,10.35,10.35,0,0,0-3.74-.29,10,10,0,0,0-2.92.69l.49,2.56a9.84,9.84,0,0,1,2.5-.67,8.17,8.17,0,0,1,2.89.22,3.33,3.33,0,0,1,1.23.56,2.53,2.53,0,0,1,1.08,1.84,3.27,3.27,0,0,1-.07,1.08l-.12.49-2.87-.7a9.4,9.4,0,0,0-5.26-.15,4,4,0,0,0-2.5,3.06,4.72,4.72,0,0,0-.1,2.06,4.21,4.21,0,0,0,.7,1.67,4.54,4.54,0,0,0,1.35,1.22,6.56,6.56,0,0,0,1.88.76,8.51,8.51,0,0,0,1.53.24,5.53,5.53,0,0,0,1.46-.1l.06-2.56a3.73,3.73,0,0,1-1.09.1,6.09,6.09,0,0,1-1-.14,2.2,2.2,0,0,1-1.32-.89,1.88,1.88,0,0,1-.24-1.59,1.63,1.63,0,0,1,1.23-1.34,5.52,5.52,0,0,1,2.4.15l3.12.77-1.54,6.26,3.24.79,2.29-9.3a5.27,5.27,0,0,0-.55-3.84Z"/><path class="cls-1" d="M164.33,433.75l-.52,2.57-1.11-.22.52-2.58-2.35-.48-.49,2.46-6-1.22-.52,2.53,11.77,2.39,1-5Z"/><path class="cls-1" d="M164.81,428l-.87,4.23,3,.61.86-4.23Z"/><path class="cls-1" d="M180.3,447.77a6.61,6.61,0,0,0-1.12-2.61,6.72,6.72,0,0,0-2.09-1.83,8.74,8.74,0,0,0-2.88-1,10,10,0,0,0-3.87,0,13,13,0,0,0-2.91,1l.69,2.7a11.13,11.13,0,0,1,2.47-.95,7.08,7.08,0,0,1,2.95-.09,4,4,0,0,1,2.82,1.7,5,5,0,0,1,.59,3.7,5.71,5.71,0,0,1-1.68,3.65,3.74,3.74,0,0,1-3.1.75q-3.1-.51-2.65-3.28l0-.08c.05-.33.23-.47.55-.41l2.23.35.44-2.7-3.33-.54a2.62,2.62,0,0,0-2.14.38,3.19,3.19,0,0,0-1,2l-.07.44a5.89,5.89,0,0,0,.06,2.3,4.68,4.68,0,0,0,.94,1.94,5.65,5.65,0,0,0,1.89,1.45,10.08,10.08,0,0,0,2.85.86,7.17,7.17,0,0,0,5.49-1.05c1.48-1.06,2.42-2.88,2.83-5.44A9,9,0,0,0,180.3,447.77Z"/><path class="cls-1" d="M193.88,439.89,192.77,454a3.21,3.21,0,0,1-1,2.29,3.5,3.5,0,0,1-4.51-.35,3.23,3.23,0,0,1-.63-2.42l.71-9.11-3.41-.26-.71,9.1a5.53,5.53,0,0,0,1.36,4.57,8.49,8.49,0,0,0,9.55.75,5.53,5.53,0,0,0,2.05-4.29l1.11-14.1Z"/><path class="cls-1" d="M212.18,450.3a5.62,5.62,0,0,0-.48-2.25,4.72,4.72,0,0,0-1.26-1.7,5.74,5.74,0,0,0-2-1.07,7.76,7.76,0,0,0-2.57-.35,10.63,10.63,0,0,0-3.69.68,10.12,10.12,0,0,0-2.64,1.41l1.11,2.35a10.06,10.06,0,0,1,2.26-1.28,7.69,7.69,0,0,1,2.84-.52,2.65,2.65,0,0,1,3.06,2.79v.49l-2.95,0a9.47,9.47,0,0,0-5.12,1.21,4,4,0,0,0-1.64,3.6,5,5,0,0,0,.43,2,4.15,4.15,0,0,0,1.1,1.43,4.76,4.76,0,0,0,1.63.84,6.46,6.46,0,0,0,2,.25,9.24,9.24,0,0,0,1.54-.15,6,6,0,0,0,1.4-.48l-.59-2.49a3.43,3.43,0,0,1-1,.37,5.81,5.81,0,0,1-1,.12,2.25,2.25,0,0,1-1.51-.52,1.87,1.87,0,0,1-.63-1.47,1.62,1.62,0,0,1,.86-1.61,5.24,5.24,0,0,1,2.34-.47l3.22-.06.11,6.45,3.34-.06Z"/><path class="cls-1" d="M229.16,451.34a9.28,9.28,0,0,0-.8-3.21,6.65,6.65,0,0,0-1.72-2.26,6.43,6.43,0,0,0-2.46-1.28,8.64,8.64,0,0,0-3-.26,10.37,10.37,0,0,0-3.75.95,13.31,13.31,0,0,0-2.59,1.66l1.31,2.45a11.5,11.5,0,0,1,2.18-1.51,7.12,7.12,0,0,1,2.84-.8,4.06,4.06,0,0,1,3.16,1,5,5,0,0,1,1.45,3.45,5.83,5.83,0,0,1-.76,3.95,3.7,3.7,0,0,1-2.83,1.46c-2.09.17-3.2-.68-3.36-2.55v-.07c0-.34.12-.51.44-.54l2.25-.19-.22-2.73-3.36.28a2.66,2.66,0,0,0-2,.87,3.24,3.24,0,0,0-.45,2.21l0,.45a6,6,0,0,0,.61,2.21,4.65,4.65,0,0,0,1.39,1.66,5.61,5.61,0,0,0,2.17,1,10.46,10.46,0,0,0,3,.16,7.17,7.17,0,0,0,5.09-2.35C228.88,455.91,229.37,453.93,229.16,451.34Z"/><path class="cls-1" d="M245.35,447.26a6.53,6.53,0,0,0-.85-2.32,5.4,5.4,0,0,0-1.62-1.71,5.9,5.9,0,0,0-2.34-.93,8.24,8.24,0,0,0-3,0,7.82,7.82,0,0,0-3,1.12,6.35,6.35,0,0,0-2,2,7.37,7.37,0,0,0-1,2.69,9.7,9.7,0,0,0,0,3.13,9.27,9.27,0,0,0,1.06,3.19,6.07,6.07,0,0,0,1.74,2,5.32,5.32,0,0,0,2.16,1,6.14,6.14,0,0,0,2.34.05,7.36,7.36,0,0,0,1.62-.43,3.89,3.89,0,0,0,1.12-.69l-1-2.34a3.82,3.82,0,0,1-.92.47,5.18,5.18,0,0,1-1,.24,2.71,2.71,0,0,1-1.09-.05,2.61,2.61,0,0,1-1.1-.62,4.28,4.28,0,0,1-1-1.29,7.39,7.39,0,0,1-.63-2.13,6.05,6.05,0,0,1,.4-3.87,3.45,3.45,0,0,1,2.69-1.85A3.15,3.15,0,0,1,242,447.8l1.47,8.79,3.38-.56Z"/><path class="cls-1" d="M261.57,442.94a6.48,6.48,0,0,0-1-2.21,5.08,5.08,0,0,0-1.68-1.49,5.77,5.77,0,0,0-2.29-.66,8.56,8.56,0,0,0-2.85.29,8.14,8.14,0,0,0-2.4,1,8.43,8.43,0,0,0-1.79,1.54,6.66,6.66,0,0,0-1.14,1.82,5.09,5.09,0,0,0-.44,1.89l2.78,1.19a2.53,2.53,0,0,0-.67,1.18,2.87,2.87,0,0,0,0,1.48l.76,3a.35.35,0,0,1-.27.5l-1.17.31.67,2.59,1.93-.49a3.1,3.1,0,0,0,2-1.32,2.9,2.9,0,0,0,.19-2.25l-.82-3.18a2.62,2.62,0,0,1,0-1.59,2.29,2.29,0,0,1,.94-1.1l-2.89-1.28a3.39,3.39,0,0,1,1-1.54,4.15,4.15,0,0,1,1.92-1.07,3.38,3.38,0,0,1,2.48.17,3.07,3.07,0,0,1,1.42,2.09l2.3,8.86,3.31-.85Z"/><path class="cls-1" d="M262.38,432.12l-6.44,2a.54.54,0,0,1-.76-.4l-.33-1.09-3,.93.38,1.26a3.82,3.82,0,0,0,.64,1.28,2.76,2.76,0,0,0,.87.69,2.5,2.5,0,0,0,1.05.22,4,4,0,0,0,1.16-.2l7.2-2.2Z"/><path class="cls-1" d="M277.9,441l-3-8.53-3.23,1.13,3,8.51a3.27,3.27,0,0,1-.06,2.56,3.55,3.55,0,0,1-2.21,1.72,3.14,3.14,0,0,1-2.06.1,2,2,0,0,1-1.3-1.31,1.89,1.89,0,0,1,.08-1.57,2.43,2.43,0,0,1,1.4-1l1.7-.6-1.15-2.38-1.89.66a2.15,2.15,0,0,1-1.33,0,1.37,1.37,0,0,1-.93-.91,1.16,1.16,0,0,1,.11-1.06,2.14,2.14,0,0,1,1.14-.78,5.1,5.1,0,0,1,.77-.19,5.35,5.35,0,0,1,.91,0l-.53-2.51a5.28,5.28,0,0,0-1.36,0,10,10,0,0,0-1.7.44,5.18,5.18,0,0,0-1.51.83,3.9,3.9,0,0,0-.94,1.12,3.4,3.4,0,0,0-.38,1.32,3.77,3.77,0,0,0,.2,1.4,3.37,3.37,0,0,0,.62,1.07,3.49,3.49,0,0,0,.92.8,4.64,4.64,0,0,0,1.07.47,2.75,2.75,0,0,0,1.06.08,3.1,3.1,0,0,0-1.43,1.69,3.34,3.34,0,0,0,0,2.29,5.14,5.14,0,0,0,1.14,1.91,4.42,4.42,0,0,0,1.7,1.05,5.33,5.33,0,0,0,2.1.23,9.25,9.25,0,0,0,2.41-.52,10.38,10.38,0,0,0,2.91-1.49,5.49,5.49,0,0,0,1.66-1.88,4.74,4.74,0,0,0,.54-2.2A7.33,7.33,0,0,0,277.9,441Z"/><path class="cls-1" d="M281,429.88l-3.14,1.37,5.89,13.5,3.14-1.36Zm5.49-2.4-3.13,1.36,5.9,13.51,3.13-1.37Z"/><path class="cls-1" d="M298.38,430.81l2.84-1.5,3,5.71,3-1.55L302.72,425a5.68,5.68,0,0,0-1.43-1.79,4.8,4.8,0,0,0-1.9-.95,5.53,5.53,0,0,0-2.23-.07,7.81,7.81,0,0,0-2.46.84,10.64,10.64,0,0,0-3,2.26,10.32,10.32,0,0,0-1.73,2.46l2.06,1.59a10,10,0,0,1,1.43-2.16,8.35,8.35,0,0,1,2.32-1.75,3,3,0,0,1,2.38-.35,2.85,2.85,0,0,1,1.59,1.48l.24.44-2.61,1.37a9.32,9.32,0,0,0-4,3.39,3.93,3.93,0,0,0,.15,3.94,4.82,4.82,0,0,0,1.29,1.61,4.09,4.09,0,0,0,1.63.78,4.45,4.45,0,0,0,1.82,0,6.33,6.33,0,0,0,1.91-.67,8.77,8.77,0,0,0,1.3-.83,6.46,6.46,0,0,0,1-1l-1.66-2a3.61,3.61,0,0,1-.75.8,5.87,5.87,0,0,1-.83.54,2.16,2.16,0,0,1-1.58.22,1.94,1.94,0,0,1-1.23-1,1.64,1.64,0,0,1,0-1.83A5.35,5.35,0,0,1,298.38,430.81Z"/><path class="cls-1" d="M309.71,418.67l-2.31,1.39a.52.52,0,0,1-.82-.21l-.53-.88-2.71,1.64.63,1a3.55,3.55,0,0,0,.93,1.09,2.61,2.61,0,0,0,1,.46,2.43,2.43,0,0,0,1.07,0,4.6,4.6,0,0,0,1.08-.47l3-1.8Zm3.67,6.08-2.3,1.39a.53.53,0,0,1-.83-.21l-.53-.87L307,426.69l.63,1a3.76,3.76,0,0,0,.93,1.08,2.65,2.65,0,0,0,1,.46,2.38,2.38,0,0,0,1.06,0,4.49,4.49,0,0,0,1.09-.47l3-1.8Z"/><path class="cls-1" d="M319.59,418l2.66-1.81,3.65,5.31,2.75-1.89-5.42-7.89a4.85,4.85,0,0,0-1.43-1.39,5.19,5.19,0,0,0-1.81-.77l.31-3.34-3.09,2.13-.12,1.41a5.9,5.9,0,0,0-1,.35,7.66,7.66,0,0,0-1.05.59,10.67,10.67,0,0,0-2.7,2.6,10.53,10.53,0,0,0-1.43,2.64l2.24,1.34a9.77,9.77,0,0,1,1.17-2.3,7.78,7.78,0,0,1,2.09-2,3.19,3.19,0,0,1,1.23-.55,2.5,2.5,0,0,1,1.12,0,2.72,2.72,0,0,1,1,.43,3.27,3.27,0,0,1,.76.77l.28.42-2.43,1.67a9.59,9.59,0,0,0-3.61,3.83,4,4,0,0,0,.63,3.91,4.77,4.77,0,0,0,1.47,1.44,4,4,0,0,0,1.71.58,4.57,4.57,0,0,0,1.82-.19,6.16,6.16,0,0,0,1.8-.89,8.63,8.63,0,0,0,1.2-1,5.74,5.74,0,0,0,.91-1.17l-1.87-1.75a3.81,3.81,0,0,1-.66.89,6.19,6.19,0,0,1-.76.63,2.18,2.18,0,0,1-1.55.41,1.89,1.89,0,0,1-1.33-.89,1.59,1.59,0,0,1-.17-1.81A5.36,5.36,0,0,1,319.59,418Z"/><path class="cls-1" d="M338.62,409a3.84,3.84,0,0,0-.78-1.58,4.41,4.41,0,0,0-1.41-1.22,3.68,3.68,0,0,0-1.6-.44,7.34,7.34,0,0,0-1.82.18,18.77,18.77,0,0,0-2.05.63,15.57,15.57,0,0,1-2.34.69,1.33,1.33,0,0,1-1.43-.39,1,1,0,0,1-.08-1.2,4.12,4.12,0,0,1,1.13-1.28,10.11,10.11,0,0,1,1.88-1.21,7.79,7.79,0,0,1,2.11-.68l-.81-2.45a12.23,12.23,0,0,0-2.45.74,10.25,10.25,0,0,0-2.55,1.55,7.6,7.6,0,0,0-1.55,1.62,5.48,5.48,0,0,0-.85,1.76,4,4,0,0,0-.09,1.72,3.19,3.19,0,0,0,.68,1.51,3.78,3.78,0,0,0,1.43,1.17,4.56,4.56,0,0,0,1.63.37,6.33,6.33,0,0,0,1.79-.23c.62-.17,1.25-.37,1.89-.61l1.11-.4a7.19,7.19,0,0,1,1.08-.28,2.52,2.52,0,0,1,.95,0,1.24,1.24,0,0,1,.72.47,1.27,1.27,0,0,1,.17,1.41,4.68,4.68,0,0,1-1.41,1.63,8.53,8.53,0,0,1-1.92,1.14,10,10,0,0,1-2.13.62l1,2.55a8.81,8.81,0,0,0,2.46-.77,12.11,12.11,0,0,0,2.5-1.56,9.21,9.21,0,0,0,1.84-1.87,5.24,5.24,0,0,0,.89-1.85A3.79,3.79,0,0,0,338.62,409Z"/><path class="cls-1" d="M328,395.65l-2.36,2a.33.33,0,0,1-.53-.06l-.35-.43a1.35,1.35,0,0,0-1.08-.55,1.94,1.94,0,0,0-1.18.54L320.39,399l1.75,2.08,1.18-1a.34.34,0,0,1,.54.07l.43.49a1.15,1.15,0,0,0,.9.48,1.4,1.4,0,0,0,1-.37l3.58-3Z"/><path class="cls-1" d="M343.67,395a6,6,0,0,0-3.82-2.16,5.32,5.32,0,0,0-4.07,1.61,9.31,9.31,0,0,0-1.92,2.39,11.68,11.68,0,0,0-1.05,2.58l2.28,1.24a10.13,10.13,0,0,1,.85-2.11,6.66,6.66,0,0,1,1.45-1.87c1.18-1.05,2.4-.88,3.67.53l6.33,7,2.54-2.29Z"/><path class="cls-1" d="M358.64,390.33a7.24,7.24,0,0,0-.8-2.75,10,10,0,0,0-2-2.67,9.78,9.78,0,0,0-2.47-1.81,7,7,0,0,0-2.45-.74,5.06,5.06,0,0,0-2.23.29,5.15,5.15,0,0,0-1.89,1.26,8,8,0,0,0-1,1.21,3.85,3.85,0,0,0-.58,1.22l2.13,1.39a5.09,5.09,0,0,1,1-1.49,2.37,2.37,0,0,1,2.11-.72,5.8,5.8,0,0,1,3,1.83,7.92,7.92,0,0,1,1.33,1.67,5.42,5.42,0,0,1,.66,1.67,3.79,3.79,0,0,1,0,1.46,2.24,2.24,0,0,1-.59,1.13l-.21.21-11.09-5.83-2.36,2.41,13.64,7.13,1.9-1.93a6.64,6.64,0,0,0,1.51-2.31A6,6,0,0,0,358.64,390.33Z"/><path class="cls-1" d="M362.62,379.33l2.08-2.44,4.91,4.19,2.16-2.54-7.28-6.23a5.2,5.2,0,0,0-1.73-1,5.6,5.6,0,0,0-2-.26l-.55-3.32-2.45,2.86.27,1.4a4.94,4.94,0,0,0-.9.61,5.69,5.69,0,0,0-.86.84,10.56,10.56,0,0,0-1.94,3.2,10.72,10.72,0,0,0-.7,2.92l2.51.73a10.08,10.08,0,0,1,.54-2.55,7.86,7.86,0,0,1,1.49-2.47,3.4,3.4,0,0,1,1-.86,2.84,2.84,0,0,1,1.09-.3,2.52,2.52,0,0,1,1.05.17,3.26,3.26,0,0,1,.93.55l.38.33-1.91,2.23a9.45,9.45,0,0,0-2.49,4.64,3.93,3.93,0,0,0,1.61,3.61,4.64,4.64,0,0,0,1.8,1,3.94,3.94,0,0,0,1.8.12,4.58,4.58,0,0,0,1.69-.66,6.53,6.53,0,0,0,1.53-1.33,9.83,9.83,0,0,0,.9-1.26,6.1,6.1,0,0,0,.57-1.36l-2.26-1.2a4.61,4.61,0,0,1-.4,1,7.25,7.25,0,0,1-.57.81,2.23,2.23,0,0,1-1.39.79,1.9,1.9,0,0,1-1.52-.51,1.6,1.6,0,0,1-.64-1.7A5.41,5.41,0,0,1,362.62,379.33Z"/><path class="cls-1" d="M378.66,365.73a4.18,4.18,0,0,0-1.16-1.33,4.7,4.7,0,0,0-1.67-.82,3.81,3.81,0,0,0-1.68,0,6.6,6.6,0,0,0-1.7.64,16.84,16.84,0,0,0-1.84,1.14,18.92,18.92,0,0,1-2.08,1.26,1.28,1.28,0,0,1-1.47,0,1,1,0,0,1-.39-1.13,4.19,4.19,0,0,1,.77-1.54,10.47,10.47,0,0,1,1.51-1.65,7.6,7.6,0,0,1,1.86-1.19l-1.41-2.17a13.26,13.26,0,0,0-2.18,1.35,10.42,10.42,0,0,0-2.07,2.15,8,8,0,0,0-1.09,2,5.46,5.46,0,0,0-.36,1.92A4.05,4.05,0,0,0,364,368a3.17,3.17,0,0,0,1,1.28,3.89,3.89,0,0,0,1.68.77,4.33,4.33,0,0,0,1.68-.07,6.28,6.28,0,0,0,1.67-.67c.55-.32,1.11-.68,1.66-1.07l1-.67a6.51,6.51,0,0,1,1-.56,2.54,2.54,0,0,1,.92-.23,1.23,1.23,0,0,1,.82.27,1.28,1.28,0,0,1,.52,1.32,4.56,4.56,0,0,1-.95,1.93,8.21,8.21,0,0,1-1.57,1.6,10.1,10.1,0,0,1-1.89,1.14l1.6,2.22a9.32,9.32,0,0,0,2.19-1.37,13.17,13.17,0,0,0,2-2.16,9.79,9.79,0,0,0,1.3-2.27,5.3,5.3,0,0,0,.38-2A3.65,3.65,0,0,0,378.66,365.73Z"/><path class="cls-1" d="M386.9,355.83a3.78,3.78,0,0,0-.53-1.67,4.1,4.1,0,0,0-1.24-1.25,4.43,4.43,0,0,0-1.71-.72,3.77,3.77,0,0,0-1.67.09,6.29,6.29,0,0,0-1.67.75,17.83,17.83,0,0,0-1.76,1.23,16.56,16.56,0,0,1-2,1.39,1.32,1.32,0,0,1-1.48.07,1,1,0,0,1-.45-1.11,4.28,4.28,0,0,1,.68-1.57,10.76,10.76,0,0,1,1.4-1.74,7.77,7.77,0,0,1,1.79-1.3l-1.54-2.07a12.81,12.81,0,0,0-2.1,1.46,10.92,10.92,0,0,0-1.93,2.27,8.33,8.33,0,0,0-1,2,5.79,5.79,0,0,0-.25,1.93,4.14,4.14,0,0,0,.46,1.67,3.18,3.18,0,0,0,1.11,1.22,3.73,3.73,0,0,0,1.73.66,4.24,4.24,0,0,0,1.66-.16,6.22,6.22,0,0,0,1.63-.78,18.59,18.59,0,0,0,1.6-1.17l.93-.72a8,8,0,0,1,.94-.62,2.75,2.75,0,0,1,.91-.29,1.36,1.36,0,0,1,1.43,1.51,4.56,4.56,0,0,1-.84,2,8.14,8.14,0,0,1-1.47,1.68,9.78,9.78,0,0,1-1.81,1.26l1.73,2.12a9.49,9.49,0,0,0,2.1-1.5,12.28,12.28,0,0,0,1.88-2.27,9.21,9.21,0,0,0,1.17-2.36A5.32,5.32,0,0,0,386.9,355.83Z"/><path class="cls-1" d="M384.84,338.55a3.28,3.28,0,0,1,2.4.38l8,4.48,1.68-3-8-4.49a5.58,5.58,0,0,0-2.24-.73,5.33,5.33,0,0,0-2.28.23,6.29,6.29,0,0,0-2.11,1.21,8,8,0,0,0-1.78,2.23,8.07,8.07,0,0,0-1,2.67,6,6,0,0,0,.07,2.44,5.2,5.2,0,0,0,1,2.07,5.78,5.78,0,0,0,1.79,1.53l8,4.49,1.68-3-2.92-1.63a2.46,2.46,0,0,1-.72-1.41,3.07,3.07,0,0,1,.49-1.84l.76-1.35-2.48-1.39-.72,1.28a3.31,3.31,0,0,0-.52,1.78,2.52,2.52,0,0,0,.42,1.36L384,344.63a3.28,3.28,0,0,1-1.57-1.86,3.12,3.12,0,0,1,.39-2.55A3.18,3.18,0,0,1,384.84,338.55Z"/><path class="cls-1" d="M380.32,333.78a.81.81,0,0,1-.43-.47.84.84,0,0,1,.07-.58l1.27-2.48L378.82,329l-1.54,3a3.76,3.76,0,0,0-.47,2.7,2.92,2.92,0,0,0,1.6,1.81l1.38.71,1.51-3Z"/><polygon class="cls-1" points="146.19 472.85 134.74 467.55 133.77 469.63 138.29 471.73 132.16 484.94 134.56 486.05 140.68 472.83 145.22 474.94 146.19 472.85"/><path class="cls-1" d="M151,479.29a4.58,4.58,0,0,0-2.39-.22,4.27,4.27,0,0,0-1.48.51l2.42-6.42-2.47-.93-6.25,16.61,2.47.93,2.58-6.88a2.5,2.5,0,0,1,.46-.83,2.81,2.81,0,0,1,3.15-.91,2.15,2.15,0,0,1,1.46,1.54,4.23,4.23,0,0,1-.29,2.37l-2.47,6.55,2.47.93,2.55-6.78a5.44,5.44,0,0,0,.05-4.49A4.23,4.23,0,0,0,151,479.29Z"/><path class="cls-1" d="M161.63,482.83a7.51,7.51,0,0,0-4.14-.09l-.19.06.09,2,.31-.09a5.61,5.61,0,0,1,3,0,2.25,2.25,0,0,1,1.7,1.42,2.84,2.84,0,0,1-.07,1.62c-2.66-.76-4.75-.75-6.2,0a3.84,3.84,0,0,0-1.89,2.4,3.57,3.57,0,0,0,.23,2.67,3.87,3.87,0,0,0,2.44,1.89,4.69,4.69,0,0,0,3.74-.41l-.2,1.18,2.36.69,0-.29a16.14,16.14,0,0,1,.61-2.72l1.24-4.21a5.65,5.65,0,0,0,.07-3.56A4.39,4.39,0,0,0,161.63,482.83Zm-.55,9.13a2.71,2.71,0,0,1-3,1,1.64,1.64,0,0,1-1.19-2.22,1.86,1.86,0,0,1,.93-1.19,3.12,3.12,0,0,1,1.45-.3,9.45,9.45,0,0,1,2.6.45l-.51,1.72A2.15,2.15,0,0,1,161.08,492Z"/><path class="cls-1" d="M171.23,480.88a1.58,1.58,0,0,0-1.21.19,1.55,1.55,0,0,0-.7,1,1.51,1.51,0,0,0,1.13,1.88,1.72,1.72,0,0,0,.44.06,1.53,1.53,0,0,0,.84-.24,1.5,1.5,0,0,0,.65-1,1.61,1.61,0,0,0-.15-1.19A1.56,1.56,0,0,0,171.23,480.88Z"/><rect class="cls-1" x="162.58" y="490.03" width="12.25" height="2.64" transform="translate(-348.46 540.55) rotate(-76.48)"/><path class="cls-1" d="M188.42,492.25c-.93,1.82-1.61,3.25-2.14,4.49-.17-1.36-.42-2.9-.81-4.89l-1.75-8.39-3.08-.41-3.41,16.57,2.5.33,1.41-7.13c.36-1.87.72-3.84,1-5.56.2,1.41.47,3,.85,5l1.63,8.26,1.94.26,4-7.65c.87-1.65,1.62-3.17,2.29-4.6-.21,1.79-.38,3.87-.52,5.62l.25,0h0l-.25,0-.56,7.41,2.54.34,1.2-16.86-3.08-.41Z"/><path class="cls-1" d="M203.53,489.74a5.36,5.36,0,0,0-4.31,1.76,7.3,7.3,0,0,0-1.72,4.59,6.35,6.35,0,0,0,1.42,4.53,6,6,0,0,0,4.35,1.89h.55a9.27,9.27,0,0,0,3.49-.6l.19-.08-.39-2-.28.1a7.25,7.25,0,0,1-3.18.46,3.49,3.49,0,0,1-3.62-3.73l8.21.33,0-.33a5.68,5.68,0,0,0,.1-.91C208.5,493.07,207.29,489.9,203.53,489.74Zm-.25,2a2.48,2.48,0,0,1,1.82.77,3.53,3.53,0,0,1,.76,2.31l-5.69-.24C200.44,493.4,201.34,491.68,203.28,491.77Z"/><path class="cls-1" d="M221.57,498.85l-.46-14.44-2.64.08.21,6.56a4.4,4.4,0,0,0-3.38-1.24,5.19,5.19,0,0,0-3.63,1.66,7,7,0,0,0-1.68,5.08c.12,3.54,2.33,6.06,5.31,6.06h.17a4.76,4.76,0,0,0,3.78-1.93l.12,1.54,2.43-.08,0-.27C221.65,501,221.6,499.59,221.57,498.85Zm-2.76-.94a3,3,0,0,1-2.81,2.45,2.88,2.88,0,0,1-2.44-1.1,5,5,0,0,1-.91-2.89,5.23,5.23,0,0,1,.78-3.12,2.88,2.88,0,0,1,2.35-1.27h.11a2.89,2.89,0,0,1,2.8,2.21,3.32,3.32,0,0,1,.12.82l.07,2A3.22,3.22,0,0,1,218.81,497.91Z"/><rect class="cls-1" x="224.75" y="489.46" width="2.64" height="12.25" transform="translate(-42.72 21.81) rotate(-5.05)"/><path class="cls-1" d="M225.35,488a1.64,1.64,0,0,0,1.16-.57,1.5,1.5,0,0,0,.31-1.13,1.63,1.63,0,0,0-.55-1.1,1.52,1.52,0,0,0-1.14-.33,1.57,1.57,0,0,0-1.1.55,1.64,1.64,0,0,0-.35,1.16,1.6,1.6,0,0,0,.53,1.06,1.51,1.51,0,0,0,1,.37Z"/><path class="cls-1" d="M239.73,497l-.61-4.35c-.32-2.29-1.51-4.9-5.37-4.36a7.6,7.6,0,0,0-3.81,1.63l-.14.12.9,1.79.25-.21a5.51,5.51,0,0,1,2.78-1.23,2.25,2.25,0,0,1,2.13.6,2.83,2.83,0,0,1,.6,1.51c-2.73.4-4.63,1.27-5.63,2.59a3.87,3.87,0,0,0-.73,3,3.57,3.57,0,0,0,3.64,3.11,5.16,5.16,0,0,0,.67-.05,4.74,4.74,0,0,0,3.24-1.92l.3,1.16,2.44-.34-.09-.29A16.38,16.38,0,0,1,239.73,497ZM233,496c.59-.76,1.85-1.28,3.75-1.53l.24,1.78a1.76,1.76,0,0,1,0,.6,2.69,2.69,0,0,1-2.33,2.14,1.65,1.65,0,0,1-2-1.53A1.85,1.85,0,0,1,233,496Z"/><polygon class="cls-1" points="255.49 486.86 249.47 488.31 248.31 483.51 254.82 481.94 254.29 479.73 245.23 481.92 249.2 498.31 251.74 497.7 250 490.5 256.01 489.04 255.49 486.86"/><path class="cls-1" d="M269.29,489.1l-2.65-8.39-2.52.8,2.25,7.11a2.8,2.8,0,0,1,.14,1,2.84,2.84,0,0,1-1.93,2.48c-1.54.49-2.6-.34-3.31-2.61l-2-6.45-2.52.8,2.15,6.79c1.06,3.34,2.92,4.07,4.34,4.07a4.8,4.8,0,0,0,4.41-3l.55,1.4,2.28-.73-.1-.25C270,491.34,269.7,490.39,269.29,489.1Z"/><path class="cls-1" d="M274.93,477.2a4.6,4.6,0,0,0-2.79,3l-.65-1.34-2.22.9.12.24c.4.81.79,1.7,1.27,2.89l3.31,8.18,2.44-1-2.74-6.79a2.86,2.86,0,0,1-.22-.9,2.78,2.78,0,0,1,1.68-2.85,2.17,2.17,0,0,1,2.12.13,4.17,4.17,0,0,1,1.38,1.93l2.64,6.52,2.44-1L281,480.42C279.11,475.78,275.62,476.92,274.93,477.2Z"/><path class="cls-1" d="M296.67,480.55c-.49-.8-1.11-2-1.43-2.66L288.78,465l-2.36,1.18,2.93,5.87a4.45,4.45,0,0,0-3.59.29,5.18,5.18,0,0,0-2.61,3,7,7,0,0,0,.6,5.31,6.81,6.81,0,0,0,3.36,3.34,4.92,4.92,0,0,0,1.94.4,5,5,0,0,0,2.21-.53,4.72,4.72,0,0,0,2.62-3.34l.76,1.36,2.17-1.09Zm-5.86,1a2.86,2.86,0,0,1-2.68,0,5,5,0,0,1-2-2.24,5.22,5.22,0,0,1-.59-3.17,2.84,2.84,0,0,1,1.6-2.13,2.77,2.77,0,0,1,1.3-.32,3,3,0,0,1,2.27,1.1,3.27,3.27,0,0,1,.45.7l.91,1.83a3.48,3.48,0,0,1,.31.81A3,3,0,0,1,290.81,481.59Z"/></g></g></svg>