<svg xmlns="http://www.w3.org/2000/svg" viewBox="0 0 276.12 232.66"><defs><style>.cls-1{fill:#fff;}</style></defs><title>TOA</title><g id="Layer_2" data-name="Layer 2"><g id="Layer_1-2" data-name="Layer 1"><path class="cls-1" d="M276,46.45c0-14.64-13.6-19.1-22.52-21.13C247,23.83,180.06,9.22,151.05,2.89L139.14,0s-.24,0-.67.15c-.46-.11-.7-.15-.7-.15S30,23.41,21.64,25.32c-9,2-21.5,6.7-21.5,21.41v3.09s-.31,126.82,0,136.36c0,14.66,13.58,19.13,22.5,21.13,6.52,1.5,73.42,16.11,102.42,22.44L137,232.66l.67-.16.7.15s107.81-23.42,116.13-25.34c9-2,21.51-6.67,21.51-21.39v-3.1S276.29,56,276,46.45ZM248.16,200.07c-7.91,1.78-110.26,24-110.26,24s-102.66-22.2-110.56-24c-8.48-2-19.8-5.9-19.8-19.85H268.71C268.71,194.17,256.69,198.11,248.16,200.07Zm20.55-31.19H8V63H268.71ZM8,51.39c0-14,11.2-17.86,19.74-19.9l110.57-24,110.23,24c8.55,2,20.57,5.85,20.57,19.9Z"/><polygon class="cls-1" points="19.25 74.59 92.1 74.59 92.1 97.48 67.97 97.48 67.97 157.84 43.44 157.84 43.44 97.48 19.25 97.48 19.25 74.59"/><path class="cls-1" d="M168.65,157.67l31.56-83.08h25l31.89,83.08H232.71l-4.38-13.14h-31.5l-4.63,13.14H168.65m44-57.43-8.95,24.83h17.62Z"/><path class="cls-1" d="M134.21,74.11a42,42,0,1,0,42,41.89,41.94,41.94,0,0,0-42-41.89m0,60.79A18.85,18.85,0,1,1,153.05,116,18.81,18.81,0,0,1,134.21,134.9Z"/></g></g></svg>