<svg xmlns="http://www.w3.org/2000/svg" viewBox="0 0 1034.04 335.79"><defs><style>.cls-1{fill:#fff;}</style></defs><title>trueidintrend</title><g id="Layer_2" data-name="Layer 2"><g id="Layer_1-2" data-name="Layer 1"><rect x="206.31" y="79.29" width="203.54" height="203.54"/><rect x="49.82" y="36.04" width="112.53" height="131.85"/><path id="Path" class="cls-1" d="M646.68,149.33a45.06,45.06,0,0,1,8.2.65v40.81H644.24c-18,0-27.5,8.73-27.5,29.68v43.2H570.62V151h45.25v22.26C619.85,157.34,630.05,149.33,646.68,149.33Z"/><path class="cls-1" d="M542.2,119.23H498.69V153H486.36a179,179,0,0,1,2.28,28.41v2h10.07v45.67c0,24.43,13,34.62,45.4,34.62a159.53,159.53,0,0,0,18.41-1.06V229.9h-8c-7.74,0-12.35-.64-12.35-9.77V183.38H564.6V153H542.19Z"/><path id="Shape" class="cls-1" d="M781.26,205.23a99.16,99.16,0,0,1-.88,12.29H697.71c.66,9.95,7.44,16.72,21.76,16.72,7.7,0,13.21-1.91,16.28-6h42.66c-6.82,22.93-29.69,35.4-59.81,35.4-39.58,0-63.72-21.37-63.72-56.74,0-34.52,24.19-57.61,63.55-57.61C755.54,149.32,781.26,169.86,781.26,205.23Zm-44-10.59c-1.09-10.75-7.7-16.1-19.58-16.1-11.43,0-17.58,5.09-19.34,16.1Z"/><path class="cls-1" d="M1034,119.23V267.05H990.18V250c-6.52,12-17.6,19.69-34.53,19.69-29.76,0-48-23.73-48-59.89s18.24-59.89,48-59.89c15.84,0,26.48,6.88,33.22,17.53V119.23ZM990.83,211c0-15.72-6.52-24-18.9-24s-19.11,8.3-19.11,24,6.73,23.8,19.11,23.8S990.83,226.69,990.83,211Z"/><path class="cls-1" d="M864.57,149.32c-14.32,0-26.32,5.19-33.7,18.85h-.63V151.92h-43V263.67h43.81V202c0-10.84,7.12-15,14.32-15,8.63,0,12.42,5.85,12.42,14.73v61.93h43.8v-69.3C901.63,162.1,886.9,149.32,864.57,149.32Z"/><path class="cls-1" d="M140.21,56.39a5.39,5.39,0,0,0-5.65,4.85h11.33a5.36,5.36,0,0,0-5.68-4.85Z"/><path class="cls-1" d="M427.24,333.47c-12.06-6.64-27.6-15.12-29.62-25.58A152.8,152.8,0,1,0,200.76,75.6a102.11,102.11,0,1,0-44,112.68A152.85,152.85,0,0,0,364.33,325.64C394.35,338.7,432.74,336.46,427.24,333.47Zm-287-284c9.09,0,13.94,7,13.94,16v1.88H134.6a5.37,5.37,0,0,0,5.61,4.85,5.81,5.81,0,0,0,4.85-2.43l7.88,2a14.39,14.39,0,0,1-12.63,7.54c-8.42-.16-14.06-5.66-14.06-15C126.25,55.71,132.46,49.45,140.21,49.45ZM98.16,50h4.51a4.06,4.06,0,0,1,4.17,4.06V67.23a4.51,4.51,0,1,0,9,0V50h8.64V66.1c0,7.27-3.94,13.19-13.16,13.19S98.16,73.39,98.16,66.1ZM53.61,50h4.07V42.73h8.63V50h9.62v3.64a4.13,4.13,0,0,1-4,4.14H66.31v9.1a4.5,4.5,0,0,0,4.51,4.49h5.11v7.57h-5.1c-7.28,0-13.15-4.63-13.15-11.89V57.8H53.61Zm21.53,73.52h0a14.28,14.28,0,0,1,6.78,12.12v11.13a14.32,14.32,0,0,1-28.62,0V135.72a14.3,14.3,0,0,1,6.82-12.12h0a5.41,5.41,0,0,0-.16-9.29,14.3,14.3,0,1,1,15.22,0,5.42,5.42,0,0,0,0,9.26ZM86.58,62.39V78.88H78v-17a12,12,0,0,1,12-12h6.22v7.89H91.07a4.49,4.49,0,0,0-4.49,4.56Zm33.2,98H89V136.73a8.74,8.74,0,0,1,16.44-4.11h0a16.51,16.51,0,1,0,0-16.34h0A8.74,8.74,0,0,1,89,112.17V88.42h30.88a36,36,0,1,1-.08,71.94ZM268.09,264.73h-49.5V151.8h49.5ZM243.83,139a28,28,0,1,0-.06,0ZM360.38,264.73V202.14c0-9-4.28-14.88-14-14.88-8.09,0-16.19,4.16-16.19,15.1v62.37H280.67V151.8h48.52v16.42h.72c8.32-13.79,21.84-19,38.07-19,25.22,0,41.88,12.91,41.88,45.53v70Z"/></g></g></svg>