<svg xmlns="http://www.w3.org/2000/svg" viewBox="0 0 1033.98 335.9"><defs><style>.cls-1{fill:#fff;}</style></defs><title>Asset 1</title><g id="Layer_2" data-name="Layer 2"><g id="Layer_1-2" data-name="Layer 1"><path d="M409.83,79.38H206.29V282.92H409.83Z"/><path d="M162.33,36.13H49.8V168H162.33Z"/><path class="cls-1" d="M646.66,149.42a45.9,45.9,0,0,1,8.2.65v40.81H644.22c-18,0-27.5,8.73-27.5,29.68v43.2H570.6V151.09h45.25v22.26C619.83,157.43,630,149.42,646.66,149.42Z"/><path class="cls-1" d="M542.18,119.32H498.67v33.77H486.34a178,178,0,0,1,2.28,28.41v2h10.07v45.67c0,24.43,13,34.62,45.4,34.62a157.2,157.2,0,0,0,18.41-1.06V230h-8c-7.74,0-12.35-.64-12.35-9.77V183.47h22.43V153.09H542.17Z"/><path class="cls-1" d="M781.24,205.32a97,97,0,0,1-.88,12.29H697.69c.66,9.95,7.44,16.72,21.76,16.72,7.7,0,13.21-1.91,16.28-6h42.66c-6.82,22.93-29.69,35.4-59.81,35.4-39.58,0-63.72-21.37-63.72-56.74,0-34.52,24.19-57.61,63.55-57.61C755.52,149.41,781.24,170,781.24,205.32Zm-44-10.59c-1.09-10.75-7.7-16.1-19.58-16.1-11.43,0-17.58,5.09-19.34,16.1Z"/><path class="cls-1" d="M1034,119.32V267.14H990.16v-17c-6.52,12-17.6,19.69-34.53,19.69-29.76,0-48-23.73-48-59.89s18.24-59.89,48-59.89c15.84,0,26.48,6.88,33.22,17.53V119.32Zm-43.17,91.77c0-15.72-6.52-24-18.9-24s-19.11,8.3-19.11,24,6.73,23.8,19.11,23.8S990.81,226.78,990.81,211.09Z"/><path class="cls-1" d="M864.55,149.41c-14.32,0-26.32,5.19-33.7,18.85h-.63V152h-43V263.76H831V202.09c0-10.84,7.12-15,14.32-15,8.63,0,12.42,5.85,12.42,14.73v61.93h43.8v-69.3C901.61,162.19,886.88,149.41,864.55,149.41Z"/><path class="cls-1" d="M140.19,56.48a5.42,5.42,0,0,0-5.65,4.85h11.33a5.36,5.36,0,0,0-5.68-4.85Z"/><path class="cls-1" d="M427.22,333.56c-12.06-6.64-27.6-15.12-29.62-25.58A152.8,152.8,0,1,0,200.74,75.69a102.11,102.11,0,1,0-44,112.68A152.85,152.85,0,0,0,364.31,325.73C394.33,338.79,432.72,336.55,427.22,333.56Zm-287-284c9.09,0,13.94,7,13.94,16v1.88H134.58A5.37,5.37,0,0,0,136.42,71a5.3,5.3,0,0,0,3.77,1.3,5.84,5.84,0,0,0,2.73-.61A5.73,5.73,0,0,0,145,69.86l7.88,2a14.34,14.34,0,0,1-12.63,7.54c-8.42-.16-14.06-5.66-14.06-15,0-8.6,6.21-14.86,14-14.86Zm-42.08.53h4.51a4.07,4.07,0,0,1,1.59.28,4.22,4.22,0,0,1,1.36.87,4.06,4.06,0,0,1,.9,1.34,3.84,3.84,0,0,1,.32,1.57V67.32A4.6,4.6,0,0,0,108,70.71a4.38,4.38,0,0,0,1.5,1.05,4.54,4.54,0,0,0,3.59,0,4.38,4.38,0,0,0,1.5-1.05,4.69,4.69,0,0,0,.95-1.57,4.33,4.33,0,0,0,.25-1.82V50.09h8.64v16.1c0,7.27-3.94,13.19-13.16,13.19s-13.16-5.9-13.16-13.19Zm-44.55,0h4.07V42.82h8.63v7.27h9.62v3.64a4.12,4.12,0,0,1-4,4.14H66.29V67a4.65,4.65,0,0,0,.35,1.73,4.58,4.58,0,0,0,2.44,2.43,4.42,4.42,0,0,0,1.72.33h5.11V79h-5.1c-7.28,0-13.15-4.63-13.15-11.89V57.89H53.59Zm21.53,73.52a14.23,14.23,0,0,1,6.78,12.12v11.13a14.32,14.32,0,0,1-28.62,0V135.81a14.33,14.33,0,0,1,6.82-12.12A5.38,5.38,0,0,0,62.66,119a5.28,5.28,0,0,0-.75-2.65,5.42,5.42,0,0,0-2-1.95,14.3,14.3,0,1,1,15.22,0,5.46,5.46,0,0,0-1.9,2,5.42,5.42,0,0,0,1.9,7.28ZM86.56,62.48V79H78V62A12,12,0,0,1,90,50H96.2v7.89H91.05a4.49,4.49,0,0,0-1.73.35,4.59,4.59,0,0,0-1.47,1,4.66,4.66,0,0,0-1,1.48,4.38,4.38,0,0,0-.33,1.74Zm33.2,98H89V136.82a8.74,8.74,0,0,1,16.44-4.11,16.5,16.5,0,1,0,0-16.34,8.74,8.74,0,0,1-9.82,4.35A8.74,8.74,0,0,1,89,112.26V88.51h30.88a36,36,0,1,1-.08,71.94ZM268.07,264.82h-49.5V151.89h49.5ZM243.81,139.09a28,28,0,1,0-.06,0ZM360.36,264.82V202.23c0-9-4.28-14.88-14-14.88-8.09,0-16.19,4.16-16.19,15.1v62.37H280.65V151.89h48.52v16.42h.72c8.32-13.79,21.84-19,38.07-19,25.22,0,41.88,12.91,41.88,45.53v70Z"/><circle cx="243.98" cy="111.09" r="28"/></g></g></svg>