<?xml version="1.0" encoding="utf-8"?>
<!-- Generator: Adobe Illustrator 23.0.4, SVG Export Plug-In . SVG Version: 6.00 Build 0)  -->
<svg version="1.1" id="Layer_1" xmlns="http://www.w3.org/2000/svg" xmlns:xlink="http://www.w3.org/1999/xlink" x="0px" y="0px"
	 viewBox="0 0 429.7 76.4" style="enable-background:new 0 0 429.7 76.4;" xml:space="preserve">
<style type="text/css">
	.st0{fill:#FFFFFF;}
</style>
<title>MangoZero</title>
<g>
	<g id="Layer_1-2">
		<path class="st0" d="M333.5,10.9c3.6-0.1,7.2,0.9,10.1,3c2.8,2.1,4.9,4.9,6.2,8.1c1.4,3.6,2.1,7.5,2.1,11.4v4.2h-25.2
			c1.2,5,4.6,7.6,10.4,7.6c3.9-0.1,7.8-1.2,11.1-3.4l3.6,9.7c-2,1.6-4.3,2.8-6.8,3.6c-2.8,0.9-5.8,1.4-8.8,1.3c-7.2,0-12.8-2-17-6
			c-4.2-4-6.2-9.5-6.1-16.5c-0.1-4.2,0.8-8.4,2.6-12.1c1.6-3.3,4.1-6.1,7.2-8C326.1,11.8,329.7,10.9,333.5,10.9z M333.1,22.4
			c-1.7,0-3.4,0.7-4.5,2c-1.3,1.5-2,3.3-2.1,5.3h13.3c-0.2-1.9-1-3.8-2.1-5.3C336.5,23.1,334.9,22.3,333.1,22.4z"/>
		<path class="st0" d="M378.5,24.1l3.6-13.3l0,0c-2.5,0.1-4.9,0.8-7.1,2c-2.5,1.3-4.8,2.8-6.9,4.6l-3.8-6.5h-6.8v45.5h13.4V29.1
			c2.1-2,4.4-3.6,7-4.8L378.5,24.1z"/>
		<polygon class="st0" points="282.7,10.8 313.8,10.8 311.4,19.1 292.7,44.8 311.5,44.8 308.4,56.4 274.1,56.4 276.1,48.7 
			294.9,22.6 279.5,22.6 		"/>
		<path class="st0" d="M408,7.5c-1.3-0.4-12-3.5-18.8,7.8c-4.2,7.1-4.1,13.4-4,18.4c0,1,0,1.9,0,2.8c0,3.5-0.7,6.9-2.1,10.1
			c-0.9,1.9-3.1,6.8,1.8,9.4c1.4,0.7,2.9,1,4.5,1c2.7-0.1,5.4-0.7,7.8-1.8c5.5-2.2,16.7-10.5,20.2-26.1c2.1-9.2-0.5-14.6-3.1-17.5
			C412.7,9.7,410.5,8.3,408,7.5z M412,28c-3.1,13.6-13.1,20.4-16.7,21.9c-2.6,1.1-5.8,2.2-7.2,1.4c-0.1,0-0.1-0.1-0.1-0.1
			c-0.1-0.2-0.2-0.7,0.5-2.4c1.7-3.9,2.6-8.1,2.5-12.4c0-1,0-2,0-3c-0.1-4.5-0.2-9.6,3.2-15.3c2.7-4.6,6.4-5.6,9.1-5.6
			c1,0,2,0.1,2.9,0.4h0.2c1.5,0.5,2.8,1.4,3.9,2.6C412.6,18.5,413.2,22.6,412,28z"/>
		<path class="st0" d="M414,2.2c-0.5-0.8-1-1.6-1.7-2.2c-2.1,1.7-3.7,4.1-4.4,6.7c0.6,0.2,1.3,0.4,1.8,0.7
			C410.7,5.3,412.2,3.6,414,2.2z"/>
		<path class="st0" d="M418.1,2.3c-5.6,1.4-7,5.7-7,5.7c1.4,0.1,2.8,0.3,4.1,0.9c2.9,1.1,6.1,1,8.9-0.2c2.6-0.9,4.7-3,5.7-5.7
			C424.7,3.4,423.7,0.9,418.1,2.3z"/>
		<path class="st0" d="M73.6,26.1l-7.8,29.2h-13l7.3-27.3c0.6-1.7,0.7-3.5,0.4-5.2c-0.3-1.2-1.3-1.8-3.1-1.8c-1.5,0.1-2.9,0.4-4.2,1
			c-1.6,0.7-3.5,1.6-5.6,2.8l-0.3,1.2l-7.8,29.2h-13l7.3-27.3c0.6-1.7,0.7-3.5,0.4-5.2c-0.3-1.2-1.3-1.8-3.1-1.8
			c-1.5,0.1-2.9,0.4-4.2,1c-1.9,0.8-3.8,1.8-5.6,2.8l-8.1,30.4H0l11.9-44.5H20l1,4.7c2.8-1.8,5.9-3.3,9-4.5c2.6-1,5.3-1.6,8.1-1.7
			c5.5,0,8.8,1.9,9.9,5.8c2.7-1.7,5.6-3.1,8.6-4.2c2.5-1,5.2-1.5,7.8-1.6c4.8,0,7.9,1.5,9.3,4.4S75.1,20.7,73.6,26.1z"/>
		<path class="st0" d="M98.1,21.7c-1.9,0-3.9,0.3-5.7,0.8c-2.1,0.5-4.1,1.2-6,2l-0.6-11c2.7-1.3,5.5-2.3,8.4-2.9
			c2.9-0.8,6-1.2,9-1.2c3-0.1,5.9,0.7,8.4,2.2c2.2,1.4,3.8,3.7,4.4,6.2c0.7,3,0.6,6.2-0.3,9.1l-7.6,28.4h-7.3L99,50.6
			c-4,3.8-7.8,5.7-11.5,5.7c-4.9,0-8.2-1.3-10-4c-1.8-2.7-2-6.3-0.8-10.9c0.9-4.1,3.4-7.8,6.9-10.2c3.7-2.4,8-3.5,12.3-3.4h6.3
			c0.4-2,0.3-3.5-0.5-4.5C100.9,22.2,99.5,21.6,98.1,21.7z M93.7,36.5c-1.4,0-2.7,0.5-3.7,1.4c-1.1,0.9-1.9,2.1-2.2,3.5
			c-0.3,0.9-0.3,2,0.2,2.8c0.6,0.8,1.5,1.3,2.5,1.2c2.4,0,5.1-1.2,8-3.5l1.5-5.4H93.7z"/>
		<path class="st0" d="M148.2,21.1c-2.3,0-5.9,1.3-10.6,3.9l-8.1,30.4h-13.1l11.9-44.5h8.1l1,4.7c2.9-1.8,6-3.3,9.2-4.5
			c2.7-1.1,5.7-1.6,8.6-1.7c5,0,8.2,1.6,9.6,4.7s1.4,7.5-0.1,13l-7.6,28.4h-13.1l7.3-27.3c0.6-1.6,0.6-3.4,0.1-5.1
			C151,21.7,149.6,20.9,148.2,21.1z"/>
		<path class="st0" d="M203.7,57.1c-1,3.8-2.9,7.3-5.5,10.3c-2.6,2.9-5.9,5.2-9.5,6.7c-3.8,1.6-7.9,2.4-12.1,2.3
			c-2.9-0.1-5.7-0.6-8.5-1.4c-2.8-0.6-5.5-1.9-7.8-3.8l6.6-10.1c3.5,2.4,7.7,3.6,11.9,3.7c2.7,0.1,5.3-0.7,7.5-2.2
			c2.1-1.3,3.5-3.4,4.2-5.7l0.7-2.5c-2.5,1.1-5.2,1.8-7.9,1.8c-6.3,0-10.8-2-13.4-6.1c-2.6-4-3-9.8-1-17.2c2-7.4,5.4-13.2,10.3-17.4
			c4.7-4.1,10.8-6.4,17.1-6.3c1.9,0,3.7,0.4,5.4,1.2c1.7,0.8,3.3,2,4.5,3.5l3.1-3.3h6.7L203.7,57.1z M194.6,42.3l5.1-19
			c-1.5-1.5-3.6-2.3-5.7-2.3c-2.6,0.1-5.1,1.3-6.8,3.3c-2.2,2.5-3.8,5.5-4.6,8.7c-1,3.7-1,6.6-0.1,8.7c0.9,2.1,2.7,3.2,5.4,3.2
			C189.7,44.9,191.9,44,194.6,42.3z"/>
		<path class="st0" d="M232.9,56.3c-3.8,0.1-7.6-0.8-10.9-2.7c-2.9-1.8-4.9-4.7-5.7-8c-0.9-3.5-0.7-7.8,0.7-12.7
			c1.2-4.6,3.3-8.8,6.2-12.5c2.7-3.4,6.2-6.2,10.1-8.2c3.8-1.9,8.1-2.9,12.3-2.9c3.8-0.2,7.6,0.8,10.9,2.8c2.9,1.9,4.9,4.8,5.7,8.1
			c0.9,3.5,0.7,7.8-0.6,12.8c-1.2,4.5-3.3,8.8-6.2,12.4c-2.7,3.4-6.2,6.1-10.1,8C241.4,55.4,237.2,56.3,232.9,56.3z M248,33.1
			c0.9-3.4,0.9-6.2-0.1-8.4c-0.9-2.2-3.1-3.5-5.4-3.3c-2.8,0-5.4,1.2-7.4,3.2c-2.3,2.3-3.9,5.2-4.7,8.4c-0.9,3.5-0.9,6.3,0.1,8.4
			c1,2.1,2.9,3.2,5.5,3.2c2.7,0,5.4-1.2,7.3-3.1C245.6,39.1,247.2,36.2,248,33.1z"/>
	</g>
</g>
</svg>
