<svg xmlns="http://www.w3.org/2000/svg" viewBox="0 0 294.17 167.06"><defs><style>.cls-1{fill:#fff;}</style></defs><title>pantip</title><g id="Layer_2" data-name="Layer 2"><g id="Layer_1-2" data-name="Layer 1"><g id="pantip"><path class="cls-1" d="M96.21,29.77a1.4,1.4,0,0,1-1-.41,5.43,5.43,0,0,0-4-1.86,5.21,5.21,0,0,0-3.33,1.75,1.45,1.45,0,0,1-2,.19,1.43,1.43,0,0,1-.2-2,7.42,7.42,0,0,1,11.52-.12,1.43,1.43,0,0,1-1,2.46"/><path class="cls-1" d="M52.26,77.12a3.61,3.61,0,0,1-2.11-.68,42.25,42.25,0,1,1,66.77-39.08l2.9-.06h.1l2.92,0a42.24,42.24,0,1,1,66.76,39.1,3.59,3.59,0,1,1-4.21-5.81A35.07,35.07,0,1,0,130.05,37.5c3.57.09,7.74.22,11.95.4,23.72,1,25.3,2.61,26.57,3.88,1.11,1.11,2.28,3.25,1.52,7.16-1.28,6.69-7.44,15.92-14.55,19a23.43,23.43,0,0,1-30.47-11.62l-.11,0a42,42,0,0,1-2.34-11.81l-2.73,0-2.76,0a42,42,0,0,1-2.34,11.8l-.11,0A23.4,23.4,0,0,1,84.22,67.91c-7.67-3.29-13.34-13.25-14.47-19.18-.59-3.07-.11-5.41,1.44-6.95,1.25-1.26,2.67-2.68,26.46-3.78,4.25-.2,8.46-.34,12.06-.45A35.07,35.07,0,1,0,54.37,70.63a3.59,3.59,0,0,1-2.11,6.49M76.68,47c.41,3.38,5,12,10.36,14.33a16.23,16.23,0,0,0,21.35-8.52h0a34.28,34.28,0,0,0,1.52-8.1C95.18,45.14,81.05,46,76.68,47m54.68,5.81a16.27,16.27,0,0,0,21.34,8.52C158.34,58.9,163,50.14,163.19,47c-4.14-1.09-18.44-1.94-33.38-2.31a34.62,34.62,0,0,0,1.54,8.15Z"/><path class="cls-1" d="M153,29.77a1.43,1.43,0,0,1-1.11-.52,5.29,5.29,0,0,0-3.34-1.75,5.4,5.4,0,0,0-4,1.86,1.43,1.43,0,1,1-2-2.05,8.08,8.08,0,0,1,6.16-2.67,8.17,8.17,0,0,1,5.37,2.79,1.44,1.44,0,0,1-.21,2,1.46,1.46,0,0,1-.9.32"/><path class="cls-1" d="M0,84.94c0-2.71,0-5.81.1-8.42,7.22-.2,16-.3,24.35-.3,4.51,0,9.12,0,14.73,1.71,8.11,2.6,13.43,10.82,13.43,19.33,0,7.92-5.12,15.23-11.83,18.64-4.61,2.31-11.62,3.1-14,3.1-1.3,0-4,0-4.71-.09L22,132.83l9.11.3c0,2.61,0,5.62-.1,8.32-5,0-11.92-.1-18-.1-4.31,0-8.92.1-12.83.1,0-2.7.1-5.71.2-8.32l4.71-.3a.37.37,0,0,0,.4-.4V85.14Zm22,24.55c0,1,1.81,1,3.51,1a10,10,0,0,0,6.81-2.6c2.11-2.11,3.31-5.72,3.31-10.13,0-7.41-4.51-13.42-10.22-13.42a10.88,10.88,0,0,0-3.21.3Z"/><path class="cls-1" d="M81.86,138c-6,3-10.82,4.41-14.63,4.41-5.2,0-12.92-5.31-12.92-11.72,0-5.51,6.61-15.13,22.54-15.13h4.81c.3-4.91-1.6-7.92-6.11-7.92-3.31,0-8.62,2.91-12.63,5.61a77,77,0,0,1-5.21-7.11c7.22-5.91,14.63-9.92,24.25-9.92,7.71,0,15.33,6.51,15.33,15,0,6.61-.1,16.13-.2,20.44,0,.6,0,.8.5.7l5.31-.2c0,2.61.1,5.61,0,8.21-1.6.61-8.72,2-16.73,2A40.49,40.49,0,0,1,82.36,138Zm-7-5.21a14,14,0,0,0,6.71-2.2.85.85,0,0,0,.2-.6v-6.92a15.63,15.63,0,0,0-2.1-.09c-6.62,0-9.42,2.8-9.42,6,0,2.3,2.61,3.8,4.61,3.8"/><path class="cls-1" d="M106.71,107.48c0-2.7.1-5.71.1-8.21,5-.3,19.74-2.91,20.34-2.91.2,0,.2.1.2.3.5,2.1.9,4.11,1.4,6.21l.5.11c9.72-5.92,11.93-6.72,16.54-6.72,4.3,0,8.41,3.91,10.41,7.21a16.46,16.46,0,0,1,2.31,8.92c0,5.71-.2,14-.4,20.44l5,.3c0,2.61,0,5.61-.1,8.22H150.09c-4.3,0-9,.1-12.52.1,0-2.61.1-5.61.1-8.22l4-.3a.43.43,0,0,0,.4-.4c.1-4.11,0-9.72,0-13.53,0-4.7,0-7.11-.8-8.61a3.75,3.75,0,0,0-3.81-2.2c-2.21,0-5.61,1.6-8,3.5-.09,5.91-.3,15.43-.3,21.14l4.31.3c0,2.71,0,5.61-.1,8.22H120.83c-4.1,0-9.31.1-13.22.1,0-2.61.1-5.61.1-8.22l4.91-.3a.37.37,0,0,0,.4-.4V107.68Z"/><path class="cls-1" d="M177.15,139.45a9,9,0,0,1-3.51-7.92c0-5.61.1-10.42.1-11.62,0-2.11.1-12.23.1-13.12h-7c0-2.81.11-5.72.31-8.52,2-.11,4.5-.41,6.51-.51a.77.77,0,0,0,.7-.8c.2-2.7.5-5.91.7-8.31A109.19,109.19,0,0,1,190,83.24c.2,0,.31.09.31.39-.11,2.21-.21,11.32-.31,14,5.11,0,10.72-.1,15.43-.1,0,2.91-.1,6.42-.4,9.42-4.21,0-10.42-.1-15-.1v8.32c-.1,4.1-.1,7.71-.1,12.22a4.57,4.57,0,0,0,4.61,4.51,44.24,44.24,0,0,0,10.92-1.5c.5,2.7.9,5.81,1.21,8.41a59.67,59.67,0,0,1-21.75,3.61,10.83,10.83,0,0,1-7.71-3"/><path class="cls-1" d="M210,107.58c0-2.8.1-5.9.2-8.61,5.41-.4,21.64-2.71,22.45-2.71.2,0,.2.1.2.3-.1,10.92-.3,26.25-.3,36.27l5.51.3v8.22H224.24c-4.31,0-9.62.1-13.63.1,0-2.61,0-5.61.11-8.22l5.3-.3a.37.37,0,0,0,.41-.4V107.78Zm22.45-26.15a9,9,0,0,1-18,.2c0-4.2,3.71-8.31,9.22-8.31,5.81,0,8.82,4,8.82,8.11"/><path class="cls-1" d="M263.52,102.07c10.11-5.41,11.21-5.81,15.43-5.81,8.31,0,15.33,9.42,15.22,19.84a33.4,33.4,0,0,1-3.1,13.43,25,25,0,0,1-7.62,9.72,20.91,20.91,0,0,1-10.72,3.2,23.2,23.2,0,0,1-8.82-1.4l-.69.2c.09,5,.09,10.12.09,15.23l8.12.3c0,2.71,0,5.61-.1,8.22-4.81,0-10.82,0-16.13.1-4,0-9.22,0-13.23.1,0-2.61,0-5.51.1-8.22l4.81-.4c.3,0,.4-.2.4-.5l.1-48.4-6.31-.1c0-2.7.1-5.6.2-8.21,4.71-.61,19.84-3.21,20.34-3.21.2,0,.2.1.2.2.4,1.91.7,3.71,1.1,5.62Zm11.92,8.42c-.8-1.2-2-2.6-3.91-2.6a16.34,16.34,0,0,0-7.81,2.8c-.11,5.61-.2,13.63-.2,19.24,0,2,4,3.5,6.11,3.5a6,6,0,0,0,5.1-2.6c1.41-2.1,2.31-5.71,2.31-11,0-4.61-.6-7.82-1.6-9.32"/><polygon class="cls-1" points="3.07 149.75 5.75 149.75 5.75 162.18 11.78 162.18 11.78 164.43 3.07 164.43 3.07 149.75"/><path class="cls-1" d="M17.18,159.88c.06,1.91,1.54,2.74,3.27,2.74a8.29,8.29,0,0,0,2.93-.48l.4,1.83a9.58,9.58,0,0,1-3.7.68c-3.45,0-5.47-2.12-5.47-5.36,0-2.94,1.79-5.71,5.18-5.71s4.58,2.83,4.58,5.16a7.14,7.14,0,0,1-.09,1.14ZM21.84,158a2.28,2.28,0,0,0-2.2-2.59A2.62,2.62,0,0,0,17.18,158Z"/><path class="cls-1" d="M36.61,161.88a14.47,14.47,0,0,0,.17,2.55H34.36l-.19-1.18H34.1A3.86,3.86,0,0,1,31,164.66a3.15,3.15,0,0,1-3.34-3.15c0-2.66,2.38-4,6.3-4v-.17c0-.7-.29-1.85-2.16-1.85a5.6,5.6,0,0,0-2.85.78l-.52-1.74a7.59,7.59,0,0,1,3.83-.94c3.4,0,4.38,2.16,4.38,4.49ZM34,159.24c-1.89,0-3.7.37-3.7,2a1.41,1.41,0,0,0,1.52,1.53,2.21,2.21,0,0,0,2.12-1.45,2,2,0,0,0,.06-.59Z"/><path class="cls-1" d="M41.27,157.24c0-1.44,0-2.48-.09-3.42h2.31l.11,2h.07a3.16,3.16,0,0,1,2.91-2.24,3,3,0,0,1,.63.07v2.5a4.66,4.66,0,0,0-.8-.06,2.35,2.35,0,0,0-2.4,2,5,5,0,0,0-.06.81v5.51H41.27Z"/><path class="cls-1" d="M50.87,157c0-1.22,0-2.24-.08-3.16h2.33l.13,1.59h.06a3.9,3.9,0,0,1,3.4-1.83c1.85,0,3.76,1.2,3.76,4.55v6.3H57.8v-6c0-1.53-.57-2.68-2-2.68a2.26,2.26,0,0,0-2.09,1.57,2.37,2.37,0,0,0-.13.85v6.25H50.87Z"/><path class="cls-1" d="M63.92,167.06a35.59,35.59,0,0,0,1.46-5.75l2.8-.21a28.33,28.33,0,0,1-2.43,5.79Z"/><path class="cls-1" d="M84.94,161.51a7.29,7.29,0,0,0,3.54.94c1.7,0,2.66-.81,2.66-2s-.74-1.76-2.59-2.44c-2.44-.87-4-2.15-4-4.26,0-2.42,2-4.23,5.21-4.23a7.72,7.72,0,0,1,3.51.74l-.64,2.16a6.25,6.25,0,0,0-2.93-.7c-1.7,0-2.42.89-2.42,1.76,0,1.13.84,1.66,2.81,2.42,2.54,1,3.76,2.24,3.76,4.36,0,2.37-1.78,4.41-5.55,4.41a8.42,8.42,0,0,1-4-.93Z"/><path class="cls-1" d="M98,149h2.68v6.29h0a3.58,3.58,0,0,1,1.33-1.2,3.83,3.83,0,0,1,1.85-.48c1.81,0,3.7,1.2,3.7,4.6v6.25h-2.68v-6c0-1.52-.56-2.7-2-2.7a2.23,2.23,0,0,0-2.09,1.5,2.37,2.37,0,0,0-.11.81v6.36H98Z"/><path class="cls-1" d="M120.5,161.88a14.47,14.47,0,0,0,.17,2.55h-2.41l-.2-1.18H118a3.88,3.88,0,0,1-3.14,1.41,3.14,3.14,0,0,1-3.33-3.15c0-2.66,2.37-4,6.29-4v-.17c0-.7-.28-1.85-2.15-1.85a5.54,5.54,0,0,0-2.85.78l-.53-1.74a7.62,7.62,0,0,1,3.83-.94c3.4,0,4.38,2.16,4.38,4.49Zm-2.61-2.64c-1.9,0-3.71.37-3.71,2a1.41,1.41,0,0,0,1.53,1.53,2.2,2.2,0,0,0,2.11-1.45,1.73,1.73,0,0,0,.07-.59Z"/><path class="cls-1" d="M125.16,157.24c0-1.44,0-2.48-.09-3.42h2.32l.1,2h.07a3.17,3.17,0,0,1,2.92-2.24,3,3,0,0,1,.63.07v2.5a4.7,4.7,0,0,0-.81-.06,2.35,2.35,0,0,0-2.39,2,4.07,4.07,0,0,0-.07.81v5.51h-2.68Z"/><path class="cls-1" d="M136.47,159.88c.06,1.91,1.54,2.74,3.26,2.74a8.35,8.35,0,0,0,2.94-.48l.39,1.83a9.5,9.5,0,0,1-3.7.68c-3.44,0-5.46-2.12-5.46-5.36,0-2.94,1.78-5.71,5.18-5.71s4.58,2.83,4.58,5.16a7.14,7.14,0,0,1-.09,1.14Zm4.66-1.88a2.28,2.28,0,0,0-2.2-2.59,2.61,2.61,0,0,0-2.46,2.59Z"/><path class="cls-1" d="M167.87,164.43l-.94-1a5.09,5.09,0,0,1-3.39,1.19c-2.64,0-4-1.66-4-3.4a3.9,3.9,0,0,1,2.32-3.48v-.05a3.89,3.89,0,0,1-1-2.41,3.14,3.14,0,0,1,3.36-3.08,2.74,2.74,0,0,1,3,2.69c0,1.25-.73,2.26-2.47,3.16l0,0c.84,1,1.76,2,2.42,2.75a8.36,8.36,0,0,0,1.09-3.2h2a8.77,8.77,0,0,1-1.88,4.51c.68.76,1.32,1.48,2.06,2.27Zm-2-2.25c-.73-.74-1.87-2-3-3.33a2.48,2.48,0,0,0-1.22,2,2.1,2.1,0,0,0,2.22,2.12,2.84,2.84,0,0,0,2-.82m-3-7.1a2.85,2.85,0,0,0,.87,1.92c1-.64,1.6-1.2,1.6-2a1.24,1.24,0,0,0-1.21-1.36,1.32,1.32,0,0,0-1.26,1.47"/><polygon class="cls-1" points="186.31 149.75 194.79 149.75 194.79 151.95 188.98 151.95 188.98 156 194.38 156 194.38 158.18 188.98 158.18 188.98 164.43 186.31 164.43 186.31 149.75"/><path class="cls-1" d="M208,161.25c0,1.26,0,2.3.09,3.18h-2.33l-.14-1.59h-.06a3.88,3.88,0,0,1-3.42,1.82c-1.91,0-3.68-1.15-3.68-4.61v-6.23h2.68v5.77c0,1.76.57,2.9,2,2.9a2.18,2.18,0,0,0,2.05-1.44,1.92,1.92,0,0,0,.15-.83v-6.4H208Z"/><path class="cls-1" d="M212.7,157c0-1.22,0-2.24-.09-3.16H215l.12,1.59h.07a3.89,3.89,0,0,1,3.4-1.83c1.85,0,3.77,1.2,3.77,4.55v6.3h-2.68v-6c0-1.53-.57-2.68-2-2.68a2.25,2.25,0,0,0-2.09,1.57,2.37,2.37,0,0,0-.13.85v6.25H212.7Z"/></g></g></g></svg>