<svg xmlns="http://www.w3.org/2000/svg" viewBox="0 0 596.97 149.5"><defs><style>.cls-1{fill:#fff;}</style></defs><title>Dek-D</title><g id="Layer_2" data-name="Layer 2"><g id="Layer_1-2" data-name="Layer 1"><path class="cls-1" d="M23.49,0H76.67c50.19,0,77.74,26.48,73.25,74.75-4.48,48.91-38.44,74.75-91,74.75H0ZM61.08,118.1c25.2,0,43.14-16.87,46.56-41.43l.64-4.48c3.63-25.2-9.4-40.8-33.1-40.8H59.58L45.92,118.1Zm97.6-28.4c5.77-36.31,28.83-53.82,65.57-53.82,32.46,0,49.76,17.3,45.06,47l-3.2,20.07H195.2c-1.92,12.39,2.78,19.43,23.07,19.43h44.85l-4.28,27.13h-48C172.78,149.5,152.7,126.86,158.68,89.7Zm78.38-8.33c2.35-14.31-1.92-22-15.38-22-12.38,0-20.71,7.05-23.06,22Zm52.11-42.93h39.94l-7.05,44h4.06l42.71-44H407.7l-1.28,7.9-47.62,47,32.88,46.13-1.49,10H351.32l-28.83-43.57h-4.06L311.6,149.5H271.66ZM395.53,78.81h48.05l-4.7,29.47H390.83ZM470.06,0h53.18C573.43,0,601,26.48,596.5,74.75c-4.49,48.91-38.45,74.75-91,74.75H446.57Zm37.59,118.1c25.2,0,43.14-16.87,46.56-41.43l.64-4.48c3.63-25.2-9.4-40.8-33.1-40.8H506.16L492.49,118.1Z"/></g></g></svg>