<svg xmlns="http://www.w3.org/2000/svg" viewBox="0 0 260.35 51.84"><defs><style>.cls-1{fill:#fff;}</style></defs><title>CampHUB</title><g id="Layer_2" data-name="Layer 2"><g id="Layer_1-2" data-name="Layer 1"><path class="cls-1" d="M5,39.67A16.74,16.74,0,0,1,0,27.29a17,17,0,0,1,17.25-17.2A18.69,18.69,0,0,1,29.94,14.7l-4.61,5A12.74,12.74,0,0,0,17.25,17,9.84,9.84,0,0,0,6.91,27.25a10.32,10.32,0,0,0,2.88,7.64,10.17,10.17,0,0,0,7.5,2.84,12.35,12.35,0,0,0,8-2.75L29.94,40a18.65,18.65,0,0,1-12.69,4.6A16.81,16.81,0,0,1,5,39.67Z"/><path class="cls-1" d="M84.52,44.63V10.09h2.3l15,17,15-17h2.3V44.63h-6.91l0-20L101.79,36.11,91.42,24.6v20Z"/><path class="cls-1" d="M126,44.63V10.09H141q12.09,0,12.09,10,0,10.32-12.07,10.32h-8.17V44.63Zm6.91-20.72h9.67q4.17-.07,4.28-3.8c-.07-2.28-1.48-3.46-4.21-3.55h-9.74Z"/><path class="cls-1" d="M37,26.39l-.22.64a98.71,98.71,0,0,0-2.63,10,40,40,0,0,0-.76,5.77c-.14,2.71-.26,6.41,3,7.35.28.08.56.14.84.21l1.07.25c1.28.27,5.57.83,6.87,1l0-6.36L51,33.63Z"/><path class="cls-1" d="M60.94,13.92a5.74,5.74,0,0,0-.76-1.08c-1.69-2.28-4.27-3.54-8-4s-6.4,2-8.5,4.61a37.1,37.1,0,0,0-4.37,7.19l14.35,7.79Z"/><path class="cls-1" d="M63.08,21.9l-4.42,9.26,5.52,3-.12-2.73A89.25,89.25,0,0,0,63.08,21.9Z"/><path class="cls-1" d="M45.17,51.6c3.94.32,11.57.52,15.34-.81,2.62-.94,3.35-1.71,3.65-4.62a53.37,53.37,0,0,0,.23-5.65L56.21,36.3l-5.4,11.31Z"/><path class="cls-1" d="M79.68,43.15C78.16,34.7,76.1,25,74,16.66a52.87,52.87,0,0,0-2.5-7.8c-1-2.42-2.61-3-5-2.06a9.8,9.8,0,0,0-2.31,1.41c-.36.28-.63.9-1.23.56s-.39-.9-.39-1.39a12.85,12.85,0,0,0-.4-3c-1-4.11-6.38-5.79-9.41-2.91a10.12,10.12,0,0,0-2.58,4.77c-.1.33-.36,1.42.11,1.28a9.85,9.85,0,0,1,3.63-.2c.39-2.75,1.2-3.62,3.43-3.48A2.59,2.59,0,0,1,59.18,7c-.2.47-.57.34-.91.33a18.5,18.5,0,0,0-3.39.15A9.64,9.64,0,0,1,56.81,8,10.7,10.7,0,0,1,62,11.84a12.71,12.71,0,0,1,2.38,5.31l.27,1.47A84.25,84.25,0,0,1,66,29.72c.08,1.84.18,3.68.25,5.53.08,2.08.12,4.16.06,6.23a48.6,48.6,0,0,1-.47,5.77c-.12.83.1.92.75.66a4,4,0,0,0,2.71-3.48c0-.45.08-.9.09-1.36l5.5,2.84a2.82,2.82,0,0,0,3.51-.13A2.41,2.41,0,0,0,79.68,43.15ZM69.24,34a128.6,128.6,0,0,0-2.13-17.51c-.14-.68-.29-1.35-.48-2l.25-.52,6,25h0l-3.16-1.72C69.29,36.79,69.27,34.49,69.24,34Z"/><path class="cls-1" d="M188.88,10.48V44.63h-7.15V29.27H166.42V44.63h-7.13V10.48h7.13V22.67h15.31V10.48Z"/><path class="cls-1" d="M225.54,10.45V29c0,8.78-5.71,15.64-14.81,15.64-8.84,0-14.79-6.74-14.79-15.64V10.45h7.14v18.2c0,4.58,2.29,9.39,7.67,9.39,5.07,0,7.65-4.46,7.65-9.39V10.45Z"/><path class="cls-1" d="M255,26.2c3,1.69,5.34,4.45,5.34,8.19,0,6.19-4.48,10.24-10.36,10.24H232.62V10.5H246.8c5.74,0,10.33,4,10.33,10.22A8.62,8.62,0,0,1,255,26.2Zm-15.26-9.34v7.48h7.12a3.92,3.92,0,0,0,3.76-3.74c0-2.31-2-3.74-4.26-3.74Zm9.33,21.32a3.93,3.93,0,1,0,0-7.84h-9.36v7.84Z"/></g></g></svg>