<?xml version="1.0" encoding="utf-8"?>
<!-- Generator: Adobe Illustrator 23.0.4, SVG Export Plug-In . SVG Version: 6.00 Build 0)  -->
<svg version="1.1" id="Layer_1" xmlns="http://www.w3.org/2000/svg" xmlns:xlink="http://www.w3.org/1999/xlink" x="0px" y="0px"
	 viewBox="0 0 162.2 107.5" style="enable-background:new 0 0 162.2 107.5;" xml:space="preserve">
<style type="text/css">
	.st0{fill:#FFFFFF;}
</style>
<g>
	<title>THNIC</title>
	<g>
		<g id="Layer_1-2">
			<polygon class="st0" points="70.2,18.7 54.3,18.7 54.3,37.2 46.4,37.2 46.4,49.6 54.3,49.6 54.3,88.8 68.7,88.8 70.1,88.7 
				70.2,49.6 80,49.6 80,37.2 70.2,37.2 			"/>
			<rect x="28.6" y="73.2" class="st0" width="15.6" height="15.6"/>
			<path class="st0" d="M130.4,45.3L130.4,45.3l-0.3-0.5c-0.4-0.6-0.9-1.2-1.4-1.8l0,0c-0.2-0.3-6-7.7-17.6-7.7l0,0
				c-0.3,0-5.4,0.2-9.5,2.1V18.7h-15v69.5h14.9V61c0-3.1,0.5-5.6,1.6-7.4c0.6-1,1.5-1.9,2.6-2.5c1.3-0.8,2.8-1.2,4.3-1.3
				c1.5-0.1,3,0.1,4.4,0.6c3.5,1.2,5,5,4.9,8.3v2c0,0.1,0,0.2,0,0.3c0,0.1,0,0.2,0,0.3v26.9h14.8V61.4
				C134.3,61,134.7,52.3,130.4,45.3"/>
		</g>
	</g>
</g>
</svg>
