<svg xmlns="http://www.w3.org/2000/svg" viewBox="0 0 162.16 107.49"><defs><style>.cls-1{fill:#fff;}</style></defs><title>THNIC</title><g id="Layer_2" data-name="Layer 2"><g id="Layer_1-2" data-name="Layer 1"><polygon class="cls-1" points="63.72 0 39.44 0 39.44 28.31 27.25 28.31 27.25 47.34 39.44 47.34 39.44 107.49 61.53 107.49 63.7 107.41 63.72 47.34 78.77 47.34 78.77 28.31 63.72 28.31 63.72 0"/><rect class="cls-1" y="83.52" width="23.97" height="23.97"/><path class="cls-1" d="M156.05,40.81h.08l-.55-.71a31.77,31.77,0,0,0-2.1-2.75l0,0c-.38-.47-9.26-11.8-26.94-11.8h0c-.39,0-8.25.36-14.59,3.2V0H89V106.64h22.87l0-41.72c0-4.8.82-8.53,2.53-11.38a11.1,11.1,0,0,1,4-3.85,14.62,14.62,0,0,1,6.66-2,17.14,17.14,0,0,1,6.78.93c5.33,1.91,7.62,7.73,7.53,12.7v3.1q0,.25,0,.48a3.44,3.44,0,0,1,0,.46v41.26h22.66V65.5c0-.63.72-14-6.08-24.69"/></g></g></svg>