<svg xmlns="http://www.w3.org/2000/svg" viewBox="0 0 437.53 109.7"><defs><style>.cls-1{fill:#fff;}</style></defs><title>ananda</title><g id="Layer_2" data-name="Layer 2"><g id="Layer_1-2" data-name="Layer 1"><path class="cls-1" d="M186.88,43.47c-.21,0-.3.09-.38.34L184.19,50a7.93,7.93,0,0,0-.66,2.61c0,.77.4,1.33,1.73,1.33h.64c.51,0,.64.09.64.35s-.26.42-.73.42c-1.37,0-3.21-.12-4.54-.12-.46,0-2.82.12-5.07.12-.55,0-.79-.08-.79-.42s.16-.35.5-.35a10.81,10.81,0,0,0,1.32-.09c2-.26,2.8-1.72,3.66-3.85L191.65,23c.5-1.25.76-1.73,1.18-1.73s.66.39,1.08,1.38c1,2.35,7.89,19.85,10.63,26.35,1.63,3.86,2.88,4.47,3.77,4.68a9.15,9.15,0,0,0,1.8.17c.35,0,.57,0,.57.35s-.38.42-2,.42-4.67,0-8.11-.08c-.77,0-1.28,0-1.28-.34s.17-.35.58-.39a.7.7,0,0,0,.4-1l-3.44-9.08a.39.39,0,0,0-.41-.31Zm8.75-2.14c.22,0,.24-.12.22-.25L192,30.49c0-.17-.09-.38-.22-.38s-.21.21-.26.38L187.57,41c0,.18,0,.3.17.3Z"/><path class="cls-1" d="M227.77,48.84c.07,3.33.63,4.46,1.49,4.74a6.51,6.51,0,0,0,2.22.31c.48,0,.74.09.74.35s-.39.42-1,.42c-2.78,0-4.48-.12-5.29-.12-.41,0-2.4.12-4.64.12-.56,0-.94,0-.94-.42s.25-.35.68-.35a7.66,7.66,0,0,0,1.93-.21c1.11-.35,1.28-1.6,1.32-5.33l.4-25.36c0-.86.12-1.46.54-1.46s.87.55,1.6,1.32c.5.56,7,7.55,13.29,13.77,2.9,2.92,8.69,9.09,9.42,9.77h.21l-.43-19.23c0-2.63-.43-3.44-1.45-3.87a7.22,7.22,0,0,0-2.28-.25c-.51,0-.68-.14-.68-.39s.47-.4,1.13-.4c2.22,0,4.26.15,5.18.15.46,0,2.09-.15,4.2-.15.55,0,1,.05,1,.4s-.25.39-.76.39a5.23,5.23,0,0,0-1.31.12c-1.18.34-1.53,1.25-1.57,3.65l-.48,27c0,.95-.17,1.32-.55,1.32s-1-.47-1.45-.93c-2.7-2.57-8.2-8.19-12.65-12.59-4.68-4.64-9.44-10-10.21-10.83h-.12Z"/><path class="cls-1" d="M276.93,43.47c-.2,0-.3.09-.37.34L274.24,50a8.39,8.39,0,0,0-.65,2.61c0,.77.4,1.33,1.73,1.33H276c.51,0,.65.09.65.35s-.25.42-.75.42c-1.35,0-3.2-.12-4.53-.12-.47,0-2.82.12-5.05.12-.57,0-.82-.08-.82-.42s.17-.35.51-.35a11.44,11.44,0,0,0,1.34-.09c2-.26,2.78-1.72,3.63-3.85L281.69,23c.52-1.25.78-1.73,1.2-1.73s.64.39,1.06,1.38c1,2.35,7.9,19.85,10.64,26.35,1.63,3.86,2.88,4.47,3.78,4.68a9.15,9.15,0,0,0,1.8.17c.33,0,.55,0,.55.35s-.38.42-2,.42-4.67,0-8.1-.08c-.77,0-1.29,0-1.29-.34s.16-.35.58-.39a.69.69,0,0,0,.39-1l-3.42-9.08a.4.4,0,0,0-.42-.31Zm8.75-2.14c.22,0,.26-.12.22-.25L282,30.49c-.05-.17-.09-.38-.22-.38s-.21.21-.26.38L277.63,41c-.05.18,0,.3.16.3Z"/><path class="cls-1" d="M317.81,48.84c.09,3.33.65,4.46,1.49,4.74a6.53,6.53,0,0,0,2.23.31c.48,0,.74.09.74.35s-.39.42-1,.42c-2.78,0-4.49-.12-5.31-.12-.38,0-2.39.12-4.64.12-.53,0-.94,0-.94-.42s.26-.35.69-.35a7.66,7.66,0,0,0,1.93-.21c1.12-.35,1.29-1.6,1.34-5.33L314.71,23c0-.86.13-1.46.56-1.46s.87.55,1.59,1.32c.52.56,7,7.55,13.29,13.77,2.92,2.92,8.69,9.09,9.42,9.77h.21l-.42-19.23c0-2.63-.42-3.44-1.45-3.87a7.22,7.22,0,0,0-2.28-.25c-.52,0-.68-.14-.68-.39s.48-.4,1.12-.4c2.23,0,4.28.15,5.18.15.47,0,2.1-.15,4.2-.15.57,0,1,.05,1,.4s-.27.39-.78.39a5,5,0,0,0-1.28.12c-1.2.34-1.54,1.25-1.59,3.65l-.47,27c0,.95-.17,1.32-.56,1.32s-1-.47-1.45-.93c-2.69-2.57-8.19-8.19-12.65-12.59-4.67-4.64-9.42-10-10.2-10.83h-.13Z"/><path class="cls-1" d="M362.41,34.7c0-6.53,0-7.73-.09-9.09s-.42-2.14-1.85-2.45A8.4,8.4,0,0,0,358.8,23c-.48,0-.72-.08-.72-.39s.3-.4.94-.4c2.27,0,5,.15,6.17.15s4-.15,6.6-.15c5.35,0,12.51,0,17.18,4.91A15.22,15.22,0,0,1,393.13,38a17,17,0,0,1-4.67,12c-2,2-6.42,5.06-14.37,5.06-1.52,0-3.28-.13-4.91-.25s-3.15-.26-4.21-.26c-.46,0-1.42,0-2.44,0s-2.11.08-2.95.08c-.56,0-.86-.12-.86-.42s.17-.35.69-.35a7.29,7.29,0,0,0,1.53-.17c.86-.18,1.06-1.11,1.25-2.36.22-1.8.22-5.18.22-9.13Zm5.35,4.7c0,4.55.05,7.85.08,8.66a9.89,9.89,0,0,0,.48,3.26c.56.82,2.22,1.7,5.62,1.7,4.35,0,7.28-.85,9.85-3.07,2.73-2.36,3.6-6.26,3.6-10.66,0-5.47-2.26-9-4.11-10.73-3.95-3.76-8.83-4.28-12.16-4.28a11.49,11.49,0,0,0-2.8.3.78.78,0,0,0-.51.86c-.05,1.45-.05,5.18-.05,8.55Z"/><path class="cls-1" d="M413.53,43.47c-.21,0-.3.09-.37.34L410.84,50a8.48,8.48,0,0,0-.66,2.61c0,.77.42,1.33,1.73,1.33h.64c.53,0,.65.09.65.35s-.26.42-.73.42c-1.37,0-3.21-.12-4.54-.12-.48,0-2.83.12-5.05.12-.58,0-.82-.08-.82-.42s.18-.35.51-.35a10.81,10.81,0,0,0,1.32-.09c2-.26,2.8-1.72,3.64-3.85L418.3,23c.51-1.25.76-1.73,1.19-1.73s.65.39,1.07,1.38c1,2.35,7.88,19.85,10.64,26.35,1.62,3.86,2.87,4.47,3.77,4.68a9.26,9.26,0,0,0,1.79.17c.35,0,.57,0,.57.35s-.38.42-2,.42-4.67,0-8.1-.08c-.77,0-1.29,0-1.29-.34s.17-.35.59-.39a.7.7,0,0,0,.4-1l-3.43-9.08a.43.43,0,0,0-.43-.31Zm8.76-2.14c.21,0,.25-.12.21-.25l-3.85-10.59c0-.17-.09-.38-.22-.38s-.22.21-.25.38L414.23,41c-.05.18,0,.3.16.3Z"/><path class="cls-1" d="M177.73,77.54c0-3.29,0-3.91,0-4.59s-.24-1.09-1-1.25a6.83,6.83,0,0,0-.9-.06c-.25,0-.38,0-.38-.18s.14-.21.5-.21c1.22,0,2.67.06,3.31.06s2.17-.06,3.55-.06c2.89,0,6.74,0,9.24,2.47a7.49,7.49,0,0,1,2.25,5.5,8.36,8.36,0,0,1-2.52,6.06c-1.05,1-3.46,2.55-7.71,2.55-.83,0-1.78-.06-2.66-.13s-1.68-.13-2.26-.13c-.26,0-.76,0-1.31,0s-1.13,0-1.59,0c-.3,0-.47-.06-.47-.21s.1-.17.37-.17a5.25,5.25,0,0,0,.84-.09c.46-.09.57-.55.66-1.19.12-.92.12-2.62.12-4.61Zm2.87,2.38c0,2.3,0,4,.06,4.38a4.73,4.73,0,0,0,.23,1.64c.31.42,1.22.87,3,.87a7.75,7.75,0,0,0,5.3-1.56c1.49-1.19,2-3.16,2-5.4A7.19,7.19,0,0,0,189,74.44a9.51,9.51,0,0,0-6.55-2.17,7.23,7.23,0,0,0-1.52.15.41.41,0,0,0-.27.43c0,.74,0,2.64,0,4.34Z"/><path class="cls-1" d="M206.25,77.54c0-3.29,0-3.91-.05-4.59s-.23-1.09-1-1.25a7,7,0,0,0-.9-.06c-.25,0-.39,0-.39-.18s.17-.21.51-.21l1.86,0,1.45,0h5.77a9.86,9.86,0,0,0,1-.13,2.93,2.93,0,0,1,.37-.1c.12,0,.14.1.14.21s-.11.41-.19,1.42c0,.2-.06,1.16-.1,1.41s-.08.24-.24.24-.2-.1-.2-.3a2.3,2.3,0,0,0-.14-.78c-.17-.39-.39-.66-1.55-.78-.4,0-2.81-.08-3.29-.08-.11,0-.16,0-.16.2v5.5c0,.14,0,.24.16.24.53,0,3.16,0,3.7,0a1.71,1.71,0,0,0,1.11-.34c.17-.16.25-.27.37-.27s.16,0,.16.18-.09.48-.19,1.58c0,.43-.09,1.3-.09,1.46s0,.39-.21.39-.21-.08-.21-.19a5,5,0,0,0-.09-.78c-.1-.43-.44-.75-1.29-.85-.43,0-2.7,0-3.27,0-.12,0-.15.09-.15.21v1.72c0,.73,0,2.72,0,3.35.05,1.5.43,1.82,2.77,1.82a6.42,6.42,0,0,0,2.17-.25,1.87,1.87,0,0,0,1-1.62c0-.22.09-.32.25-.32s.19.18.19.4a16.6,16.6,0,0,1-.3,2.39c-.16.57-.36.57-1.24.57-1.73,0-3,0-4-.07s-1.7-.06-2.4-.06c-.26,0-.77,0-1.3,0s-1.14,0-1.6,0c-.3,0-.46-.06-.46-.21s.09-.17.36-.17a5.53,5.53,0,0,0,.84-.09c.46-.09.57-.55.66-1.19.12-.92.12-2.62.12-4.61Z"/><path class="cls-1" d="M225.64,73.38c-.54-1.2-.92-1.43-1.76-1.66a4.1,4.1,0,0,0-.89-.08c-.21,0-.28-.07-.28-.18s.24-.21.6-.21c1.21,0,2.53.06,3.34.06.58,0,1.68-.06,2.83-.06.28,0,.54,0,.54.21s-.14.18-.35.18a1.92,1.92,0,0,0-.91.15.55.55,0,0,0-.21.45,5.94,5.94,0,0,0,.52,1.67l4,9.86h.1c1-2.4,4-9.37,4.54-10.79a2.46,2.46,0,0,0,.21-.83.43.43,0,0,0-.3-.41,4,4,0,0,0-.92-.1c-.21,0-.4,0-.4-.17s.21-.22.65-.22c1.15,0,2.12.06,2.42.06s1.48-.06,2.17-.06c.3,0,.48,0,.48.21s-.14.18-.36.18a2.08,2.08,0,0,0-1.13.26c-.31.2-.65.56-1.28,2-.89,2-1.51,3.2-2.76,5.87-1.48,3.15-2.56,5.52-3.08,6.62s-.73,1.59-1,1.59-.45-.31-.88-1.33Z"/><path class="cls-1" d="M251.38,77.54c0-3.29,0-3.91,0-4.59s-.24-1.09-1-1.25a6.83,6.83,0,0,0-.9-.06c-.25,0-.39,0-.39-.18s.16-.21.51-.21c.62,0,1.29,0,1.86,0l1.45,0h5.77a9.46,9.46,0,0,0,1-.13,2.24,2.24,0,0,1,.37-.1c.12,0,.13.1.13.21A14.06,14.06,0,0,0,260,72.7c0,.2-.07,1.16-.11,1.41s-.08.24-.24.24-.2-.1-.2-.3a1.93,1.93,0,0,0-.15-.78c-.14-.39-.38-.66-1.53-.78-.39,0-2.81-.08-3.29-.08-.09,0-.15,0-.15.2v5.5c0,.14,0,.24.15.24.52,0,3.17,0,3.7,0a1.71,1.71,0,0,0,1.11-.34c.16-.16.25-.27.36-.27s.16,0,.16.18-.09.48-.17,1.58c0,.43-.1,1.3-.1,1.46s0,.39-.21.39-.19-.08-.19-.19a7,7,0,0,0-.1-.78c-.12-.43-.44-.75-1.3-.85-.44,0-2.72,0-3.27,0-.12,0-.14.09-.14.21v1.72c0,.73,0,2.72,0,3.35.06,1.5.41,1.82,2.77,1.82a6.45,6.45,0,0,0,2.17-.25c.59-.28.86-.72,1-1.62.06-.22.09-.32.26-.32s.17.18.17.4a16.62,16.62,0,0,1-.28,2.39c-.17.57-.38.57-1.25.57-1.74,0-3,0-4-.07s-1.72-.06-2.4-.06c-.26,0-.77,0-1.31,0s-1.14,0-1.59,0-.46-.06-.46-.21.09-.17.37-.17a5,5,0,0,0,.81-.09c.48-.09.58-.55.68-1.19.11-.92.11-2.62.11-4.61Z"/><path class="cls-1" d="M275.76,81.36c0,2.76,0,4.27.49,4.64s1,.49,2.79.49c1.23,0,2.12,0,2.7-.61a2.48,2.48,0,0,0,.6-1.3c0-.18.07-.32.26-.32s.18.1.18.36a16.37,16.37,0,0,1-.34,2.49c-.14.48-.25.59-1.45.59-1.66,0-2.86,0-3.9-.07s-1.86-.06-2.81-.06c-.26,0-.77,0-1.32,0s-1.13,0-1.59,0c-.3,0-.45-.06-.45-.21s.08-.17.35-.17a4.85,4.85,0,0,0,.83-.09c.46-.09.59-.55.67-1.19.12-.92.12-2.62.12-4.61V77.54c0-3.29,0-3.91,0-4.59s-.24-1.09-1-1.25a5.12,5.12,0,0,0-.77-.06c-.26,0-.39,0-.39-.18s.15-.21.5-.21c1.09,0,2.55.06,3.17.06s2.24-.06,3.13-.06c.32,0,.48,0,.48.21s-.13.18-.4.18a9.07,9.07,0,0,0-.91.06c-.63.11-.81.48-.84,1.25s-.07,1.3-.07,4.59Z"/><path class="cls-1" d="M291.26,79.45c0-3.72,2.61-8.51,9.52-8.51,5.74,0,9.33,3.15,9.33,8.12s-3.69,8.88-9.55,8.88C293.94,87.94,291.26,83.28,291.26,79.45Zm15.61.4c0-4.85-3-7.86-6.75-7.86-2.66,0-5.67,1.39-5.67,6.79,0,4.5,2.65,8.07,7.08,8.07C303.14,86.85,306.87,86.12,306.87,79.85Z"/><path class="cls-1" d="M322.1,77.54c0-3.29,0-3.91-.05-4.59s-.23-1.09-1-1.25a7,7,0,0,0-.91-.06c-.24,0-.39,0-.39-.18s.17-.21.51-.21c1.23,0,2.68.06,3.32.06,1,0,2.28-.06,3.34-.06,2.89,0,3.92.9,4.3,1.24a3.68,3.68,0,0,1,1.14,2.58c0,3.08-2.39,5.24-5.67,5.24a3.85,3.85,0,0,1-.48,0c-.11,0-.28,0-.28-.2s.17-.24.65-.24a3.48,3.48,0,0,0,3.08-3.57A4,4,0,0,0,328.32,73a3.63,3.63,0,0,0-2.31-.84,3.28,3.28,0,0,0-.9.09c-.11,0-.18.17-.18.43v8.66c0,2,0,3.69.12,4.64.06.61.2,1.07.89,1.16.32,0,.83.09,1.17.09s.38.07.38.17-.18.21-.44.21c-1.52,0-3-.06-3.57-.06s-2,.06-2.91.06c-.3,0-.46-.06-.46-.21s.09-.17.37-.17a5.1,5.1,0,0,0,.83-.09c.47-.09.58-.55.67-1.19.12-.92.12-2.62.12-4.61Z"/><path class="cls-1" d="M345,71.34c.06-.38.2-.56.38-.56s.33.1.63.68l6.29,12.2,6.27-12.36c.19-.36.3-.52.5-.52s.36.21.42.68l2.11,13.38c.2,1.37.45,2,1.12,2.18a4.52,4.52,0,0,0,1.42.23c.22,0,.38,0,.38.16s-.27.22-.6.22c-.58,0-3.74-.06-4.68-.13-.54,0-.67-.09-.67-.23s.08-.17.26-.25.2-.32.11-.91l-1.38-9.54h-.1l-5,9.83c-.52,1-.63,1.22-.84,1.22s-.45-.43-.81-1.09c-.55-1-2.38-4.31-2.65-4.92-.21-.45-1.6-3.18-2.4-4.8h-.11l-1.19,8.61a9.72,9.72,0,0,0-.06,1c0,.4.3.6.69.68a4.11,4.11,0,0,0,1,.12c.18,0,.34,0,.34.16s-.2.22-.55.22c-1,0-2-.06-2.41-.06s-1.55.06-2.29.06c-.23,0-.41,0-.41-.22s.14-.16.36-.16a3.33,3.33,0,0,0,.69-.06c.65-.14.83-1,.95-1.72Z"/><path class="cls-1" d="M375.11,77.54c0-3.29,0-3.91,0-4.59s-.23-1.09-1-1.25a6.83,6.83,0,0,0-.9-.06c-.26,0-.39,0-.39-.18s.17-.21.51-.21l1.87,0,1.44,0h5.77a9.46,9.46,0,0,0,1-.13,2.93,2.93,0,0,1,.37-.1c.12,0,.13.1.13.21a14.06,14.06,0,0,0-.18,1.42c0,.2-.06,1.16-.11,1.41a.24.24,0,0,1-.24.24c-.15,0-.21-.1-.21-.3a2,2,0,0,0-.13-.78c-.16-.39-.4-.66-1.54-.78-.4,0-2.81-.08-3.28-.08-.11,0-.16,0-.16.2v5.5c0,.14,0,.24.16.24.51,0,3.17,0,3.7,0A1.66,1.66,0,0,0,383,78c.15-.16.25-.27.36-.27s.17,0,.17.18-.08.48-.19,1.58c0,.43-.09,1.3-.09,1.46s0,.39-.2.39-.21-.08-.21-.19a5,5,0,0,0-.09-.78c-.13-.43-.44-.75-1.31-.85-.42,0-2.71,0-3.25,0-.13,0-.15.09-.15.21v1.72c0,.73,0,2.72,0,3.35.05,1.5.42,1.82,2.77,1.82a6.39,6.39,0,0,0,2.16-.25c.62-.28.88-.72,1.05-1.62,0-.22.08-.32.25-.32s.18.18.18.4a16.61,16.61,0,0,1-.29,2.39c-.17.57-.38.57-1.25.57-1.73,0-3,0-4-.07s-1.71-.06-2.4-.06c-.25,0-.77,0-1.31,0s-1.13,0-1.6,0c-.29,0-.45-.06-.45-.21s.08-.17.36-.17a5,5,0,0,0,.83-.09c.47-.09.58-.55.67-1.19.11-.92.11-2.62.11-4.61Z"/><path class="cls-1" d="M397.91,84.7c0,1.67.35,2.24.82,2.4a3.84,3.84,0,0,0,1.2.15c.25,0,.39,0,.39.17s-.21.21-.54.21c-1.5,0-2.41-.06-2.85-.06-.21,0-1.29.06-2.49.06-.3,0-.51,0-.51-.21s.15-.17.36-.17a3.81,3.81,0,0,0,1-.12c.6-.18.69-.78.71-2.68l.2-12.83c0-.44.08-.74.31-.74s.47.29.85.67,3.78,3.82,7.14,7c1.58,1.47,4.69,4.6,5.07,4.94h.12l-.23-9.73c0-1.31-.22-1.73-.78-1.94a3.7,3.7,0,0,0-1.21-.14c-.29,0-.38-.07-.38-.18s.25-.21.6-.21c1.2,0,2.31.06,2.79.06.25,0,1.13-.06,2.26-.06.31,0,.53,0,.53.21s-.14.18-.4.18a2.92,2.92,0,0,0-.71.06c-.65.18-.82.64-.85,1.85l-.26,13.68c0,.47-.08.67-.29.67a1.39,1.39,0,0,1-.79-.48c-1.46-1.3-4.41-4.14-6.8-6.38s-5.07-5-5.48-5.46h-.08Z"/><path class="cls-1" d="M428.47,72.46l-3.45.1c-1.33,0-1.87.14-2.22.63a2,2,0,0,0-.38.75c-.06.17-.13.26-.26.26s-.22-.11-.22-.34.45-2.33.49-2.5.13-.42.27-.42a5.9,5.9,0,0,0,1,.28c.68.06,1.56.09,2.31.09h9.13a15.73,15.73,0,0,0,1.59-.09,4.78,4.78,0,0,1,.63-.11c.17,0,.18.12.18.44,0,.47-.07,2-.07,2.52,0,.21-.07.35-.21.35s-.22-.1-.25-.44l0-.24c0-.55-.67-1.17-2.71-1.21l-2.93-.07v8.9c0,2,0,3.69.12,4.64.09.61.22,1.07.91,1.16.32,0,.82.09,1.17.09s.38.07.38.17-.19.21-.44.21c-1.52,0-3-.06-3.63-.06s-2,.06-2.9.06c-.29,0-.46-.06-.46-.21s.09-.17.37-.17a5,5,0,0,0,.82-.09c.48-.09.6-.55.68-1.19.11-.92.11-2.62.11-4.61Z"/><path class="cls-1" d="M100.06,37.31c0-6.09,1.46-11.09,3.32-11.09s3.41,4.94,3.46,11-1.39,10.94-3.21,11.07h.07c2.53,0,4.56-6.17,4.49-13.74s-2.15-13.67-4.7-13.67S99,27.06,99,34.59c0,6.65,1.69,12.19,3.77,13.42C101.28,46.91,100.14,42.55,100.06,37.31Z"/><path class="cls-1" d="M95.12,98.19s17.46-44.71-31.27-53.92S4.58,25.34,0,19.8c0,0,2.76,22.12,55.13,30S95.12,98.19,95.12,98.19Z"/><path class="cls-1" d="M13.31,46.55S30.79,56.68,74.88,56.68C74.88,56.68,34,71,13.31,46.55Z"/><path class="cls-1" d="M80.87,60.82S58.36,71.46,40.45,70C40.45,70,68.91,77.89,80.87,60.82Z"/><path class="cls-1" d="M87.72,66.44S74.56,80.85,61.62,82.82C61.62,82.82,83.64,85.14,87.72,66.44Z"/><path class="cls-1" d="M106.4,109.7s-4.78-64.58,22.35-76.92S161.74,7.41,164.27,0c0,0-2.64,26.79-31.81,37.31S106.4,109.7,106.4,109.7Z"/><path class="cls-1" d="M157.37,35.42S148,47.1,124.12,47.1C124.12,47.1,146.21,63.58,157.37,35.42Z"/><path class="cls-1" d="M119.71,52.22s12.14,12.19,21.86,10.63C141.57,62.85,126.14,71.89,119.71,52.22Z"/><path class="cls-1" d="M116.54,58.53S120.63,73,127.72,73.94C127.72,73.94,114.2,78.6,116.54,58.53Z"/></g></g></svg>