<svg xmlns="http://www.w3.org/2000/svg" xmlns:xlink="http://www.w3.org/1999/xlink" viewBox="0 0 603.49 629.48"><defs><style>.cls-1,.cls-6,.cls-8{fill:#fff;}.cls-2{isolation:isolate;}.cls-3{clip-path:url(#clip-path);}.cls-4{clip-path:url(#clip-path-2);}.cls-5{clip-path:url(#clip-path-3);}.cls-6{opacity:0.25;}.cls-6,.cls-8{mix-blend-mode:multiply;}.cls-7{opacity:0.4;mix-blend-mode:overlay;}.cls-8{opacity:0.7;}</style><clipPath id="clip-path"><path class="cls-1" d="M580,481H397.1a12.47,12.47,0,0,1-9.7-4.63L341.19,419a16.2,16.2,0,0,1,0-20.34l81.19-100.64a16.2,16.2,0,0,1,25.21,0L585.64,469.2A7.22,7.22,0,0,1,580,481Z"/></clipPath><clipPath id="clip-path-2"><path class="cls-1" d="M585.64,18.22,447.52,189.42a16.19,16.19,0,0,1-25.21,0L341.09,88.76a16.22,16.22,0,0,1,0-20.34L387.34,11.1A12.45,12.45,0,0,1,397,6.46H580A7.23,7.23,0,0,1,585.64,18.22Z"/></clipPath><clipPath id="clip-path-3"><path class="cls-1" d="M216,11.1a12.45,12.45,0,0,0-9.7-4.64H23.42A7.22,7.22,0,0,0,17.8,18.22l181.89,225.5L17.8,469.2A7.22,7.22,0,0,0,23.42,481h183a12.47,12.47,0,0,0,9.7-4.63l85.63-106.15,93.8-116.26a16.2,16.2,0,0,0,0-20.33Z"/></clipPath></defs><title>Lnwx</title><g class="cls-2"><g id="Layer_2" data-name="Layer 2"><g id="Lnwx_logo1"><path class="cls-1" d="M580,481H397.1a12.47,12.47,0,0,1-9.7-4.63L341.19,419a16.2,16.2,0,0,1,0-20.34l81.19-100.64a16.2,16.2,0,0,1,25.21,0L585.64,469.2A7.22,7.22,0,0,1,580,481Z"/><g class="cls-3"><path class="cls-1" d="M.06,0H596.27a7.23,7.23,0,0,1,7.23,7.23V480.18a7.23,7.23,0,0,1-7.23,7.23H.06a0,0,0,0,1,0,0V0A0,0,0,0,1,.06,0Z"/></g><path class="cls-1" d="M585.64,18.22,447.52,189.42a16.19,16.19,0,0,1-25.21,0L341.09,88.76a16.22,16.22,0,0,1,0-20.34L387.34,11.1A12.45,12.45,0,0,1,397,6.46H580A7.23,7.23,0,0,1,585.64,18.22Z"/><g class="cls-4"><path class="cls-1" d="M0,0H596.21a7.23,7.23,0,0,1,7.23,7.23V480.17a7.23,7.23,0,0,1-7.23,7.23H0a0,0,0,0,1,0,0V0A0,0,0,0,1,0,0Z"/></g><path class="cls-1" d="M216,11.1a12.45,12.45,0,0,0-9.7-4.64H23.42A7.22,7.22,0,0,0,17.8,18.22l181.89,225.5L17.8,469.2A7.22,7.22,0,0,0,23.42,481h183a12.47,12.47,0,0,0,9.7-4.63l85.63-106.15,93.8-116.26a16.2,16.2,0,0,0,0-20.33Z"/><g class="cls-5"><path class="cls-1" d="M7.23,0H603.43a0,0,0,0,1,0,0v487.4a0,0,0,0,1,0,0H7.23A7.23,7.23,0,0,1,0,480.18V7.24A7.23,7.23,0,0,1,7.23,0Z"/></g><path class="cls-6" d="M585.64,18.22,447.52,189.42a16.19,16.19,0,0,1-25.21,0L341.09,88.76a16.22,16.22,0,0,1,0-20.34L387.34,11.1A12.45,12.45,0,0,1,397,6.46H580A7.23,7.23,0,0,1,585.64,18.22Z"/><path class="cls-6" d="M580,481H397.1a12.47,12.47,0,0,1-9.7-4.63L341.19,419a16.2,16.2,0,0,1,0-20.34l81.19-100.64a16.2,16.2,0,0,1,25.21,0L585.64,469.2A7.22,7.22,0,0,1,580,481Z"/><g class="cls-7"><path class="cls-1" d="M301.71,370.18l93.8-116.26a16.2,16.2,0,0,0,0-20.33L216,11.1a12.45,12.45,0,0,0-9.7-4.64H23.42A7.22,7.22,0,0,0,17.8,18.22l181.89,225.5,80.77,100.12h0l.14.17a41.69,41.69,0,0,1,0,52.35l21.11-26.18Z"/><polygon class="cls-1" points="280.6 396.36 280.6 396.36 280.6 396.36 280.6 396.36"/></g><path class="cls-8" d="M280.62,396.33l0,0-64.52,80a12.47,12.47,0,0,1-9.7,4.63h-183A7.22,7.22,0,0,1,17.8,469.2L199.69,243.72l80.78,100.13h0l.14.16A41.69,41.69,0,0,1,280.62,396.33Z"/><path class="cls-1" d="M41.5,616.82H80.7v11.43H27.26V542.93H41.5Z"/><path class="cls-1" d="M103.26,564.85l.82,9.14a22.76,22.76,0,0,1,7.82-7.59,20.85,20.85,0,0,1,10.64-2.72q9.9,0,15.44,6t5.53,18.72v39.85H129.28V588.52c0-4.77-1-8.15-3-10.17s-5-3-9-3a14.93,14.93,0,0,0-7.44,1.84,15.38,15.38,0,0,0-5.39,5.07v46H90.25v-63.4Z"/><path class="cls-1" d="M214.12,610l.35-.05,9.9-45.06H238l-17.35,63.4H209l-13.48-43.31-.11-.58-.06.58L182,628.25H170.35L153,564.85h13.65l10.13,44.41.36.06,13.18-44.47H200.7Z"/><path class="cls-1" d="M278.57,574.46l18-31.53h16.88l-26.25,42.31,27.24,43H297.32l-18.51-32.06-18.52,32.06H243.42l26.83-43L244,542.93h16.76Z"/><path class="cls-1" d="M339.8,628.25H325.62V614.59H339.8Z"/><path class="cls-1" d="M383.86,618.05a13,13,0,0,0,8.79-3.06,9.65,9.65,0,0,0,3.58-7.66h12.89l.12.35q.28,8.91-7.24,15.35a27,27,0,0,1-18.14,6.45q-14,0-21.47-9t-7.47-22.85v-2.05q0-13.77,7.47-22.82t21.47-9.05q11.43,0,18.55,6.65a21.37,21.37,0,0,1,6.88,16.9l-.11.35H396.23a12.43,12.43,0,0,0-3.43-8.85,11.72,11.72,0,0,0-8.94-3.63q-8,0-11.36,5.82t-3.34,14.6v2.05q0,9,3.34,14.72T383.86,618.05Z"/><path class="cls-1" d="M418,596q0-14.12,7.73-23.2T447,563.68q13.65,0,21.39,9.08t7.79,23.2v1.23q0,14.29-7.79,23.32t-21.27,9q-13.61,0-21.39-9T418,597.19Zm14.23,1.2q0,9.24,3.64,15.1t11.25,5.79q7.44,0,11.13-5.79t3.75-15.1v-1.23q0-9.06-3.75-14.92T447,575.1q-7.44,0-11.13,5.91t-3.64,14.92Z"/><path class="cls-1" d="M501.64,564.85l.76,8.26a21.48,21.48,0,0,1,7.79-7A23,23,0,0,1,521,563.68a19.54,19.54,0,0,1,10.67,2.81,17.06,17.06,0,0,1,6.68,8.44,22.25,22.25,0,0,1,7.73-8.27,20.86,20.86,0,0,1,11.25-3q9.55,0,15.09,6.53T578,590v38.21H563.75V590q0-8.09-2.79-11.36t-8.35-3.28a12.22,12.22,0,0,0-7.73,2.46,13.69,13.69,0,0,0-4.57,6.62c0,.58,0,1.09.06,1.52s.06.84.06,1.23v41.08H526.19V590q0-7.79-2.84-11.22T515,575.34a15,15,0,0,0-7.36,1.67,12.27,12.27,0,0,0-4.77,4.71v46.53H488.63v-63.4Z"/></g></g></g></svg>