<svg xmlns="http://www.w3.org/2000/svg" viewBox="0 0 205.78 50.61"><defs><style>.cls-1{fill:#fff;}.cls-2{stroke:#fff;stroke-width:2px;}.cls-2,.cls-3{stroke-miterlimit:10;}.cls-3{fill:none;stroke:#000;stroke-width:1.35px;}</style></defs><title>P-and-T</title><g id="Layer_2" data-name="Layer 2"><g id="Layer_1-2" data-name="Layer 1"><path class="cls-1" d="M60.65,45.63a3.61,3.61,0,0,1-2.12.67,3.53,3.53,0,0,1-2.66-1.15,3.79,3.79,0,0,1-1.09-2.71A4,4,0,0,1,55.07,41a3.79,3.79,0,0,1,.8-1.23,3.53,3.53,0,0,1,2.66-1.15,3.59,3.59,0,0,1,2.11.66A3.66,3.66,0,0,1,62,41h-.85a3,3,0,0,0-1.82-1.48,3.21,3.21,0,0,0-.92-.12,2.64,2.64,0,0,0-1.06.25,3.16,3.16,0,0,0-.94.67,3.13,3.13,0,0,0,0,4.31,2.92,2.92,0,0,0,3.66.47,3,3,0,0,0,1.09-1.17H62A3.73,3.73,0,0,1,60.65,45.63Z"/><path class="cls-1" d="M72.17,45.53a2.48,2.48,0,0,1-1.8.74,2.52,2.52,0,0,1-1.8-.74,2.54,2.54,0,1,1,3.6-3.59,2.52,2.52,0,0,1,0,3.59Zm-.55-3.05A1.71,1.71,0,0,0,70.37,42a1.78,1.78,0,0,0-1.77,1.77,1.78,1.78,0,0,0,1.77,1.76,1.78,1.78,0,0,0,1.77-1.76A1.71,1.71,0,0,0,71.62,42.48Z"/><path class="cls-1" d="M85.4,43.13a1.15,1.15,0,0,0-.48-1.06,1,1,0,0,0-.51-.11,1.15,1.15,0,0,0-.64.2,1.66,1.66,0,0,0-.48.51,2.21,2.21,0,0,0-.12.27v3.23H82.4v-3a1.15,1.15,0,0,0-.48-1.06,1,1,0,0,0-.51-.11,1.18,1.18,0,0,0-.64.2,1.52,1.52,0,0,0-.47.51,2.5,2.5,0,0,0-.3,1v2.49h-.78V41.3H80v.78a1.8,1.8,0,0,1,.55-.61,1.43,1.43,0,0,1,.89-.28,1.69,1.69,0,0,1,.81.16,1.56,1.56,0,0,1,.52.43,1.38,1.38,0,0,1,.2.33,2,2,0,0,1,.57-.64,1.45,1.45,0,0,1,.89-.28,1.73,1.73,0,0,1,.82.16,1.56,1.56,0,0,1,.52.43,2.11,2.11,0,0,1,.4,1.35v3H85.4Z"/><path class="cls-1" d="M92.64,49V41.32h.78v.83l.14-.16A2.23,2.23,0,0,1,97,42a2.67,2.67,0,0,1,0,3.54,2.25,2.25,0,0,1-3.39,0,2.09,2.09,0,0,1-.14-.17V49Zm3.71-6.44a1.67,1.67,0,0,0-2.44,0,1.8,1.8,0,0,0,0,2.47,1.65,1.65,0,0,0,2.44,0,1.78,1.78,0,0,0,0-2.47Z"/><path class="cls-1" d="M107.8,46.19v-.83a2.09,2.09,0,0,1-.14.17,2.26,2.26,0,0,1-3.4,0,2.7,2.7,0,0,1,0-3.54,2.24,2.24,0,0,1,3.4,0l.14.16v-.83h.77v4.87Zm-.49-3.67a1.68,1.68,0,0,0-2.45,0,1.8,1.8,0,0,0,0,2.47,1.66,1.66,0,0,0,2.45,0,1.8,1.8,0,0,0,0-2.47Z"/><path class="cls-1" d="M118.57,43.15a1.54,1.54,0,0,0-.21-.82.79.79,0,0,0-.71-.33,1.57,1.57,0,0,0-.81.18,1.52,1.52,0,0,0-.51.5,2.71,2.71,0,0,0-.34,1.47v2h-.78V41.32H116v.84a2,2,0,0,1,.62-.67,1.57,1.57,0,0,1,.91-.27,2,2,0,0,1,.84.15,1.62,1.62,0,0,1,.55.41,2.07,2.07,0,0,1,.44,1.37v3h-.78Z"/><path class="cls-1" d="M125.5,49l1.64-3.57-2-4.07H126l1.56,3.27,1.39-3.27h.86L126.44,49Z"/><path class="cls-1" d="M146.93,45.42v.77h-3.46V38.67h.77v6.75Z"/><path class="cls-1" d="M153.89,40a.47.47,0,0,1-.15.35.48.48,0,0,1-.34.14.48.48,0,0,1-.35-.14.48.48,0,0,1,0-.7.45.45,0,0,1,.35-.14.44.44,0,0,1,.34.14A.47.47,0,0,1,153.89,40Zm-.88,6.2V41.32h.78v4.87Z"/><path class="cls-1" d="M166.64,43.13a1.16,1.16,0,0,0-.47-1.06,1,1,0,0,0-.51-.11,1.15,1.15,0,0,0-.64.2,1.66,1.66,0,0,0-.48.51,2.24,2.24,0,0,0-.13.27,1.15,1.15,0,0,1,0,.19v3h-.77v-3a1.15,1.15,0,0,0-.48-1.06,1,1,0,0,0-.51-.11,1.15,1.15,0,0,0-.64.2,1.66,1.66,0,0,0-.48.51,2.86,2.86,0,0,0-.3,1v2.49h-.77V41.3h.77v.78a1.91,1.91,0,0,1,.55-.61,1.45,1.45,0,0,1,.89-.28,1.76,1.76,0,0,1,.82.16,1.56,1.56,0,0,1,.52.43,1.81,1.81,0,0,1,.2.33,2,2,0,0,1,.57-.64,1.43,1.43,0,0,1,.89-.28,1.76,1.76,0,0,1,.82.16,1.43,1.43,0,0,1,.51.43,2.11,2.11,0,0,1,.41,1.35v3h-.78Z"/><path class="cls-1" d="M174.82,40a.47.47,0,0,1-.15.35.48.48,0,0,1-.34.14.48.48,0,0,1-.35-.14.48.48,0,0,1,0-.7.45.45,0,0,1,.35-.14.44.44,0,0,1,.34.14A.47.47,0,0,1,174.82,40Zm-.88,6.2V41.32h.78v4.87Z"/><path class="cls-1" d="M180.79,41.32H182V39.43h.77v1.89H184V42h-1.21v4.15H182V42h-1.22Z"/><path class="cls-1" d="M194.78,44.05h-4.29a1.67,1.67,0,0,0,.61,1,1.77,1.77,0,0,0,1.93.22,1.76,1.76,0,0,0,.64-.54h.88a2.38,2.38,0,0,1-.93,1.1,2.33,2.33,0,0,1-1.27.41,2.86,2.86,0,0,1-1.11-.2,2.94,2.94,0,0,1-.81-.54,2.55,2.55,0,0,1,1.8-4.34,2.51,2.51,0,0,1,1.78.72,2.34,2.34,0,0,1,.77,1.74Zm-1.45-1.69a1.72,1.72,0,0,0-2.59.46,1.59,1.59,0,0,0-.23.57H194A1.8,1.8,0,0,0,193.33,42.36Z"/><path class="cls-1" d="M204.9,46.19v-.83a2.09,2.09,0,0,1-.14.17,2.26,2.26,0,0,1-3.4,0,2.67,2.67,0,0,1,0-3.54,2.24,2.24,0,0,1,3.4,0l.14.16V37.89h.77v8.3Zm-.49-3.67a1.68,1.68,0,0,0-2.45,0A1.8,1.8,0,0,0,202,45a1.66,1.66,0,0,0,2.45,0,1.8,1.8,0,0,0,0-2.47Z"/><path class="cls-1" d="M65.87,16.4a5.49,5.49,0,0,1,1.69,4.42,5.26,5.26,0,0,1-1.74,4.37,8.46,8.46,0,0,1-5.3,1.38H58.38v4.49h-3.6V15h5.69Q64.18,15,65.87,16.4Zm-2.64,6.33a3.06,3.06,0,0,0,.65-2.11,2.24,2.24,0,0,0-.84-2,4.63,4.63,0,0,0-2.62-.59h-2v5.41h2.41A3.17,3.17,0,0,0,63.23,22.73Z"/><path class="cls-1" d="M76.77,30a5.23,5.23,0,0,1-3.39,1.19,4.89,4.89,0,0,1-3.16-1A3.24,3.24,0,0,1,69,27.52c0-1.28.85-2.42,2.56-3.4a7.52,7.52,0,0,1-.84-1.23,2.88,2.88,0,0,1-.26-1.25,2.66,2.66,0,0,1,1.07-2.27,4.21,4.21,0,0,1,2.54-.78,4.08,4.08,0,0,1,2.5.76,2.47,2.47,0,0,1,1,2.12c0,1.14-.83,2.19-2.49,3.17.65.81,1.14,1.4,1.46,1.76a7.24,7.24,0,0,0,.66-1.69l2,1.46a10.66,10.66,0,0,1-1,2L80,29.92l-1.72,1.64Zm-4.69-1.4a2,2,0,0,0,1.31.41,2.83,2.83,0,0,0,1.73-.77c-.85-.9-1.59-1.71-2.2-2.44-.9.56-1.34,1.15-1.34,1.79A1.21,1.21,0,0,0,72.08,28.61Zm2-8a1,1,0,0,0-.69.27.93.93,0,0,0-.3.73,2.52,2.52,0,0,0,.7,1.33c.87-.46,1.3-.9,1.3-1.3a.93.93,0,0,0-.31-.77A1,1,0,0,0,74.05,20.65Z"/><path class="cls-1" d="M89,18.07v13H85.39v-13H80.83V15H93.54v3.11Z"/><path class="cls-1" d="M111.77,15h3.59v16.1h-3.59V24.73h-6.4v6.33h-3.59V15h3.59v6.73h6.4Z"/><path class="cls-1" d="M132.63,28.83a8.75,8.75,0,0,1-12,0,7.91,7.91,0,0,1-2.44-5.92A7.93,7.93,0,0,1,120.61,17a8.78,8.78,0,0,1,12,0,8,8,0,0,1,2.44,5.93A8,8,0,0,1,132.63,28.83Zm-1.22-5.91A5.25,5.25,0,0,0,130,19.25a4.55,4.55,0,0,0-6.79,0,5.21,5.21,0,0,0-1.39,3.67,5.21,5.21,0,0,0,1.39,3.66,4.57,4.57,0,0,0,6.79,0A5.24,5.24,0,0,0,131.41,22.92Z"/><path class="cls-1" d="M141.5,18.18A1.39,1.39,0,0,0,141,19.3a1.27,1.27,0,0,0,.64,1.12,11.44,11.44,0,0,0,2.92,1,8.33,8.33,0,0,1,3.56,1.69,4.19,4.19,0,0,1,1.26,3.29,4.33,4.33,0,0,1-1.62,3.51,6.46,6.46,0,0,1-4.27,1.35,9.86,9.86,0,0,1-6.88-2.83l2.14-2.63a7.61,7.61,0,0,0,4.81,2.28,2.53,2.53,0,0,0,1.55-.42,1.37,1.37,0,0,0,.57-1.15,1.33,1.33,0,0,0-.6-1.15,7.59,7.59,0,0,0-2.37-.87,10.06,10.06,0,0,1-4.11-1.74,4.08,4.08,0,0,1-1.3-3.36,4.18,4.18,0,0,1,1.64-3.53A6.63,6.63,0,0,1,143,14.6a9.88,9.88,0,0,1,3.23.55,8.67,8.67,0,0,1,2.8,1.56l-1.81,2.63a7.09,7.09,0,0,0-4.33-1.59A2.15,2.15,0,0,0,141.5,18.18Z"/><path class="cls-1" d="M158.87,18.07v13h-3.59v-13h-4.56V15h12.71v3.11Z"/><path class="cls-1" d="M165.82,15h3.59v16.1h-3.59Z"/><path class="cls-1" d="M184.4,15H188v16.1H184.4L176.73,21V31.06h-3.59V15h3.36l7.9,10.36Z"/><path class="cls-1" d="M202.17,22.86h3.61v5.71a8.43,8.43,0,0,1-6.63,2.67,8.18,8.18,0,0,1-6-2.35A7.94,7.94,0,0,1,190.8,23a8,8,0,0,1,2.45-6,8.14,8.14,0,0,1,5.92-2.39,8.76,8.76,0,0,1,6,2.28l-1.87,2.69a7.06,7.06,0,0,0-2-1.3,5.31,5.31,0,0,0-2-.36,4.74,4.74,0,0,0-3.45,1.39A5,5,0,0,0,194.5,23a4.94,4.94,0,0,0,1.35,3.64A4.33,4.33,0,0,0,199.06,28a6.14,6.14,0,0,0,3.11-.71Z"/><polygon class="cls-2" points="23.31 1.18 1 14.99 1 41.54 13.75 49.44 21.25 44.79 23.31 46.09 45.62 31.98 45.62 14.99 23.31 1.18 23.31 1.18"/><polygon class="cls-1" points="25.63 31.15 32.89 26.67 32.89 35.68 25.63 31.15"/><polygon class="cls-1" points="23.31 45 13.29 39.01 13.29 48.07 1.92 41.03 1.92 16.1 23.31 29.34 23.31 32.04 13.29 25.85 13.29 36.49 23.31 42.68 23.31 45"/><polygon class="cls-1" points="14.21 35.98 23.31 41.6 32.02 36.21 25.19 31.95 23.31 33.12 21.06 31.73 14.21 35.98"/><polygon class="cls-1" points="23.31 2.26 44.29 15.27 23.31 28.25 2.31 15.26 23.31 2.26"/><polygon class="cls-3" points="1.47 15.25 23.31 1.73 45.14 15.25 45.15 31.72 23.31 45.54 21.19 44.27 13.76 48.88 1.47 41.29 1.47 15.25"/><polyline class="cls-3" points="1.47 15.25 23.31 28.79 45.14 15.25"/><polyline class="cls-3" points="13.76 48.88 13.76 39.83 23.31 45.54"/><polygon class="cls-3" points="13.76 26.69 13.76 36.22 23.31 42.14 32.89 36.23 25.16 31.41 23.31 32.57 13.76 26.69"/><polyline class="cls-3" points="23.31 32.57 33.63 26.13 33.63 36.23"/><line class="cls-3" x1="13.85" y1="35.66" x2="21.06" y2="31.19"/></g></g></svg>