<svg width="739" height="341" viewBox="0 0 739 341" fill="none" xmlns="http://www.w3.org/2000/svg">
<g opacity="0.06" filter="url(#filter0_f)">
<path d="M633.335 -9.73822C627.611 -11.297 621.626 -12.596 615.902 -13.3753C614.861 -13.6351 614.081 -13.6351 613.04 -14.1546C613.3 -13.8949 611.999 -13.8949 609.917 -14.1546C587.28 -18.3112 564.123 -19.87 540.965 -18.5711C517.547 -17.2721 494.39 -12.3362 472.273 -4.28275C472.013 -3.76317 471.232 -3.2436 470.452 -2.98381C465.508 -0.385933 460.564 1.95225 455.36 3.77076L450.677 5.58931C431.682 13.6427 413.729 23.5146 396.556 35.4649C393.433 38.3225 389.531 41.1802 385.367 44.5574C371.837 56.5077 359.087 69.497 347.118 83.006C348.159 82.2266 348.94 81.9668 348.94 81.9668C349.2 82.7461 346.598 86.1234 343.215 89.7604L338.272 95.4758C343.215 90.28 348.159 85.0842 353.103 80.1482C353.883 79.3689 354.664 78.8494 355.184 78.3298C360.649 72.8743 366.373 67.1588 372.358 61.9631C398.117 38.5822 426.218 19.0983 456.141 5.58931C485.803 -7.91965 517.808 -15.4535 550.593 -16.4926C551.893 -16.7524 552.934 -16.4927 554.235 -16.2329C554.756 -15.9731 554.756 -15.9732 553.455 -15.9732C533.94 -14.934 514.425 -11.0372 495.951 -5.06208C476.436 1.43261 457.442 9.74585 439.749 20.1374C416.331 33.6463 394.995 50.0129 376 68.9774C356.485 88.2017 338.532 109.504 322.92 132.366C319.277 137.561 315.895 142.497 312.252 147.693L309.65 151.33L307.308 154.967L304.966 158.864C301.844 164.06 298.462 169.255 295.599 174.711C292.477 180.167 289.615 185.622 286.492 191.337L277.906 209.523L260.473 246.412L258.651 244.334L257.871 243.295C257.611 243.035 257.35 242.516 257.09 242.256L253.708 237.06L246.682 227.188L232.632 207.184L204.27 166.138L197.245 155.747L194.122 151.59L192.301 148.992L184.495 138.081L180.592 132.366C179.551 130.547 177.47 127.949 177.73 128.729L177.21 127.689C176.689 127.17 176.169 126.65 175.388 126.391C175.128 127.43 175.128 128.209 174.868 128.988V129.248L173.827 131.846L171.485 137.561L161.598 160.682L140.522 210.042L100.972 302.527C96.2884 313.697 91.6048 324.868 86.9213 335C74.692 313.697 63.7638 293.953 55.9578 278.886C48.1519 263.818 43.4684 252.647 42.6878 248.75C42.1674 245.633 43.7286 246.412 47.1111 249.79C52.0549 255.505 56.4782 261.48 60.9016 267.715L54.3967 256.544L44.249 238.619C39.5654 230.046 35.1421 222.252 31.7595 215.238C29.9381 211.861 28.377 208.743 27.076 205.626C26.8158 204.846 26.5556 204.587 26.2954 203.807L25.775 202.508C25.5148 201.729 25.2546 200.69 24.7342 200.17L21.6118 191.857C18.4895 180.686 11.2039 163.28 9.12237 153.668L11.2039 154.967L10.4233 152.889C7.30098 146.134 6 141.458 6 139.38L7.56118 139.12C9.90296 139.64 12.7651 141.978 17.1885 146.134C17.4487 145.875 18.4895 145.875 19.5302 146.914C18.2293 141.718 18.4895 139.12 21.872 141.718C20.8312 138.86 21.6118 139.12 23.6934 141.978C24.474 143.017 25.2546 144.316 26.0352 145.615C25.5148 144.056 25.2546 143.537 24.474 141.458L22.1322 137.301L15.1069 124.312C12.5049 119.116 11.4641 115.479 11.4641 115.479C10.4234 108.465 10.4234 108.465 11.7243 108.985C11.9845 109.245 12.2447 109.504 12.7651 110.024L9.64276 103.789C9.12237 102.49 8.60197 101.451 8.60197 101.451C9.64276 101.191 9.64276 101.191 9.38256 100.152C9.38256 99.8921 9.64276 99.8922 9.64276 99.8922C11.7243 102.23 11.7243 102.23 11.9845 102.23C12.5049 102.75 13.0253 103.529 13.0253 103.529L16.1477 107.946L18.4895 114.96L19.7904 115.999L20.0506 117.817V116.778L21.6118 119.896L19.7904 115.999C24.2138 123.793 24.2138 123.793 25.775 126.65C27.3362 129.508 29.4177 132.366 29.4177 132.885C29.4177 132.625 29.6779 132.625 29.6779 132.625L38.7848 148.992C39.045 149.771 39.3052 150.551 39.5654 151.07C40.6062 152.11 41.3868 153.408 41.9072 154.707L44.249 158.864L44.7694 159.643L47.1111 163.021L47.6315 163.8L57.7792 178.348L59.6006 181.985L60.6414 183.804L60.9016 184.583C61.1618 184.843 61.1618 184.843 61.1618 185.362C60.9016 185.102 60.9016 184.843 60.9016 184.323L60.6414 183.284C60.121 181.725 61.1618 182.764 60.9016 181.985C51.7947 164.06 41.1266 145.095 30.7187 126.131C29.1575 123.793 27.8566 121.455 27.076 118.857C27.3362 118.337 29.4177 120.415 31.2391 123.793C37.4838 132.625 43.7286 142.238 49.9733 152.109C53.0957 157.045 56.218 161.981 59.3404 167.177L64.0239 174.971L68.1871 181.985C72.3503 189.259 75.993 196.793 79.3756 204.587L79.6358 204.327C81.4572 201.209 83.2785 197.312 85.0999 193.675L84.8397 193.935L86.6611 191.337L86.9213 191.078C86.4009 191.337 85.8805 191.857 85.0999 192.117L84.3193 193.156C82.7581 196.273 81.197 198.871 79.3756 201.729C77.0338 196.014 74.9522 191.337 72.8707 187.181C72.0901 185.362 71.5697 183.544 71.0493 181.725L70.7891 180.686V180.426L70.5289 180.166L70.2687 179.647L68.9677 177.309L64.5443 168.476C62.723 165.359 61.9424 163.28 62.4628 163.28C64.2842 165.099 65.5851 166.917 66.6259 168.996L71.8299 177.828L72.3503 178.868L72.6105 179.127L72.8707 179.387L73.1308 180.166C73.6512 181.206 74.1716 181.985 74.9522 183.024C76.2532 185.362 77.294 187.7 78.3348 190.298C80.1562 188.48 81.9776 186.661 84.0591 185.102C84.3193 184.063 85.0999 183.284 85.6203 182.505C85.8805 182.245 86.1407 181.725 86.6611 181.206L86.9213 180.686L87.1815 180.426L87.4417 180.166L87.7019 179.907L87.9621 179.647L87.7019 180.166C87.4417 180.426 87.4417 180.426 87.4417 180.426L87.1815 180.686L86.6611 180.946C86.9213 180.686 86.9213 180.426 87.1815 179.907L89.0029 176.789C90.0437 174.711 91.3446 172.892 92.6456 170.295L90.8242 171.853C97.3292 157.825 103.574 143.536 109.819 129.248C112.941 122.234 116.324 114.96 119.446 108.205L126.471 92.3583L134.017 75.9917L136.359 71.0557C143.904 51.5716 151.71 30.7887 161.598 7.66758L151.71 30.0092C156.134 19.0982 160.297 8.44694 164.98 -2.72393C168.883 2.9914 173.047 9.22621 177.47 15.2013C192.561 37.2833 208.433 61.7033 221.443 82.7461L226.387 90.5397C227.948 92.8778 229.769 95.9953 230.29 97.0344C232.111 99.8921 233.412 102.75 234.713 105.348C237.575 110.543 239.917 115.22 241.478 118.857L244.601 123.273L246.422 125.611L249.805 130.547L253.187 135.483L255.009 137.821L255.789 138.86L256.049 139.12C256.049 139.12 256.049 138.86 256.31 138.86L256.57 138.081C258.131 134.964 259.692 131.846 261.514 128.988C262.294 127.43 263.335 125.871 264.116 124.572L265.417 122.494L266.197 121.455L268.018 118.857C278.687 102.49 290.395 86.9028 302.885 71.8352C304.186 70.0166 306.007 68.4578 307.568 67.1588C308.089 67.1588 306.788 68.9775 304.966 71.3155C292.477 86.643 280.768 102.49 270.1 118.857L268.279 121.974L268.018 122.494L267.758 122.753L267.498 123.273L265.937 125.871C264.896 127.689 263.855 129.508 262.815 131.067C260.733 134.704 258.912 138.341 257.09 142.238L256.83 143.017C256.57 143.277 256.57 143.796 256.57 143.277L255.529 142.238L253.708 139.899L255.529 142.757L256.57 144.316C256.83 144.576 256.83 144.316 256.83 144.056L257.09 143.536C260.213 137.821 263.855 131.846 268.018 125.871L272.962 118.857C275.304 115.479 277.646 112.102 279.988 108.985C284.931 102.49 289.875 95.7356 294.819 89.5007C297.941 85.8636 300.803 81.707 303.926 78.07C307.048 74.4329 310.17 70.7959 313.553 67.1588C329.685 49.2335 347.118 32.6072 366.113 17.2798C385.367 1.95229 406.183 -11.5567 428.3 -22.9873C447.034 -32.5995 466.809 -39.8735 487.104 -45.0693C507.66 -50.265 528.736 -53.3825 549.812 -53.9021C579.735 -54.6815 609.657 -50.7846 638.539 -42.991C666.64 -35.1974 693.961 -24.2864 719.721 -10.2578C726.746 -6.6208 732.73 -2.4642 732.991 -1.16526C733.251 -0.126114 728.047 -2.20438 721.022 -5.84141C693.701 -19.8699 664.819 -31.3007 634.896 -39.3541C604.714 -47.4075 573.23 -50.7846 541.746 -49.4857C510.002 -47.927 478.778 -40.9128 449.376 -28.9626C419.713 -16.7526 391.872 -0.385902 366.893 19.6177C356.225 28.1907 345.817 37.0236 335.93 46.6357C336.19 46.6357 336.19 46.6357 336.45 46.6357C336.711 46.6357 336.19 48.1944 334.889 50.0129C346.078 39.3616 357.526 29.23 369.756 19.8776C386.408 5.84909 404.622 -6.36092 424.137 -16.4926C471.493 -41.692 525.614 -51.0445 578.694 -43.2509C615.642 -39.6139 652.069 -30.2614 686.155 -15.1937C687.196 -14.9339 688.497 -14.1547 689.278 -13.3753C689.538 -13.1155 689.017 -13.1155 687.456 -13.635C663.258 -23.507 638.279 -31.0408 612.259 -36.2366C616.162 -34.6779 618.504 -33.6388 617.984 -32.8594C617.463 -32.08 614.341 -32.0799 609.397 -32.5995C615.121 -31.3006 621.106 -30.0017 626.83 -28.443C630.473 -27.4038 633.075 -26.3646 632.815 -26.1048C632.555 -25.845 629.692 -26.3647 626.31 -27.144C602.892 -33.6387 578.954 -37.016 554.756 -37.5355C525.874 -37.7953 496.732 -33.1192 469.411 -23.7668C472.273 -24.2864 475.135 -24.5461 477.997 -24.2863C482.421 -25.5852 486.584 -26.6245 490.747 -27.6636C510.522 -32.8594 531.078 -35.7169 551.633 -35.9767C572.449 -36.2365 593.265 -34.1583 613.82 -29.7419C654.671 -21.1689 693.701 -4.0229 729.348 17.5395C730.909 18.5786 731.69 19.358 731.69 19.358C731.69 19.358 730.389 19.0982 729.348 18.3188C707.752 5.06964 685.114 -5.84141 661.436 -14.934C662.477 -14.6742 662.477 -14.1547 661.436 -14.6743C660.135 -14.934 658.834 -15.4536 657.794 -15.9732C656.753 -16.4928 656.753 -16.7525 657.794 -16.2329C635.677 -24.2863 613.04 -30.2614 589.622 -33.1191C566.725 -36.2366 543.307 -35.9768 520.149 -32.8594C541.486 -35.1975 562.822 -35.1974 584.158 -32.5995C605.234 -30.0016 626.05 -25.0657 646.345 -18.0515C650.768 -16.7525 655.192 -15.4535 659.615 -13.8948C660.656 -13.635 661.697 -12.8557 662.737 -12.3361C662.998 -12.0763 661.957 -12.0763 660.916 -12.5958L657.273 -13.635C664.819 -10.7774 670.283 -7.65999 669.763 -6.88063C668.982 -6.10126 662.477 -7.91971 654.671 -11.0372C633.856 -18.571 612.519 -24.0265 590.403 -27.4038C588.061 -27.6635 585.719 -27.9233 583.377 -28.1831C581.036 -28.4429 578.694 -28.443 576.352 -28.443C610.438 -24.8059 643.223 -14.6741 674.186 -0.905384C676.007 -0.385807 677.569 0.653278 678.87 1.95222C678.87 2.21201 676.528 1.69249 673.926 0.393555C646.345 -11.0371 617.463 -18.8308 588.061 -22.7276C558.398 -26.3646 528.476 -25.3254 499.334 -19.0905C480.6 -13.635 462.386 -5.84148 445.213 3.51088L451.978 0.393555C479.559 -11.8165 509.221 -19.3504 539.404 -21.9483C569.587 -24.2864 599.77 -21.6885 628.652 -13.635C629.692 -13.3753 630.733 -13.1154 631.514 -12.5958C631.774 -12.336 630.473 -12.5959 629.172 -12.8557C614.861 -16.4927 600.29 -19.3504 585.459 -20.6493C570.888 -21.9483 556.057 -22.2081 541.746 -21.1689C518.068 -19.6102 494.65 -14.4144 472.794 -5.84141C494.65 -13.3753 517.287 -18.0514 540.185 -19.6101C563.342 -21.1689 586.5 -19.6101 609.137 -15.1937C610.958 -14.9339 612.78 -14.4143 614.341 -13.8948C614.601 -13.8948 615.121 -13.8948 615.382 -13.8948C621.106 -12.8556 627.611 -11.5567 633.856 -9.99795C634.896 -9.73816 636.197 -9.21868 637.238 -8.95889C635.677 -9.47847 634.896 -9.73822 633.335 -9.73822ZM78.595 226.928L78.3348 225.889L79.896 229.007L80.9368 231.864C81.197 231.604 81.4572 231.604 81.9776 231.345L80.9368 232.384L78.595 226.928ZM46.5907 183.544L45.55 180.166L46.5907 183.544ZM259.692 136.782C257.871 139.9 256.57 142.497 255.009 145.355L254.748 146.134L254.488 146.394V146.654L254.228 146.394L253.187 144.835L251.366 141.718L247.723 136.003C245.381 132.106 243.04 128.209 240.698 124.572L245.642 131.326L250.325 138.86L252.667 142.757L253.708 144.835L253.968 145.355C253.968 145.355 253.968 145.615 254.228 145.615L254.488 145.355L255.009 144.316C256.31 142.237 257.871 139.38 259.692 136.782ZM64.5443 192.896C65.8453 196.533 66.8861 200.17 68.1871 204.067C69.7483 206.145 71.0493 208.483 72.6105 211.081C75.2124 215.498 77.8144 220.174 80.4164 224.85L83.5387 218.355C83.0183 218.355 83.7989 216.797 84.0591 216.017L85.0999 213.419L80.1562 222.772L74.4318 211.861C70.7891 205.106 67.4065 198.611 64.5443 192.896ZM20.571 122.494L20.3108 121.195L22.1322 123.013L20.571 122.494ZM17.7089 119.896L18.4895 121.714C17.9691 121.195 17.7089 120.415 17.7089 119.896ZM25.5148 134.704C25.2546 133.924 24.9944 133.145 24.474 132.366L25.5148 134.704ZM12.7651 156.526L19.2701 160.163L12.7651 155.747V156.526Z" fill="white"/>
</g>
<defs>
<filter id="filter0_f" x="0" y="-60" width="739" height="401" filterUnits="userSpaceOnUse" color-interpolation-filters="sRGB">
<feFlood flood-opacity="0" result="BackgroundImageFix"/>
<feBlend mode="normal" in="SourceGraphic" in2="BackgroundImageFix" result="shape"/>
<feGaussianBlur stdDeviation="3" result="effect1_foregroundBlur"/>
</filter>
</defs>
</svg>
